<?xml version="1.0" standalone="no"?>
<!DOCTYPE svg PUBLIC "-//W3C//DTD SVG 20010904//EN"
 "http://www.w3.org/TR/2001/REC-SVG-20010904/DTD/svg10.dtd">
<svg version="1.0" xmlns="http://www.w3.org/2000/svg"
 width="1012.000000pt" height="1012.000000pt" viewBox="0 0 1012.000000 1012.000000"
 preserveAspectRatio="xMidYMid meet">

<g transform="translate(0.000000,1012.000000) scale(0.100000,-0.100000)"
fill="#000000" stroke="none">
<path d="M3460 10084 c-37 -27 -46 -39 -107 -159 -67 -132 -106 -192 -132
-200 -11 -3 -46 1 -78 9 -135 35 -214 46 -322 46 -131 0 -173 -14 -242 -80
-50 -48 -51 -81 -4 -197 19 -47 44 -120 55 -162 32 -117 35 -118 167 -71 46
17 94 30 106 30 12 0 56 18 97 38 l75 38 3 45 c4 49 21 73 62 88 43 15 57 -3
90 -113 42 -140 42 -141 -27 -162 -130 -38 -199 -57 -351 -100 -25 -7 -9 -57
27 -81 31 -21 35 -21 68 -8 20 8 66 15 104 15 63 0 69 -2 69 -21 0 -55 -44
-79 -145 -79 -42 0 -66 -5 -75 -14 -22 -27 -40 -120 -40 -207 0 -59 -6 -107
-20 -149 -11 -34 -20 -75 -20 -91 0 -27 -9 -50 -67 -179 -18 -39 -28 -83 -34
-150 -13 -153 -46 -227 -178 -393 -32 -40 -68 -94 -79 -118 -11 -24 -36 -62
-56 -84 -20 -22 -59 -75 -88 -119 -46 -69 -52 -84 -50 -125 1 -41 -3 -51 -39
-91 -68 -75 -89 -130 -89 -235 0 -88 1 -92 50 -192 56 -112 59 -115 139 -158
55 -30 56 -30 131 -181 41 -84 105 -216 142 -295 37 -79 101 -218 144 -309 42
-91 107 -230 144 -310 37 -80 86 -185 108 -235 40 -89 82 -256 82 -324 0 -36
15 -128 32 -196 5 -22 20 -87 33 -145 37 -170 103 -368 137 -409 13 -15 64
-60 113 -99 50 -39 108 -88 130 -107 22 -20 56 -45 75 -55 46 -26 66 -44 120
-110 24 -30 52 -62 60 -70 40 -38 131 -161 146 -196 9 -21 47 -82 84 -134 37
-52 80 -115 96 -139 l29 -44 8 -356 c16 -723 10 -971 -27 -1055 -14 -30 -16
-55 -11 -110 9 -103 17 -626 10 -653 -3 -13 -29 -39 -61 -60 -58 -39 -78 -66
-89 -124 -6 -31 -2 -41 34 -87 68 -85 75 -125 42 -247 -26 -96 -37 -121 -71
-163 -35 -43 -37 -57 -10 -97 11 -16 20 -42 20 -56 0 -40 36 -78 86 -90 24 -6
65 -27 90 -47 26 -19 67 -41 92 -48 28 -9 58 -28 78 -49 l32 -35 98 0 c55 0
105 4 113 9 8 5 24 29 35 53 16 33 34 50 76 73 35 20 62 43 75 67 31 55 52 74
107 98 71 30 93 22 122 -44 13 -30 36 -62 51 -72 26 -17 30 -17 89 0 33 10 88
21 121 25 33 4 70 12 82 19 18 10 29 9 67 -10 40 -19 51 -20 92 -11 40 9 57 8
108 -9 45 -14 82 -19 142 -16 74 3 86 6 127 35 25 18 66 42 90 52 25 11 53 32
63 46 9 14 30 33 46 41 28 14 28 15 22 87 -12 130 -44 157 -188 157 -131 0
-136 5 -136 140 0 129 19 207 85 346 69 145 148 246 245 313 41 28 84 51 96
51 11 0 33 -14 49 -30 47 -49 187 -120 237 -120 23 0 68 -5 99 -12 l58 -12 58
38 c32 20 87 51 123 68 85 40 96 51 115 114 16 56 46 88 152 161 50 34 56 36
87 25 18 -7 52 -12 77 -12 29 -1 58 -9 84 -25 47 -29 119 -33 154 -9 12 9 31
36 41 59 21 48 67 88 125 107 l40 13 2 88 2 89 -38 41 c-49 55 -121 199 -121
243 0 26 -10 45 -41 79 -23 25 -49 45 -57 45 -9 0 -44 -30 -79 -66 -64 -67
-83 -73 -83 -27 0 29 -67 103 -93 103 -9 0 -32 -13 -50 -30 -42 -37 -68 -38
-111 -5 -28 21 -40 24 -78 19 -48 -7 -65 3 -94 52 -11 18 -14 17 -51 -19 -31
-29 -47 -37 -76 -37 -46 0 -94 40 -81 68 16 38 16 148 0 180 -32 61 -24 76 93
196 90 92 115 124 143 186 19 42 33 81 30 88 -6 19 -53 14 -97 -9 -22 -12 -58
-30 -80 -41 -66 -33 -253 -171 -264 -195 -7 -16 -7 -31 -1 -49 14 -37 5 -58
-38 -86 -55 -36 -72 -40 -98 -23 -29 19 -30 48 -4 86 39 54 63 124 71 204 4
44 10 89 14 101 4 14 -1 30 -18 50 -14 16 -27 38 -29 49 -7 33 19 72 55 84 42
14 77 3 100 -33 24 -36 55 -41 107 -17 25 11 55 21 66 21 12 0 42 9 67 20 34
15 51 18 70 11 28 -11 70 -62 86 -104 15 -40 71 -38 118 3 39 34 57 33 109 -6
33 -26 80 -32 87 -11 2 6 -6 33 -19 59 -34 68 -31 88 21 135 l45 40 0 75 c0
44 -5 81 -12 90 -16 19 -838 567 -894 596 -21 11 -54 23 -71 27 -23 4 -33 12
-33 25 0 23 46 60 74 60 18 0 288 -172 596 -379 41 -28 165 -110 275 -182 110
-72 205 -135 211 -140 6 -5 14 -29 16 -54 4 -33 15 -55 47 -91 34 -39 48 -68
77 -163 20 -64 46 -145 59 -181 26 -74 55 -161 90 -270 31 -100 62 -191 91
-270 13 -36 31 -94 40 -129 10 -35 28 -76 42 -92 21 -26 30 -29 81 -29 101 0
241 73 241 125 0 9 -9 41 -21 73 -12 31 -29 84 -39 117 -10 33 -28 85 -40 115
-12 30 -30 82 -40 115 -10 33 -73 220 -140 415 -95 276 -465 1368 -579 1710
-11 30 -32 91 -49 136 -60 164 -76 177 -169 148 -80 -25 -103 -50 -103 -114 0
-55 -23 -90 -60 -90 -16 0 -20 7 -20 35 0 42 -17 82 -62 150 -30 45 -37 50
-78 55 -37 4 -48 11 -67 40 -39 60 -44 64 -60 47 -8 -7 -23 -46 -33 -86 -10
-40 -31 -91 -46 -113 -21 -30 -27 -49 -25 -83 2 -53 -17 -75 -66 -75 l-36 0 8
38 c19 99 19 92 -9 92 -28 0 -66 31 -66 54 0 8 14 56 30 106 17 50 30 97 30
104 0 23 -37 48 -79 53 -39 5 -41 4 -41 -20 0 -14 -13 -67 -30 -117 -16 -50
-30 -98 -30 -105 0 -7 -6 -17 -13 -23 -15 -13 -91 4 -144 31 -18 10 -44 17
-59 17 -25 0 -26 2 -20 33 4 17 11 55 15 84 5 33 21 73 48 115 112 176 133
213 133 235 0 39 -34 27 -80 -27 l-43 -51 -66 7 c-57 5 -68 4 -82 -12 -20 -22
-49 -105 -49 -137 0 -28 -17 -47 -42 -47 -10 0 -66 36 -124 79 -59 44 -128 87
-153 96 -25 9 -80 30 -121 45 -89 34 -197 63 -209 55 -10 -6 -19 -58 -27 -160
-5 -61 -3 -73 15 -97 13 -15 43 -34 74 -43 77 -25 84 -35 69 -92 -20 -75 -36
-93 -81 -93 -45 0 -57 11 -66 64 -4 21 -19 59 -34 85 l-26 46 3 1000 c2 707 0
1010 -8 1035 -7 22 -13 190 -16 445 -5 417 -10 472 -44 560 -10 28 -44 142
-75 255 -31 113 -63 225 -72 250 -12 33 -18 102 -23 260 -6 215 -6 215 -38
280 -17 36 -37 72 -44 81 -24 30 -128 97 -185 119 -32 13 -106 45 -164 71 -59
26 -128 53 -155 60 -27 6 -93 32 -146 56 -54 24 -117 50 -140 56 l-43 13 -3
58 -3 59 -47 -9 c-51 -9 -164 -9 -372 1 -119 6 -138 4 -160 -11z m1439 -1188
c33 -36 106 -328 89 -356 -13 -20 -79 -52 -133 -64 -16 -4 -68 -21 -114 -39
-67 -25 -96 -43 -137 -84 -29 -29 -58 -53 -64 -53 -23 0 -70 31 -94 62 -18 25
-25 49 -29 98 -2 36 -10 105 -17 153 -12 83 -12 90 7 115 31 44 136 92 200 92
63 0 82 9 140 61 36 33 50 39 86 39 33 0 49 -6 66 -24z m133 -467 c42 -23 52
-71 61 -304 5 -121 11 -820 13 -1554 l4 -1334 -107 5 c-79 4 -128 12 -183 31
-41 13 -97 28 -125 32 -27 4 -58 13 -69 21 -30 21 -62 17 -106 -13 -45 -29
-42 -29 -281 -18 l-145 7 -65 -33 c-35 -18 -84 -36 -109 -39 -25 -4 -51 -9
-59 -11 -12 -3 -44 161 -162 836 -82 462 -148 841 -149 843 0 2 10 2 22 0 18
-2 25 -14 36 -63 25 -107 27 -108 75 -102 24 3 81 18 127 32 146 47 219 137
269 335 15 60 33 115 39 123 7 8 34 17 60 19 26 3 89 22 139 42 51 20 104 36
118 36 28 0 56 -37 76 -100 23 -71 56 -86 114 -50 23 14 40 39 60 87 l29 67
-27 48 c-35 63 -36 116 -2 156 31 37 31 53 0 82 -34 32 -95 182 -95 235 0 23
-7 59 -15 78 -18 44 -19 99 -3 145 11 28 10 38 -5 64 -23 40 -22 53 9 77 37
29 56 27 132 -19 45 -27 72 -38 86 -34 12 4 21 7 21 8 1 0 17 28 37 61 20 33
39 80 43 105 5 31 18 55 40 77 34 34 62 41 97 22z m-1865 -944 c114 -56 133
-73 133 -122 0 -23 32 -93 43 -93 2 0 25 7 51 16 36 13 50 14 55 5 12 -19 64
-338 57 -350 -4 -6 -23 -13 -44 -16 -20 -4 -58 -11 -83 -17 -41 -10 -57 -8
-130 15 -112 35 -156 80 -233 236 -63 128 -70 176 -40 267 16 48 58 114 73
114 4 0 57 -25 118 -55z m396 -167 c24 -58 54 -135 94 -246 23 -66 13 -88 -52
-108 -30 -10 -57 -16 -59 -13 -3 2 -19 89 -37 191 -26 152 -30 192 -21 213 20
44 46 32 75 -37z m-723 -170 c0 -6 -5 -37 -12 -68 -11 -55 -10 -58 20 -112 45
-79 43 -111 -12 -162 -24 -23 -53 -60 -65 -83 -39 -77 -117 -103 -191 -64 -24
12 -59 21 -86 21 -29 0 -64 10 -102 29 -65 33 -87 54 -79 75 5 13 15 12 64 -6
107 -39 164 -6 178 102 11 84 14 90 65 122 35 22 53 41 65 70 25 63 56 88 110
88 28 0 45 -4 45 -12z m685 -270 c16 -69 294 -1682 290 -1686 -2 -2 -41 -8
-87 -13 -46 -6 -108 -14 -139 -19 -30 -6 -80 -10 -110 -10 -64 -1 -113 -17
-161 -53 -19 -15 -43 -27 -52 -27 -51 0 -105 64 -136 165 -7 22 -25 65 -41 95
-15 30 -50 105 -78 165 -27 61 -83 182 -124 270 -41 88 -98 212 -126 275 -29
63 -66 144 -83 180 -63 132 -128 285 -128 301 0 30 23 37 135 43 365 19 384
21 570 69 99 25 194 47 210 49 37 4 42 29 21 111 -10 40 -12 66 -6 82 12 31
38 32 45 3z m3437 -1924 c104 -18 123 -25 139 -56 12 -21 140 -389 184 -528
13 -41 69 -205 124 -365 55 -159 100 -298 101 -308 0 -24 -46 -69 -68 -65 -9
2 -233 148 -498 324 l-480 322 -32 60 c-38 71 -39 84 -11 148 12 26 25 73 29
103 11 84 58 232 82 258 17 19 230 98 313 116 11 3 21 5 22 6 2 0 45 -6 95
-15z"/>
<path d="M5073 9494 l-31 -29 8 -180 c13 -277 19 -308 101 -486 39 -85 82
-194 95 -244 23 -87 24 -103 24 -482 0 -447 -10 -403 101 -458 135 -69 215
-95 285 -95 59 0 68 3 96 30 l30 30 -6 192 c-3 106 -10 240 -16 298 -6 58 -14
242 -19 410 -6 222 -12 321 -24 365 -16 64 -66 245 -91 334 -20 74 -67 138
-134 187 -79 58 -273 144 -337 151 -47 5 -55 3 -82 -23z"/>
</g>
</svg>
