<svg id="svg" version="1.1" xmlns="http://www.w3.org/2000/svg" xmlns:xlink="http://www.w3.org/1999/xlink" width="400" height="266.1818181818182" viewBox="0, 0, 400,266.1818181818182"><g id="svgg"><path id="path0" d="M0.000 133.688 C 0.000 263.396,0.011 266.312,0.502 266.312 C 0.777 266.312,1.065 266.075,1.141 265.785 C 1.216 265.496,1.619 265.106,2.036 264.920 C 2.806 264.575,4.973 263.182,5.630 262.609 C 5.829 262.436,6.651 261.888,7.457 261.392 C 8.262 260.896,9.341 260.174,9.854 259.787 C 10.366 259.400,11.445 258.680,12.250 258.187 C 13.056 257.694,13.955 257.104,14.248 256.877 C 15.527 255.883,16.703 255.103,17.465 254.745 C 17.916 254.532,18.429 254.184,18.606 253.972 C 18.782 253.759,19.595 253.183,20.413 252.691 C 21.230 252.200,22.275 251.493,22.734 251.121 C 23.193 250.749,23.868 250.297,24.234 250.117 C 24.859 249.809,26.076 248.990,27.297 248.057 C 28.535 247.110,29.746 246.318,30.498 245.963 C 30.940 245.754,31.528 245.334,31.804 245.029 C 32.080 244.724,32.453 244.474,32.632 244.474 C 32.811 244.474,33.114 244.286,33.305 244.055 C 33.496 243.825,34.115 243.400,34.680 243.112 C 35.245 242.824,35.913 242.405,36.163 242.182 C 36.799 241.614,38.307 240.597,39.432 239.977 C 39.954 239.689,40.538 239.265,40.730 239.034 C 40.921 238.804,41.228 238.615,41.411 238.615 C 41.595 238.615,41.902 238.427,42.093 238.196 C 42.285 237.966,42.869 237.544,43.391 237.259 C 43.913 236.975,44.880 236.326,45.539 235.818 C 46.198 235.311,47.277 234.592,47.936 234.221 C 48.595 233.850,49.674 233.133,50.333 232.628 C 50.992 232.123,51.910 231.517,52.373 231.282 C 52.835 231.047,53.423 230.623,53.679 230.341 C 53.935 230.058,54.290 229.827,54.469 229.827 C 54.648 229.827,54.951 229.638,55.143 229.408 C 55.334 229.178,55.918 228.756,56.440 228.471 C 56.963 228.186,57.929 227.538,58.589 227.031 C 59.248 226.523,60.253 225.855,60.823 225.546 C 61.393 225.237,62.105 224.756,62.405 224.476 C 62.705 224.197,63.086 223.968,63.253 223.968 C 63.419 223.968,63.837 223.668,64.181 223.302 C 64.525 222.936,64.907 222.636,65.029 222.636 C 65.152 222.636,65.979 222.127,66.866 221.505 C 69.014 219.998,70.493 219.043,71.704 218.379 C 72.254 218.078,72.703 217.712,72.703 217.565 C 72.703 217.419,73.033 217.155,73.435 216.979 C 74.355 216.578,76.415 215.197,77.239 214.430 C 77.582 214.110,77.949 213.848,78.053 213.848 C 78.157 213.848,78.943 213.364,79.800 212.773 C 81.380 211.683,81.846 211.374,83.755 210.151 C 84.341 209.776,85.214 209.136,85.695 208.729 C 86.176 208.322,86.673 207.989,86.800 207.989 C 87.125 207.989,89.521 206.351,90.225 205.648 C 90.548 205.324,90.930 205.060,91.073 205.060 C 91.324 205.060,93.422 203.734,94.807 202.699 C 95.173 202.425,96.157 201.763,96.992 201.227 C 97.828 200.692,98.585 200.135,98.675 199.990 C 98.764 199.845,99.279 199.484,99.818 199.188 C 100.358 198.892,101.294 198.325,101.899 197.927 C 102.504 197.529,103.762 196.702,104.695 196.089 C 105.628 195.476,106.811 194.659,107.324 194.273 C 107.836 193.887,108.915 193.168,109.720 192.674 C 110.526 192.181,111.425 191.592,111.718 191.364 C 112.938 190.416,114.165 189.614,114.948 189.253 C 115.406 189.042,115.860 188.740,115.958 188.582 C 116.055 188.424,116.759 187.894,117.522 187.403 C 118.869 186.536,119.358 186.213,121.429 184.820 C 121.974 184.454,122.828 183.894,123.327 183.576 C 123.826 183.258,124.474 182.807,124.767 182.573 C 125.060 182.340,125.959 181.738,126.764 181.237 C 127.570 180.735,128.513 180.108,128.861 179.843 C 129.644 179.245,130.393 178.732,131.575 177.981 C 132.078 177.662,132.850 177.149,133.289 176.841 C 135.387 175.373,136.014 174.965,136.793 174.564 C 137.256 174.325,137.844 173.899,138.100 173.616 C 138.355 173.334,138.711 173.103,138.890 173.103 C 139.069 173.103,139.372 172.914,139.563 172.684 C 139.755 172.453,140.339 172.032,140.861 171.747 C 141.383 171.462,142.350 170.814,143.009 170.306 C 143.668 169.798,144.747 169.079,145.406 168.708 C 146.065 168.338,147.144 167.617,147.803 167.106 C 148.462 166.596,149.181 166.096,149.401 165.996 C 150.050 165.699,152.845 163.759,153.012 163.489 C 153.096 163.353,153.547 163.065,154.013 162.849 C 154.479 162.634,155.399 162.039,156.059 161.526 C 156.718 161.014,157.697 160.356,158.234 160.064 C 159.637 159.300,161.518 158.004,161.912 157.530 C 162.097 157.307,162.398 157.124,162.579 157.124 C 162.761 157.124,163.340 156.794,163.867 156.391 C 165.175 155.391,166.333 154.594,167.909 153.606 C 168.642 153.147,169.541 152.508,169.907 152.185 C 170.273 151.863,170.878 151.434,171.252 151.232 C 172.722 150.438,173.751 149.768,174.575 149.068 C 175.049 148.665,175.529 148.336,175.643 148.336 C 175.756 148.336,176.241 148.036,176.721 147.670 C 177.201 147.304,177.676 147.004,177.777 147.004 C 177.877 147.004,178.350 146.674,178.828 146.272 C 179.306 145.869,180.322 145.180,181.086 144.740 C 181.850 144.301,182.691 143.723,182.954 143.456 C 183.217 143.189,183.785 142.769,184.217 142.524 C 186.026 141.496,186.799 140.972,187.529 140.280 C 187.953 139.877,188.440 139.547,188.610 139.547 C 188.948 139.547,190.594 138.489,191.913 137.424 C 192.371 137.054,193.370 136.391,194.132 135.952 C 194.893 135.513,196.000 134.714,196.591 134.177 L 197.664 133.201 196.768 132.743 C 196.275 132.491,195.776 132.121,195.659 131.921 C 195.542 131.721,195.314 131.558,195.152 131.558 C 194.990 131.558,194.433 131.228,193.915 130.826 C 193.397 130.423,192.661 129.913,192.279 129.694 C 190.411 128.619,189.752 128.186,189.240 127.697 C 188.933 127.404,188.371 126.984,187.992 126.765 C 186.486 125.893,185.527 125.267,184.625 124.567 C 184.106 124.164,183.523 123.835,183.328 123.835 C 183.134 123.835,182.847 123.595,182.690 123.302 C 182.533 123.009,182.233 122.770,182.024 122.770 C 181.814 122.770,181.249 122.435,180.768 122.027 C 180.287 121.618,179.594 121.136,179.228 120.956 C 178.584 120.639,177.267 119.764,176.165 118.921 C 174.878 117.936,173.721 117.170,173.127 116.908 C 172.774 116.753,172.089 116.300,171.605 115.903 C 170.027 114.606,169.255 114.086,168.395 113.740 C 167.929 113.553,167.485 113.235,167.408 113.033 C 167.330 112.832,166.872 112.482,166.390 112.257 C 165.574 111.876,164.392 111.108,163.116 110.132 C 161.845 109.161,160.663 108.386,159.920 108.038 C 159.481 107.832,158.893 107.407,158.614 107.094 C 158.335 106.781,157.944 106.525,157.746 106.525 C 157.547 106.525,157.176 106.275,156.921 105.970 C 156.667 105.665,156.009 105.232,155.459 105.009 C 154.910 104.785,154.461 104.498,154.461 104.371 C 154.461 104.243,153.981 103.894,153.395 103.595 C 152.810 103.296,152.330 102.942,152.330 102.809 C 152.330 102.675,152.061 102.486,151.731 102.388 C 151.401 102.290,150.689 101.862,150.149 101.438 C 149.608 101.013,149.057 100.666,148.925 100.666 C 148.793 100.666,148.459 100.416,148.183 100.111 C 147.906 99.806,147.319 99.386,146.876 99.177 C 145.956 98.743,144.424 97.695,143.748 97.038 C 143.495 96.793,142.806 96.376,142.217 96.112 C 141.627 95.848,141.145 95.508,141.145 95.358 C 141.145 95.207,140.843 95.007,140.473 94.915 C 140.104 94.822,139.652 94.533,139.470 94.273 C 139.288 94.013,138.722 93.609,138.211 93.376 C 137.701 93.142,136.744 92.531,136.085 92.019 C 135.426 91.507,134.467 90.841,133.955 90.540 C 132.804 89.864,131.361 88.854,130.537 88.149 C 130.195 87.856,129.775 87.616,129.605 87.616 C 129.434 87.616,128.875 87.256,128.362 86.818 C 127.850 86.379,127.287 86.020,127.112 86.019 C 126.938 86.019,126.631 85.785,126.430 85.499 C 126.230 85.212,125.730 84.851,125.319 84.695 C 124.582 84.414,123.861 83.917,122.125 82.490 C 121.636 82.087,121.117 81.758,120.973 81.758 C 120.830 81.758,120.260 81.398,119.707 80.959 C 119.154 80.519,118.535 80.160,118.331 80.160 C 118.126 80.160,117.888 79.973,117.800 79.746 C 117.713 79.518,117.118 79.085,116.477 78.784 C 115.837 78.483,115.313 78.145,115.313 78.032 C 115.313 77.920,114.967 77.684,114.545 77.510 C 114.123 77.335,113.524 76.901,113.215 76.545 C 112.906 76.190,112.489 75.899,112.289 75.899 C 112.088 75.899,111.492 75.569,110.965 75.166 C 108.958 73.635,108.561 73.353,107.623 72.787 C 107.092 72.468,106.208 71.956,105.659 71.650 C 105.110 71.344,104.660 70.971,104.660 70.820 C 104.660 70.669,104.271 70.367,103.795 70.148 C 103.319 69.929,102.510 69.460,101.997 69.104 C 99.800 67.581,99.400 67.314,98.136 66.522 C 97.403 66.063,96.505 65.416,96.138 65.085 C 95.772 64.753,95.173 64.351,94.807 64.191 C 94.036 63.855,92.515 62.834,91.745 62.135 C 91.452 61.869,90.901 61.472,90.521 61.252 C 89.016 60.381,88.057 59.755,87.155 59.055 C 86.636 58.652,86.053 58.322,85.858 58.322 C 85.664 58.322,85.376 58.083,85.220 57.790 C 85.063 57.497,84.763 57.257,84.554 57.257 C 84.344 57.257,83.768 56.902,83.274 56.468 C 82.779 56.033,82.086 55.551,81.733 55.395 C 81.125 55.128,79.869 54.306,78.695 53.408 C 77.408 52.423,76.251 51.657,75.657 51.395 C 75.304 51.240,74.611 50.758,74.116 50.323 C 73.622 49.889,73.048 49.534,72.840 49.534 C 72.633 49.534,72.367 49.370,72.250 49.169 C 72.133 48.968,71.528 48.547,70.905 48.232 C 70.283 47.917,69.774 47.564,69.774 47.447 C 69.774 47.331,69.384 47.031,68.908 46.781 C 68.036 46.323,66.631 45.386,65.646 44.605 C 65.353 44.373,64.868 44.039,64.568 43.863 C 62.689 42.758,62.152 42.404,61.412 41.780 C 60.958 41.397,60.327 41.003,60.011 40.905 C 59.695 40.806,59.370 40.551,59.288 40.337 C 59.206 40.124,58.656 39.756,58.065 39.520 C 57.474 39.283,56.991 38.986,56.991 38.858 C 56.991 38.730,56.511 38.381,55.925 38.083 C 55.340 37.784,54.860 37.431,54.860 37.299 C 54.860 37.167,54.458 36.926,53.967 36.764 C 53.476 36.602,52.796 36.173,52.456 35.811 C 52.116 35.449,51.728 35.153,51.594 35.153 C 51.459 35.153,51.031 34.907,50.641 34.606 C 49.494 33.718,48.139 32.816,47.071 32.229 C 46.521 31.927,46.072 31.571,46.072 31.437 C 46.072 31.304,45.802 31.114,45.473 31.016 C 45.143 30.918,44.431 30.491,43.890 30.066 C 43.350 29.642,42.787 29.294,42.641 29.294 C 42.494 29.294,42.215 29.068,42.021 28.791 C 41.828 28.515,41.252 28.097,40.741 27.863 C 40.231 27.629,39.274 27.019,38.615 26.507 C 37.956 25.995,37.057 25.378,36.618 25.134 C 36.178 24.891,35.480 24.409,35.066 24.064 C 34.652 23.718,34.147 23.435,33.944 23.435 C 33.740 23.435,33.452 23.208,33.304 22.931 C 33.155 22.653,32.702 22.306,32.296 22.158 C 31.890 22.011,31.318 21.698,31.025 21.463 C 30.169 20.778,28.701 19.771,27.696 19.180 C 27.184 18.879,26.225 18.218,25.566 17.710 C 24.907 17.203,24.008 16.588,23.569 16.344 C 23.129 16.100,22.399 15.618,21.946 15.273 C 21.492 14.929,20.987 14.647,20.823 14.647 C 20.659 14.647,20.401 14.416,20.249 14.133 C 20.098 13.850,19.704 13.534,19.374 13.430 C 19.045 13.327,18.461 12.989,18.076 12.680 C 17.692 12.370,17.033 11.908,16.611 11.652 C 15.665 11.078,14.016 9.977,12.521 8.921 C 11.310 8.067,10.245 7.379,8.811 6.525 C 8.319 6.232,7.570 5.662,7.145 5.260 C 6.720 4.857,6.245 4.527,6.088 4.527 C 5.931 4.527,5.471 4.258,5.065 3.928 C 4.660 3.599,3.933 3.089,3.450 2.796 C 2.967 2.503,2.143 2.004,1.619 1.686 C 1.095 1.368,0.516 1.099,0.333 1.087 C 0.067 1.070,0.000 27.756,0.000 133.688 " stroke="none" fill="#b30404" fill-rule="evenodd"></path><path id="path1" d="M1.914 0.463 C 1.963 0.718,2.242 0.969,2.533 1.022 C 2.824 1.074,3.362 1.390,3.728 1.724 C 4.095 2.058,4.694 2.485,5.060 2.673 C 5.426 2.860,5.882 3.235,6.074 3.504 C 6.265 3.774,6.609 3.995,6.837 3.995 C 7.066 3.995,7.663 4.354,8.163 4.794 C 8.664 5.233,9.227 5.593,9.415 5.593 C 9.603 5.593,10.018 5.892,10.336 6.258 C 10.655 6.625,11.077 6.924,11.275 6.924 C 11.473 6.924,11.863 7.177,12.142 7.485 C 12.422 7.794,13.099 8.226,13.648 8.446 C 14.198 8.666,14.647 8.959,14.647 9.097 C 14.647 9.235,15.067 9.523,15.579 9.738 C 16.092 9.952,16.511 10.252,16.511 10.405 C 16.511 10.557,17.021 10.909,17.643 11.186 C 18.266 11.463,18.984 11.935,19.238 12.236 C 19.493 12.537,19.876 12.783,20.089 12.783 C 20.302 12.783,20.634 13.009,20.828 13.286 C 21.022 13.563,21.630 13.977,22.179 14.206 C 22.727 14.435,23.245 14.801,23.328 15.018 C 23.412 15.236,23.830 15.491,24.259 15.585 C 24.687 15.679,25.149 15.964,25.286 16.219 C 25.422 16.474,26.020 16.902,26.615 17.170 C 27.210 17.438,27.696 17.765,27.696 17.897 C 27.696 18.029,28.116 18.312,28.628 18.526 C 29.141 18.740,29.561 19.038,29.561 19.187 C 29.561 19.337,30.100 19.691,30.759 19.973 C 31.418 20.256,31.957 20.617,31.957 20.776 C 31.957 20.936,32.382 21.243,32.901 21.460 C 33.420 21.677,33.908 22.020,33.986 22.221 C 34.063 22.423,34.408 22.659,34.752 22.746 C 35.097 22.832,35.730 23.199,36.161 23.561 C 36.591 23.923,37.260 24.340,37.646 24.487 C 38.033 24.634,38.349 24.924,38.349 25.131 C 38.349 25.338,38.629 25.578,38.970 25.664 C 39.312 25.750,40.048 26.182,40.605 26.625 C 41.162 27.068,41.785 27.430,41.989 27.430 C 42.193 27.430,42.429 27.610,42.514 27.830 C 42.598 28.050,43.193 28.462,43.837 28.747 C 44.480 29.031,45.007 29.389,45.007 29.542 C 45.007 29.695,45.428 29.996,45.942 30.211 C 46.457 30.426,46.945 30.776,47.027 30.989 C 47.109 31.202,47.457 31.447,47.802 31.534 C 48.146 31.620,48.766 31.974,49.181 32.320 C 49.595 32.667,50.203 33.034,50.533 33.137 C 50.863 33.241,51.256 33.557,51.408 33.840 C 51.559 34.123,51.855 34.354,52.064 34.354 C 52.273 34.354,52.838 34.689,53.320 35.097 C 53.801 35.506,54.524 35.983,54.927 36.157 C 55.330 36.331,55.659 36.590,55.659 36.733 C 55.659 36.876,56.198 37.231,56.858 37.522 C 57.517 37.814,58.056 38.165,58.056 38.302 C 58.056 38.439,58.420 38.701,58.865 38.886 C 59.311 39.070,59.820 39.420,59.997 39.664 C 60.175 39.907,60.705 40.263,61.176 40.455 C 61.647 40.646,62.177 40.977,62.353 41.189 C 62.530 41.402,63.073 41.742,63.561 41.946 C 64.048 42.150,64.447 42.441,64.447 42.593 C 64.447 42.745,64.837 43.051,65.313 43.274 C 66.380 43.774,67.857 44.781,68.603 45.518 C 68.912 45.823,69.339 46.072,69.554 46.072 C 69.768 46.072,70.347 46.431,70.839 46.871 C 71.331 47.310,71.887 47.670,72.075 47.670 C 72.262 47.670,72.648 47.918,72.931 48.222 C 73.214 48.526,73.799 48.975,74.231 49.221 C 76.132 50.301,76.831 50.770,77.376 51.332 C 77.696 51.661,78.107 51.931,78.291 51.931 C 78.475 51.931,79.034 52.290,79.535 52.730 C 80.035 53.169,80.599 53.529,80.788 53.529 C 80.977 53.529,81.414 53.828,81.758 54.194 C 82.102 54.561,82.496 54.860,82.634 54.860 C 82.773 54.860,83.295 55.220,83.796 55.659 C 84.296 56.099,84.860 56.458,85.049 56.458 C 85.238 56.458,85.675 56.758,86.019 57.124 C 86.363 57.490,86.804 57.790,87.000 57.790 C 87.195 57.790,87.564 58.038,87.819 58.341 C 88.074 58.645,88.692 59.067,89.193 59.279 C 89.694 59.491,90.270 59.902,90.473 60.192 C 90.676 60.482,91.030 60.719,91.258 60.719 C 91.487 60.719,92.083 61.079,92.584 61.518 C 93.084 61.957,93.648 62.317,93.836 62.317 C 94.024 62.317,94.439 62.617,94.757 62.983 C 95.076 63.349,95.498 63.648,95.696 63.648 C 95.894 63.648,96.282 63.898,96.558 64.203 C 96.834 64.508,97.472 64.930,97.976 65.140 C 98.480 65.351,99.058 65.761,99.261 66.051 C 99.465 66.341,99.818 66.578,100.047 66.578 C 100.275 66.578,100.872 66.937,101.372 67.377 C 101.873 67.816,102.436 68.176,102.624 68.176 C 102.813 68.176,103.227 68.475,103.545 68.842 C 103.864 69.208,104.284 69.507,104.479 69.507 C 104.674 69.507,105.115 69.807,105.459 70.173 C 105.803 70.539,106.249 70.839,106.450 70.839 C 106.651 70.839,107.114 71.137,107.478 71.502 C 107.843 71.867,108.440 72.240,108.805 72.332 C 109.170 72.423,109.578 72.702,109.711 72.952 C 109.845 73.202,110.441 73.626,111.036 73.894 C 111.631 74.162,112.117 74.490,112.117 74.621 C 112.117 74.753,112.537 75.036,113.049 75.250 C 113.562 75.464,113.981 75.756,113.981 75.898 C 113.981 76.040,114.581 76.460,115.313 76.831 C 116.045 77.202,116.644 77.623,116.644 77.767 C 116.644 77.911,116.830 78.029,117.056 78.029 C 117.282 78.029,117.746 78.308,118.087 78.648 C 118.427 78.989,119.086 79.425,119.550 79.617 C 120.014 79.810,120.539 80.173,120.716 80.425 C 120.894 80.676,121.338 80.976,121.704 81.090 C 122.071 81.204,122.610 81.530,122.903 81.815 C 123.632 82.524,125.125 83.536,126.150 84.017 C 126.618 84.236,127.098 84.574,127.216 84.767 C 127.334 84.960,127.824 85.277,128.306 85.472 C 128.787 85.666,129.301 86.049,129.447 86.321 C 129.593 86.594,129.893 86.818,130.115 86.818 C 130.336 86.818,130.807 87.108,131.162 87.463 C 131.517 87.818,132.051 88.185,132.350 88.280 C 132.648 88.375,133.235 88.740,133.653 89.092 C 134.071 89.444,134.730 89.852,135.116 89.999 C 135.503 90.146,135.819 90.440,135.819 90.651 C 135.819 90.863,136.166 91.112,136.590 91.206 C 137.014 91.299,137.581 91.618,137.850 91.915 C 138.118 92.211,138.730 92.618,139.209 92.818 C 139.688 93.018,140.080 93.302,140.080 93.449 C 140.080 93.596,140.619 93.955,141.278 94.247 C 141.937 94.538,142.477 94.889,142.477 95.026 C 142.477 95.163,142.841 95.426,143.286 95.610 C 143.731 95.795,144.241 96.152,144.418 96.403 C 144.595 96.655,145.011 96.946,145.341 97.051 C 145.671 97.155,146.271 97.515,146.673 97.851 C 147.075 98.187,147.673 98.547,148.003 98.650 C 148.333 98.753,148.726 99.069,148.878 99.352 C 149.029 99.635,149.325 99.867,149.534 99.867 C 149.744 99.867,150.309 100.201,150.790 100.610 C 151.271 101.018,151.994 101.495,152.397 101.669 C 152.800 101.843,153.129 102.103,153.129 102.245 C 153.129 102.388,153.668 102.744,154.328 103.035 C 154.987 103.327,155.526 103.683,155.526 103.826 C 155.526 103.969,155.940 104.223,156.445 104.390 C 156.951 104.557,157.438 104.926,157.529 105.210 C 157.619 105.493,157.920 105.726,158.198 105.726 C 158.476 105.726,159.097 106.060,159.578 106.469 C 160.059 106.877,160.782 107.354,161.185 107.528 C 161.588 107.702,161.917 107.966,161.917 108.113 C 161.917 108.261,162.307 108.564,162.783 108.787 C 163.850 109.286,165.327 110.294,166.073 111.031 C 166.382 111.335,166.809 111.585,167.024 111.585 C 167.239 111.585,167.817 111.944,168.309 112.383 C 168.801 112.823,169.363 113.182,169.557 113.182 C 169.751 113.182,170.171 113.482,170.489 113.848 C 170.808 114.214,171.232 114.514,171.432 114.514 C 171.632 114.514,172.074 114.793,172.414 115.133 C 172.755 115.474,173.413 115.910,173.877 116.102 C 174.341 116.294,174.840 116.674,174.986 116.947 C 175.132 117.220,175.441 117.443,175.673 117.443 C 175.905 117.443,176.504 117.803,177.005 118.242 C 177.505 118.682,178.087 119.041,178.299 119.041 C 178.510 119.041,178.879 119.341,179.119 119.707 C 179.359 120.073,179.760 120.373,180.011 120.373 C 180.261 120.373,180.748 120.672,181.092 121.039 C 181.436 121.405,181.872 121.704,182.061 121.704 C 182.250 121.704,182.799 122.048,183.280 122.467 C 183.761 122.887,184.424 123.315,184.754 123.417 C 185.083 123.520,185.353 123.694,185.353 123.804 C 185.353 123.913,185.862 124.287,186.485 124.634 C 187.107 124.980,187.773 125.482,187.965 125.748 C 188.156 126.014,188.500 126.232,188.728 126.232 C 188.957 126.232,189.554 126.591,190.054 127.031 C 190.554 127.470,191.118 127.830,191.306 127.830 C 191.494 127.830,191.909 128.129,192.227 128.495 C 192.546 128.862,192.968 129.161,193.166 129.161 C 193.364 129.161,193.728 129.384,193.975 129.657 C 194.221 129.930,194.899 130.367,195.481 130.629 C 196.062 130.892,196.538 131.214,196.538 131.346 C 196.538 132.384,193.754 132.357,299.193 132.357 L 400.000 132.357 400.000 66.178 L 400.000 0.000 200.913 0.000 C 11.950 0.000,1.830 0.024,1.914 0.463 " stroke="none" fill="#048c0b" fill-rule="evenodd"></path><path id="path2" d="M197.204 133.739 C 196.911 133.906,196.420 134.292,196.113 134.598 C 195.806 134.903,194.923 135.513,194.151 135.952 C 193.378 136.391,192.371 137.054,191.913 137.424 C 190.594 138.489,188.948 139.547,188.610 139.547 C 188.440 139.547,187.953 139.877,187.529 140.280 C 186.799 140.972,186.026 141.496,184.217 142.524 C 183.785 142.769,183.217 143.189,182.954 143.456 C 182.691 143.723,181.850 144.301,181.086 144.740 C 180.322 145.180,179.306 145.869,178.828 146.272 C 178.350 146.674,177.877 147.004,177.777 147.004 C 177.676 147.004,177.201 147.304,176.721 147.670 C 176.241 148.036,175.756 148.336,175.643 148.336 C 175.529 148.336,175.049 148.665,174.575 149.068 C 173.751 149.768,172.722 150.438,171.252 151.232 C 170.878 151.434,170.273 151.863,169.907 152.185 C 169.541 152.508,168.642 153.147,167.909 153.606 C 166.333 154.594,165.175 155.391,163.867 156.391 C 163.340 156.794,162.761 157.124,162.579 157.124 C 162.398 157.124,162.097 157.307,161.912 157.530 C 161.518 158.004,159.637 159.300,158.234 160.064 C 157.697 160.356,156.718 161.014,156.059 161.526 C 155.399 162.039,154.479 162.634,154.013 162.849 C 153.547 163.065,153.096 163.353,153.012 163.489 C 152.845 163.759,150.050 165.699,149.401 165.996 C 149.181 166.096,148.462 166.596,147.803 167.106 C 147.144 167.617,146.065 168.338,145.406 168.708 C 144.747 169.079,143.668 169.798,143.009 170.306 C 142.350 170.814,141.383 171.462,140.861 171.747 C 140.339 172.032,139.755 172.453,139.563 172.684 C 139.372 172.914,139.069 173.103,138.890 173.103 C 138.711 173.103,138.355 173.334,138.100 173.616 C 137.844 173.899,137.256 174.325,136.793 174.564 C 136.014 174.965,135.387 175.373,133.289 176.841 C 132.850 177.149,132.078 177.662,131.575 177.981 C 130.393 178.732,129.644 179.245,128.861 179.843 C 128.513 180.108,127.570 180.735,126.764 181.237 C 125.959 181.738,125.060 182.340,124.767 182.573 C 124.474 182.807,123.826 183.258,123.327 183.576 C 122.828 183.894,121.974 184.454,121.429 184.820 C 119.358 186.213,118.869 186.536,117.522 187.403 C 116.759 187.894,116.055 188.424,115.958 188.582 C 115.860 188.740,115.406 189.042,114.948 189.253 C 114.165 189.614,112.938 190.416,111.718 191.364 C 111.425 191.592,110.526 192.181,109.720 192.674 C 108.915 193.168,107.836 193.887,107.324 194.273 C 106.811 194.659,105.628 195.476,104.695 196.089 C 103.762 196.702,102.504 197.529,101.899 197.927 C 101.294 198.325,100.358 198.892,99.818 199.188 C 99.279 199.484,98.764 199.845,98.675 199.990 C 98.585 200.135,97.828 200.692,96.992 201.227 C 96.157 201.763,95.173 202.425,94.807 202.699 C 93.422 203.734,91.324 205.060,91.073 205.060 C 90.930 205.060,90.548 205.324,90.225 205.648 C 89.521 206.351,87.125 207.989,86.800 207.989 C 86.673 207.989,86.176 208.322,85.695 208.729 C 85.214 209.136,84.341 209.776,83.755 210.151 C 81.846 211.374,81.380 211.683,79.800 212.773 C 78.943 213.364,78.157 213.848,78.053 213.848 C 77.949 213.848,77.582 214.110,77.239 214.430 C 76.415 215.197,74.355 216.578,73.435 216.979 C 73.033 217.155,72.703 217.419,72.703 217.565 C 72.703 217.712,72.254 218.078,71.704 218.379 C 70.493 219.043,69.014 219.998,66.866 221.505 C 65.979 222.127,65.152 222.636,65.029 222.636 C 64.907 222.636,64.525 222.936,64.181 223.302 C 63.837 223.668,63.419 223.968,63.253 223.968 C 63.086 223.968,62.705 224.197,62.405 224.476 C 62.105 224.756,61.393 225.237,60.823 225.546 C 60.253 225.855,59.248 226.523,58.589 227.031 C 57.929 227.538,56.963 228.186,56.440 228.471 C 55.918 228.756,55.334 229.178,55.143 229.408 C 54.951 229.638,54.648 229.827,54.469 229.827 C 54.290 229.827,53.935 230.058,53.679 230.341 C 53.423 230.623,52.835 231.047,52.373 231.282 C 51.910 231.517,50.992 232.123,50.333 232.628 C 49.674 233.133,48.595 233.850,47.936 234.221 C 47.277 234.592,46.198 235.311,45.539 235.818 C 44.880 236.326,43.913 236.975,43.391 237.259 C 42.869 237.544,42.285 237.966,42.093 238.196 C 41.902 238.427,41.595 238.615,41.411 238.615 C 41.228 238.615,40.921 238.804,40.730 239.034 C 40.538 239.265,39.954 239.689,39.432 239.977 C 38.307 240.597,36.799 241.614,36.163 242.182 C 35.913 242.405,35.245 242.824,34.680 243.112 C 34.115 243.400,33.496 243.825,33.305 244.055 C 33.114 244.286,32.811 244.474,32.632 244.474 C 32.453 244.474,32.080 244.724,31.804 245.029 C 31.528 245.334,30.940 245.754,30.498 245.963 C 29.746 246.318,28.535 247.110,27.297 248.057 C 26.076 248.990,24.859 249.809,24.234 250.117 C 23.868 250.297,23.193 250.749,22.734 251.121 C 22.275 251.493,21.230 252.200,20.413 252.691 C 19.595 253.183,18.782 253.759,18.606 253.972 C 18.429 254.184,17.916 254.532,17.465 254.745 C 16.703 255.103,15.527 255.883,14.248 256.877 C 13.955 257.104,13.056 257.694,12.250 258.187 C 11.445 258.680,10.366 259.400,9.854 259.787 C 9.341 260.174,8.262 260.896,7.457 261.392 C 6.651 261.888,5.816 262.449,5.602 262.638 C 5.073 263.105,2.979 264.457,1.998 264.966 C 1.559 265.193,1.161 265.589,1.113 265.846 C 1.030 266.289,10.670 266.312,200.513 266.312 L 400.000 266.312 400.000 200.134 L 400.000 133.956 299.268 133.889 C 243.865 133.852,198.356 133.735,198.136 133.629 C 197.916 133.523,197.497 133.573,197.204 133.739 " stroke="none" fill="#040404" fill-rule="evenodd"></path><path id="path3" d="M1.665 0.371 C 1.701 0.648,1.911 0.959,2.130 1.062 C 2.350 1.165,2.830 1.406,3.196 1.599 C 3.805 1.920,3.830 1.912,3.496 1.507 C 3.295 1.264,2.902 1.065,2.622 1.065 C 2.342 1.065,1.997 0.796,1.856 0.466 C 1.658 0.005,1.614 -0.017,1.665 0.371 M36.277 23.844 C 36.675 24.263,37.049 24.552,37.107 24.487 C 37.166 24.421,36.840 24.078,36.383 23.725 L 35.553 23.082 36.277 23.844 M80.715 53.595 C 80.776 53.632,81.185 53.961,81.625 54.328 L 82.423 54.993 81.778 54.261 C 81.423 53.858,81.013 53.529,80.868 53.529 C 80.723 53.529,80.654 53.559,80.715 53.595 M85.869 57.190 C 86.299 57.666,86.838 58.046,87.067 58.035 C 87.426 58.017,87.428 57.994,87.084 57.869 C 86.864 57.789,86.325 57.409,85.885 57.024 L 85.087 56.325 85.869 57.190 M90.500 60.490 C 90.833 60.932,92.246 61.367,91.987 60.947 C 91.909 60.822,91.637 60.719,91.382 60.719 C 91.127 60.719,90.751 60.569,90.545 60.386 C 90.231 60.106,90.224 60.122,90.500 60.490 M94.541 63.116 C 94.990 63.555,95.563 63.907,95.815 63.898 C 96.131 63.886,96.073 63.802,95.625 63.622 C 95.269 63.480,94.812 63.128,94.611 62.840 C 94.409 62.552,94.127 62.317,93.984 62.317 C 93.840 62.317,94.091 62.676,94.541 63.116 M103.184 68.755 C 103.430 69.147,103.986 69.591,104.421 69.743 C 104.897 69.909,105.149 69.917,105.053 69.763 C 104.966 69.622,104.727 69.507,104.522 69.507 C 104.317 69.507,103.832 69.178,103.444 68.775 L 102.738 68.043 103.184 68.755 M108.123 72.260 C 108.123 72.328,108.509 72.519,108.982 72.684 C 109.455 72.849,109.724 72.874,109.581 72.740 C 109.278 72.456,108.123 72.076,108.123 72.260 M156.347 104.464 C 156.408 104.502,156.728 104.760,157.057 105.037 C 157.387 105.315,157.656 105.472,157.656 105.387 C 157.656 105.118,156.833 104.394,156.528 104.394 C 156.367 104.394,156.286 104.425,156.347 104.464 M178.945 119.866 C 179.435 120.402,179.872 120.645,180.195 120.562 C 180.627 120.451,180.618 120.431,180.124 120.404 C 179.811 120.387,179.359 120.073,179.119 119.707 C 178.879 119.341,178.572 119.041,178.438 119.041 C 178.303 119.041,178.531 119.412,178.945 119.866 M183.339 122.703 C 183.769 123.179,184.308 123.559,184.537 123.548 C 184.896 123.529,184.898 123.506,184.554 123.381 C 184.334 123.301,183.795 122.921,183.356 122.537 L 182.557 121.838 183.339 122.703 M191.902 128.495 C 192.142 128.862,192.443 129.161,192.572 129.161 C 192.701 129.161,192.546 128.862,192.227 128.495 C 191.909 128.129,191.607 127.830,191.557 127.830 C 191.507 127.830,191.662 128.129,191.902 128.495 M196.272 131.227 C 196.272 131.394,196.691 131.851,197.204 132.242 C 197.716 132.633,198.136 133.105,198.136 133.292 C 198.136 133.945,199.674 133.955,299.489 133.955 L 400.000 133.955 400.000 133.156 L 400.000 132.357 299.218 132.357 C 196.386 132.357,197.367 132.366,196.605 131.362 C 196.421 131.121,196.272 131.060,196.272 131.227 " stroke="none" fill="#045c04" fill-rule="evenodd"></path><path id="path4" d="M0.000 0.483 C 0.000 0.792,0.352 1.103,0.978 1.348 C 1.516 1.559,2.344 2.031,2.817 2.397 C 3.632 3.027,4.558 3.624,6.126 4.527 C 6.507 4.747,7.064 5.166,7.362 5.459 C 7.661 5.752,8.311 6.232,8.806 6.525 C 10.210 7.356,11.293 8.054,12.521 8.921 C 14.016 9.977,15.665 11.078,16.611 11.652 C 17.033 11.908,17.692 12.370,18.076 12.680 C 18.461 12.989,19.045 13.327,19.374 13.430 C 19.704 13.534,20.098 13.850,20.249 14.133 C 20.401 14.416,20.659 14.647,20.823 14.647 C 20.987 14.647,21.492 14.929,21.946 15.273 C 22.399 15.618,23.129 16.100,23.569 16.344 C 24.008 16.588,24.907 17.203,25.566 17.710 C 26.225 18.218,27.184 18.879,27.696 19.180 C 28.701 19.771,30.169 20.778,31.025 21.463 C 31.318 21.698,31.890 22.011,32.296 22.158 C 32.702 22.306,33.155 22.653,33.304 22.931 C 33.452 23.208,33.740 23.435,33.944 23.435 C 34.147 23.435,34.652 23.718,35.066 24.064 C 35.480 24.409,36.178 24.891,36.618 25.134 C 37.057 25.378,37.956 25.995,38.615 26.507 C 39.274 27.019,40.231 27.629,40.741 27.863 C 41.252 28.097,41.828 28.515,42.021 28.791 C 42.215 29.068,42.494 29.294,42.641 29.294 C 42.787 29.294,43.350 29.642,43.890 30.066 C 44.431 30.491,45.143 30.918,45.473 31.016 C 45.802 31.114,46.072 31.304,46.072 31.437 C 46.072 31.571,46.521 31.927,47.071 32.229 C 48.139 32.816,49.494 33.718,50.641 34.606 C 51.031 34.907,51.459 35.153,51.594 35.153 C 51.728 35.153,52.116 35.449,52.456 35.811 C 52.796 36.173,53.476 36.602,53.967 36.764 C 54.458 36.926,54.860 37.167,54.860 37.299 C 54.860 37.431,55.340 37.784,55.925 38.083 C 56.511 38.381,56.991 38.730,56.991 38.858 C 56.991 38.986,57.474 39.283,58.065 39.520 C 58.656 39.756,59.206 40.124,59.288 40.337 C 59.370 40.551,59.695 40.806,60.011 40.905 C 60.327 41.003,60.958 41.397,61.412 41.780 C 62.152 42.404,62.689 42.758,64.568 43.863 C 64.868 44.039,65.353 44.373,65.646 44.605 C 66.631 45.386,68.036 46.323,68.908 46.781 C 69.384 47.031,69.774 47.331,69.774 47.447 C 69.774 47.564,70.283 47.917,70.905 48.232 C 71.528 48.547,72.133 48.968,72.250 49.169 C 72.367 49.370,72.633 49.534,72.840 49.534 C 73.048 49.534,73.622 49.889,74.116 50.323 C 74.611 50.758,75.304 51.240,75.657 51.395 C 76.251 51.657,77.408 52.423,78.695 53.408 C 79.869 54.306,81.125 55.128,81.733 55.395 C 82.086 55.551,82.779 56.033,83.274 56.468 C 83.768 56.902,84.344 57.257,84.554 57.257 C 84.763 57.257,85.063 57.497,85.220 57.790 C 85.376 58.083,85.664 58.322,85.858 58.322 C 86.053 58.322,86.636 58.652,87.155 59.055 C 88.057 59.755,89.016 60.381,90.521 61.252 C 90.901 61.472,91.452 61.869,91.745 62.135 C 92.515 62.834,94.036 63.855,94.807 64.191 C 95.173 64.351,95.772 64.753,96.138 65.085 C 96.505 65.416,97.403 66.063,98.136 66.522 C 99.400 67.314,99.800 67.581,101.997 69.104 C 102.510 69.460,103.319 69.929,103.795 70.148 C 104.271 70.367,104.660 70.669,104.660 70.820 C 104.660 70.971,105.110 71.344,105.659 71.650 C 106.208 71.956,107.092 72.468,107.623 72.787 C 108.561 73.353,108.958 73.635,110.965 75.166 C 111.492 75.569,112.088 75.899,112.289 75.899 C 112.489 75.899,112.906 76.190,113.215 76.545 C 113.524 76.901,114.123 77.335,114.545 77.510 C 114.967 77.684,115.313 77.920,115.313 78.032 C 115.313 78.145,115.837 78.483,116.477 78.784 C 117.118 79.085,117.713 79.518,117.800 79.746 C 117.888 79.973,118.126 80.160,118.331 80.160 C 118.535 80.160,119.154 80.519,119.707 80.959 C 120.260 81.398,120.830 81.758,120.973 81.758 C 121.117 81.758,121.636 82.087,122.125 82.490 C 123.861 83.917,124.582 84.414,125.319 84.695 C 125.730 84.851,126.230 85.212,126.430 85.499 C 126.631 85.785,126.938 86.019,127.112 86.019 C 127.287 86.020,127.850 86.379,128.362 86.818 C 128.875 87.256,129.434 87.616,129.605 87.616 C 129.775 87.616,130.195 87.856,130.537 88.149 C 131.361 88.854,132.804 89.864,133.955 90.540 C 134.467 90.841,135.426 91.507,136.085 92.019 C 136.744 92.531,137.701 93.142,138.211 93.376 C 138.722 93.609,139.288 94.013,139.470 94.273 C 139.652 94.533,140.104 94.822,140.473 94.915 C 140.843 95.007,141.145 95.207,141.145 95.358 C 141.145 95.508,141.627 95.848,142.217 96.112 C 142.806 96.376,143.495 96.793,143.748 97.038 C 144.424 97.695,145.956 98.743,146.876 99.177 C 147.319 99.386,147.906 99.806,148.183 100.111 C 148.459 100.416,148.793 100.666,148.925 100.666 C 149.057 100.666,149.608 101.013,150.149 101.438 C 150.689 101.862,151.401 102.290,151.731 102.388 C 152.061 102.486,152.330 102.675,152.330 102.809 C 152.330 102.942,152.810 103.296,153.395 103.595 C 153.981 103.894,154.461 104.243,154.461 104.371 C 154.461 104.498,154.910 104.785,155.459 105.009 C 156.009 105.232,156.667 105.665,156.921 105.970 C 157.176 106.275,157.547 106.525,157.746 106.525 C 157.944 106.525,158.335 106.781,158.614 107.094 C 158.893 107.407,159.481 107.832,159.920 108.038 C 160.663 108.386,161.845 109.161,163.116 110.132 C 164.392 111.108,165.574 111.876,166.390 112.257 C 166.872 112.482,167.330 112.832,167.408 113.033 C 167.485 113.235,167.929 113.553,168.395 113.740 C 169.255 114.086,170.027 114.606,171.605 115.903 C 172.089 116.300,172.774 116.753,173.127 116.908 C 173.721 117.170,174.878 117.936,176.165 118.921 C 177.267 119.764,178.584 120.639,179.228 120.956 C 179.594 121.136,180.287 121.618,180.768 122.027 C 181.249 122.435,181.814 122.770,182.024 122.770 C 182.233 122.770,182.533 123.009,182.690 123.302 C 182.847 123.595,183.134 123.835,183.328 123.835 C 183.523 123.835,184.106 124.164,184.625 124.567 C 185.527 125.267,186.486 125.893,187.992 126.765 C 188.371 126.984,188.933 127.404,189.240 127.697 C 189.752 128.186,190.411 128.619,192.279 129.694 C 192.661 129.913,193.397 130.423,193.915 130.826 C 194.433 131.228,194.990 131.558,195.152 131.558 C 195.314 131.558,195.542 131.721,195.659 131.921 C 195.776 132.121,196.266 132.486,196.746 132.732 C 197.227 132.977,197.551 133.292,197.465 133.430 C 197.379 133.569,197.495 133.611,197.723 133.524 C 198.403 133.263,196.853 131.487,195.187 130.619 C 194.810 130.422,194.352 130.082,194.170 129.862 C 193.987 129.642,193.479 129.383,193.040 129.286 C 192.600 129.190,192.176 128.942,192.097 128.736 C 191.922 128.279,189.907 126.894,188.661 126.373 C 188.160 126.164,187.750 125.870,187.750 125.719 C 187.750 125.569,187.371 125.251,186.909 125.012 C 186.447 124.773,185.825 124.350,185.527 124.073 C 185.230 123.796,184.814 123.569,184.603 123.569 C 184.392 123.569,183.761 123.179,183.202 122.703 C 181.338 121.117,180.613 120.639,180.066 120.639 C 179.768 120.639,179.347 120.386,179.130 120.076 C 178.913 119.766,178.348 119.257,177.874 118.944 C 177.401 118.631,176.523 118.045,175.924 117.642 C 175.324 117.239,174.495 116.699,174.081 116.444 C 173.668 116.188,173.069 115.754,172.750 115.479 C 172.431 115.204,171.781 114.813,171.305 114.610 C 170.829 114.407,170.439 114.124,170.439 113.981 C 170.439 113.839,170.050 113.559,169.574 113.360 C 169.098 113.161,168.538 112.793,168.330 112.543 C 168.122 112.292,167.583 111.915,167.132 111.706 C 166.681 111.497,165.772 110.904,165.113 110.388 C 164.454 109.873,163.405 109.216,162.783 108.929 C 162.160 108.642,161.651 108.289,161.651 108.144 C 161.651 108.000,161.232 107.682,160.719 107.439 C 160.206 107.196,159.787 106.884,159.787 106.747 C 159.787 106.610,159.341 106.311,158.797 106.084 C 157.831 105.680,157.200 105.256,155.450 103.831 C 154.979 103.448,154.340 103.055,154.030 102.959 C 153.720 102.862,153.252 102.546,152.990 102.257 C 152.728 101.968,152.374 101.731,152.202 101.731 C 152.031 101.731,151.618 101.441,151.285 101.087 C 150.952 100.732,150.302 100.290,149.841 100.104 C 149.379 99.917,148.905 99.607,148.787 99.414 C 148.669 99.221,148.160 98.890,147.655 98.679 C 147.151 98.469,146.738 98.166,146.738 98.007 C 146.738 97.848,146.198 97.486,145.539 97.204 C 144.880 96.921,144.341 96.574,144.341 96.432 C 144.341 96.290,144.071 96.090,143.742 95.987 C 143.412 95.884,142.771 95.487,142.316 95.104 C 141.862 94.721,141.143 94.201,140.718 93.949 C 139.365 93.145,138.903 92.826,138.012 92.081 C 137.533 91.680,136.843 91.278,136.480 91.187 C 136.116 91.095,135.819 90.916,135.819 90.789 C 135.819 90.661,135.340 90.312,134.754 90.013 C 134.168 89.714,133.688 89.367,133.688 89.241 C 133.688 89.116,133.312 88.857,132.851 88.666 C 132.391 88.475,131.714 88.041,131.348 87.702 C 130.981 87.362,130.538 87.084,130.362 87.084 C 130.186 87.084,129.814 86.831,129.535 86.523 C 129.256 86.214,128.579 85.733,128.029 85.452 C 127.480 85.172,127.031 84.837,127.031 84.708 C 127.031 84.579,126.692 84.355,126.278 84.210 C 125.864 84.066,125.187 83.635,124.774 83.252 C 124.361 82.870,123.908 82.557,123.768 82.557 C 123.627 82.557,123.156 82.257,122.721 81.891 C 122.286 81.525,121.766 81.225,121.566 81.225 C 121.366 81.225,121.045 81.003,120.854 80.732 C 120.663 80.461,120.110 80.035,119.626 79.786 C 119.142 79.537,118.513 79.099,118.228 78.814 C 117.943 78.529,117.549 78.296,117.352 78.296 C 117.155 78.296,116.765 78.043,116.486 77.735 C 116.207 77.426,115.519 76.917,114.957 76.603 C 114.395 76.289,113.616 75.852,113.226 75.632 C 112.835 75.412,112.277 75.015,111.984 74.749 C 111.200 74.038,109.704 73.046,108.754 72.609 C 108.296 72.398,107.841 72.096,107.744 71.938 C 107.497 71.538,104.916 69.871,104.218 69.660 C 103.902 69.565,103.450 69.192,103.213 68.831 C 102.977 68.471,102.626 68.176,102.432 68.176 C 102.238 68.176,101.867 67.941,101.607 67.653 C 101.347 67.366,100.729 66.997,100.235 66.834 C 99.740 66.671,99.186 66.324,99.002 66.065 C 98.819 65.805,98.300 65.402,97.850 65.170 C 97.400 64.939,96.876 64.561,96.686 64.332 C 96.495 64.102,96.119 63.915,95.850 63.915 C 95.581 63.915,95.027 63.609,94.618 63.236 C 93.188 61.931,91.800 60.985,91.314 60.985 C 91.045 60.985,90.636 60.698,90.406 60.347 C 90.176 59.995,89.642 59.565,89.221 59.390 C 88.799 59.215,88.247 58.844,87.994 58.564 C 87.741 58.285,87.331 58.056,87.084 58.056 C 86.836 58.056,86.406 57.801,86.126 57.489 C 85.642 56.947,84.545 56.154,82.677 54.993 C 82.205 54.700,81.310 54.101,80.688 53.662 C 79.294 52.678,77.868 51.715,76.673 50.951 C 76.174 50.632,75.577 50.184,75.346 49.955 C 75.115 49.726,74.544 49.405,74.075 49.242 C 73.607 49.079,73.103 48.718,72.954 48.441 C 72.806 48.163,72.518 47.936,72.315 47.936 C 72.111 47.936,71.606 47.653,71.192 47.308 C 70.778 46.962,70.080 46.480,69.640 46.237 C 69.201 45.994,68.302 45.374,67.643 44.861 C 66.984 44.347,65.995 43.732,65.446 43.494 C 64.897 43.256,64.447 42.968,64.447 42.853 C 64.447 42.738,63.968 42.375,63.382 42.045 C 62.796 41.716,62.317 41.362,62.317 41.259 C 62.317 41.155,61.808 40.816,61.185 40.505 C 60.563 40.194,59.514 39.524,58.855 39.016 C 58.196 38.508,57.229 37.859,56.707 37.574 C 56.184 37.289,55.600 36.868,55.409 36.637 C 55.218 36.407,54.942 36.218,54.796 36.218 C 54.650 36.218,54.124 35.861,53.625 35.423 C 53.127 34.986,52.423 34.554,52.059 34.462 C 51.696 34.371,51.398 34.192,51.398 34.064 C 51.398 33.937,50.919 33.588,50.333 33.289 C 49.747 32.990,49.268 32.646,49.268 32.525 C 49.268 32.404,48.792 32.090,48.210 31.828 C 47.629 31.566,46.951 31.128,46.704 30.855 C 46.458 30.583,46.140 30.360,45.999 30.360 C 45.858 30.360,45.352 30.030,44.874 29.627 C 44.396 29.224,43.386 28.535,42.631 28.096 C 41.875 27.656,40.904 26.967,40.471 26.565 C 40.039 26.162,39.522 25.832,39.322 25.832 C 39.123 25.832,38.636 25.533,38.241 25.166 C 37.846 24.800,37.367 24.501,37.178 24.501 C 36.989 24.501,36.605 24.248,36.326 23.940 C 36.047 23.631,35.370 23.149,34.820 22.869 C 34.271 22.589,33.822 22.250,33.822 22.116 C 33.822 21.983,33.552 21.792,33.222 21.692 C 32.893 21.593,32.324 21.233,31.957 20.892 C 31.591 20.552,30.992 20.143,30.626 19.984 C 29.793 19.621,28.268 18.562,27.554 17.850 C 27.256 17.553,26.883 17.310,26.725 17.310 C 26.567 17.310,25.986 16.951,25.433 16.511 C 24.880 16.072,24.271 15.712,24.080 15.712 C 23.888 15.712,23.575 15.491,23.384 15.219 C 23.193 14.948,22.617 14.513,22.104 14.251 C 21.591 13.990,21.076 13.613,20.959 13.413 C 20.842 13.213,20.583 13.049,20.385 13.049 C 20.186 13.049,19.522 12.630,18.908 12.117 C 18.295 11.605,17.643 11.185,17.459 11.185 C 17.276 11.185,16.912 10.948,16.651 10.659 C 16.389 10.370,15.921 10.054,15.611 9.956 C 15.300 9.859,14.799 9.527,14.496 9.217 C 13.979 8.690,13.050 8.079,11.465 7.223 C 11.091 7.022,10.486 6.593,10.120 6.270 C 9.145 5.411,6.887 3.995,6.492 3.995 C 6.305 3.995,6.056 3.826,5.939 3.619 C 5.650 3.109,3.151 1.413,2.512 1.292 C 2.229 1.239,1.879 0.926,1.734 0.598 C 1.397 -0.170,0.000 -0.262,0.000 0.483 " stroke="none" fill="#6c5804" fill-rule="evenodd"></path></g></svg>