<?xml version="1.0" encoding="UTF-8" standalone="no"?>
<svg
   xmlns:dc="http://purl.org/dc/elements/1.1/"
   xmlns:cc="http://creativecommons.org/ns#"
   xmlns:rdf="http://www.w3.org/1999/02/22-rdf-syntax-ns#"
   xmlns:svg="http://www.w3.org/2000/svg"
   xmlns="http://www.w3.org/2000/svg"
   xmlns:sodipodi="http://sodipodi.sourceforge.net/DTD/sodipodi-0.dtd"
   xmlns:inkscape="http://www.inkscape.org/namespaces/inkscape"
   width="1024"
   height="1024"
   id="svg2"
   version="1.1"
   inkscape:version="0.91 r13725"
   sodipodi:docname="Flag_of_the_Cook_Islands.svg">
  <metadata
     id="metadata55">
    <rdf:RDF>
      <cc:Work
         rdf:about="">
        <dc:format>image/svg+xml</dc:format>
        <dc:type
           rdf:resource="http://purl.org/dc/dcmitype/StillImage" />
        <dc:title></dc:title>
      </cc:Work>
    </rdf:RDF>
  </metadata>
  <defs
     id="defs53" />
  <sodipodi:namedview
     pagecolor="#ffffff"
     bordercolor="#666666"
     borderopacity="1"
     objecttolerance="10"
     gridtolerance="10"
     guidetolerance="10"
     inkscape:pageopacity="0"
     inkscape:pageshadow="2"
     inkscape:window-width="1600"
     inkscape:window-height="837"
     id="namedview51"
     showgrid="false"
     fit-margin-top="0"
     fit-margin-left="0"
     fit-margin-right="0"
     fit-margin-bottom="0"
     inkscape:zoom="0.63333333"
     inkscape:cx="331.03356"
     inkscape:cy="499.87176"
     inkscape:window-x="-8"
     inkscape:window-y="-8"
     inkscape:window-maximized="1"
     inkscape:current-layer="svg2" />
  <clipPath
     id="cp">
    <path
       d="m 0,0 0,75 350,0 0,75 -50,0 z m 300,0 -150,0 0,200 -150,0 0,-50 z"
       id="path5"
       inkscape:connector-curvature="0" />
  </clipPath>
  <path
     inkscape:connector-curvature="0"
     d="m 464.59096,0.50014333 c -0.139,-0.003 -0.37122,0.0918 -0.44922,0.21484 0.806,0.156 1.67694,0.80157997 2.46094,1.14257997 l 0.13477,-0.24219 c -1.388,-0.591 -1.04449,-0.47623 -2.14649,-1.11522997 z m -2.6875,0.33789 -0.12305,0.10156 -0.0273,0.15624997 0.12305,-0.0293 c 0.267,0.139 1.08722,0.41378 1.32422,0.0508 l 0.041,-0.11328 c -0.118,-0.026 -0.27314,0.0179 -0.36914,0.0859 -0.32,-0.086 -0.64075,-0.19594997 -0.96875,-0.25194997 z m 6.36328,0.57030997 c -0.134,0.026 -1.03281,0.14175 -1.13281,0.21875 l -0.0801,0.22852 c 0.305,0.028 0.71144,-0.0562 1.02344,-0.0762 l 0.18945,-0.3711 z m -6.90625,0.27344 c -0.098,0.141 -0.0714,0.43366 -0.0664,0.59766 0.121,-0.002 0.22284,-0.0186 0.33984,-0.0586 -0.05,-0.128 -0.15844,-0.48607 -0.27344,-0.53907 z m 7.34375,0.15039 -0.20312,0.12891 -0.1211,0.28515 0.0684,0.15821 0.17774,0.0703 0.0664,-0.20117 -0.0937,-0.12696 0.10547,-0.31445 z m -0.18554,1.02735 -0.1211,0.22656 c 0.261,0.056 0.41006,0.68348 0.41406,0.89648 l 0.18946,-0.30078 -0.043,-0.42773 c -0.077,-0.146 -0.30745,-0.30753 -0.43945,-0.39453 z m 0.57812,1.26171 -0.17578,0.23047 0.2207,0.625 0.16406,0.084 0.24805,0.39649 0.4375,0.15625 0.15039,-0.11524 c -0.225,-0.293 -0.2305,-0.32547 -0.5625,-0.48047 l -0.48242,-0.89648 z m -7.86328,0.12305 -0.24414,0.0723 c 0.423,0.953 1.46745,1.9798 1.68945,2.9668 l 0.17774,-0.30078 c -0.006,-0.45 -1.08505,-2.03214 -1.49805,-2.36914 0.021,-0.114 -0.041,-0.29015 -0.125,-0.36915 z m 9.71875,2.75781 -0.2168,0.12891 0.21875,0.22852 -0.14648,0.45507 0.12304,0.0996 c 0.11901,-0.037 0.2626,-0.48861 0.3086,-0.59961 l -0.28711,-0.3125 z m -6.16992,0.64258 -0.125,0.0195 -0.17383,0.19531 0.20508,0.1836 c 0.087,0.247 0.23898,0.74076 0.20898,1.00976 l 1.27735,1.6445297 0.20507,-0.0723 0.0254,-0.22656 c -0.423,-0.4649997 -0.84904,-0.9309697 -1.24804,-1.4179697 0.106,-0.447 -0.128,-0.96893 -0.375,-1.33593 z m 4.17969,2.9257797 c -0.17201,0.013 -0.5636,0.1011 -0.6836,0.2461 l 0.0977,0.21289 c 0.199,-0.025 0.34158,-0.16214 0.51758,-0.24414 l 0.0684,-0.21485 z M 282.54018,65.797018 c -0.14,0.019 -0.29211,0.06663 -0.41211,0.140625 -0.085,0.378 -0.1335,0.766344 -0.1875,1.152344 l 0.21875,0.08789 c 0.037,-0.227 0.15827,-0.744828 0.32227,-0.923828 l 0.17773,-0.05664 c 0.368,0.161 0.81567,0.736907 0.51367,1.128907 l 0.2461,0.04492 0.11132,-0.199219 c -0.057,-0.192 -0.0798,-0.398657 -0.0918,-0.597657 -0.217,-0.282999 -0.52644,-0.705343 -0.89844,-0.777343 z m 0.71484,1.615234 c -0.073,0.12 -0.40706,0.647391 -0.53906,0.650391 -0.162,-0.043 -0.35448,-0.05825 -0.52148,-0.03125 l -0.15039,0.09766 -0.084,0.228516 c 0.044,0.102 0.1198,0.223156 0.2168,0.285156 0.697,0.172 1.64112,-0.557469 1.07812,-1.230469 z m 4.45313,21.425777 -0.0723,0.26954 c 1.176,0.44 1.42664,1.56398 2.18164,2.20898 0.253,0.217 0.50014,0.385 0.74414,0.625 0.081,0.08 0.14494,0.19997 0.21094,0.29297 0.09,0.009 0.19439,0.0293 0.27539,0.0723 l 0.0547,-0.15625 c -0.126,-0.198 -0.32095,-0.43893 -0.50195,-0.58593 -1.083,-0.883 -1.55558,-2.11057 -2.89258,-2.72657 z m -1.33203,1.99805 -0.23242,0.0273 c 0.043,0.69001 -0.14966,1.33511 0.0273,2.03711 l 0.10742,0.0293 c 0.064,-0.285 -0.0858,-0.5658 -0.0898,-0.8418 -0.006,-0.391 0.2709,-0.75975 0.2539,-1.09375 l -0.0664,-0.1582 z M 3.2608723,120.24233 c -0.366,-0.037 -0.55475,0.243 -0.84375,0.25 -0.121,0.105 -0.22722,0.23528 -0.32422,0.36328 l 0.28711,0.0352 c 0.081,0.077 0.14521,0.20541 0.15821,0.31641 0.148,-0.009 0.2994,-0.01 0.4414,-0.0586 0.074,-0.097 0.3733,-0.68841 0.4043,-0.8164 l -0.12305,-0.0898 z m -1.89062,3.25977 -0.72852003,0.0234 -0.0449,0.15625 c 0.221,0.107 0.49923003,0.10452 0.74024003,0.10352 l 0.0332,-0.2832 z m 1.55469,0.59375 -0.0332,0.18554 0.041,0.0996 c 0.179,0.025 0.39092,0.0689 0.54492,0.16992 l -0.0156,0.14258 c -0.201,0.129 -0.48013,0.0787 -0.70313,0.0547 l -0.0703,0.0547 0.10547,0.17383 c 0.249,0.027 0.50486,0.0499 0.75586,0.0469 0.141,-0.066 0.30029,-0.15539 0.40429,-0.27539 l 0.0606,-0.19727 -0.0918,-0.17382 c -0.278,-0.167 -0.67904,-0.21525 -0.99804,-0.28125 z m 24.4179607,38.71679 -0.24804,0.008 c -0.126,0.046 -0.24249,0.2912 -0.27149,0.4082 l 0.6543,0.32812 0.14258,-0.16796 0.0312,-0.19922 -0.3086,-0.37696 z M 162.25502,275.20132 c -0.069,0.3 -0.059,0.55526 -0.24804,0.82226 l 0.25586,0.5293 c 0.091,0.032 0.22596,-0.0427 0.29296,-0.0957 0.005,-0.141 -0.0224,-0.29374 -0.0645,-0.42774 l -0.23242,-0.14648 c 0.144,-0.121 0.26147,-0.40375 0.23047,-0.59375 l -0.10938,-0.0879 -0.125,0 z m 0.99414,2.25 -0.006,0.38476 0.125,0.11524 c 0.149,-0.013 0.30632,-0.0494 0.44532,-0.10743 l 0.0137,-0.0996 c -0.143,-0.004 -0.27602,-0.0395 -0.41602,-0.0625 l -0.0644,-0.22851 -0.0977,-0.002 z m -5.24023,1.63086 -0.002,0.17187 0.46484,0.43555 0.19531,0.002 0.0859,-0.15625 c -0.076,-0.176 -0.58114,-0.39612 -0.74414,-0.45312 z m 8.70313,0.86914 -0.16797,0.15429 -0.0293,0.12891 0.0527,0.1289 0.0977,0.0293 c 0.082,-0.076 0.14827,-0.18125 0.19727,-0.28125 l -0.15039,-0.16015 z m -7.07032,283.25195 c -0.12378,0.0182 -0.24804,0.0586 -0.37304,0.12109 -2,1 -2,5 1,4.5 2.8125,-0.46875 1.22973,-4.89392 -0.62696,-4.62109 z m 200.04688,50.08594 c -0.947,0.569 -1.18313,0.86551 -1.45313,1.85351 -0.069,0.254 -0.35678,0.42627 -0.42578,0.69727 0.356,0.476 0.56249,1.02608 0.77149,1.58008 l 0.1289,0.0859 c 0.333,-0.057 0.72713,-0.59012 0.95313,-0.82812 0.121,-0.561 -0.31175,-1.22331 -0.34375,-1.82031 0.218,-0.377 0.40334,-0.71563 0.52734,-1.14063 l 0.22852,0.625 0.15625,0.10156 0.28515,-0.14453 -0.043,-0.41211 -0.35742,-0.4414 -0.42773,-0.15625 z m 1.1875,2.14843 -0.17188,0.19922 0.0274,0.28516 0.23047,0.21289 0.11328,-0.043 c -0.028,-0.24 -0.0462,-0.4513 -0.19922,-0.6543 z m -4.04883,3.05274 c -0.167,0.105 -0.47992,0.14723 -0.66992,0.11523 l -0.12696,0.21485 0.38477,0.15625 c 0.191,-0.03 0.50461,-0.1921 0.59961,-0.3711 l -0.1875,-0.11523 z m 5.50977,0.5918 -0.16993,0.21289 0.0703,0.57031 0.17187,-0.11524 c 0.053,-0.17 0.0527,-0.38168 0.0137,-0.55468 l -0.0859,-0.11328 z m 48.48632,19.39843 -0.4375,0.8418 0.25782,-0.002 0.002,0.15625 c 0.422,-0.041 0.36183,-0.12622 0.17383,0.42578 0.149,0.166 0.52542,0.30656 0.73242,0.35156 l 0.24219,-0.0723 0.19531,-0.48437 c -0.274,-0.35 -0.477,-0.75242 -0.75,-1.10742 l -0.41602,-0.10938 z m -1.83984,0.63867 -0.57227,0.002 -0.2539,0.42968 c -0.008,0.26701 1.11451,1.23738 1.35351,1.35938 0.117,0.055 0.81708,-0.33925 0.95508,-0.40625 l 0.0547,-0.37109 -0.22852,-0.16797 -0.17187,0.11523 -0.1543,0.3711 -0.19922,0.1289 -0.25781,-0.0703 -0.44727,-0.55078 c 0.042,-0.219 0.0369,-0.63585 -0.0781,-0.83985 z m 72.91406,32.12696 -0.23047,0.0312 c 0.108,0.99 -0.74483,1.81076 -1.29883,2.50976 -0.51999,0.655 0.99554,1.99072 1.01954,2.13672 l 0.1875,1.12305 0.21679,0.16797 0.25391,-0.30078 c 0.111,-1.808 0.042,-3.63036 0.041,-5.44336 l -0.18946,-0.22461 z m -34.28906,2.80273 c -0.268,-0.044 -0.59245,0.20894 -0.81445,0.33594 l -0.0137,0.16992 c 0.272,0.296 0.5545,0.39336 0.9375,0.31836 l 0.16993,-0.17187 -0.2793,-0.65235 z m 9.53906,9.88281 c -0.859,1.666 -0.2469,2.62307 1.1211,3.78907 0.786,-0.504 1.3802,-0.77602 2.0332,-1.54102 -0.406,-0.679 -1.74011,-2.45508 -2.66211,-1.95508 l -0.49219,-0.29297 z m 46.68164,10.38086 -0.67383,0.20899 c -0.347,0.653 -0.15451,1.39908 0.0215,2.08008 0.433,0.457 0.50317,0.47665 1.07617,0.72265 l 0.41406,-0.14844 c 0.463,-0.445 0.7438,-1.64551 0.4668,-2.22851 -0.195,-0.292 -0.99269,-0.56377 -1.30469,-0.63477 z M 358.9269,759.77553 c -0.329,0.23 -0.9477,0.3778 -1.3457,0.3418 -0.306,0.323 -0.65036,0.58736 -0.69336,1.06836 0.048,0.167 0.12053,0.34167 0.14453,0.51367 0.34,2.278 0.35404,1.60306 2.24804,2.28906 0.493,0.17801 0.67554,0.10293 1.14454,0.16993 0.542,0.078 1.09571,0.27553 1.63671,0.39453 l 0.62305,-0.32617 c 0.019,-0.189 0.18003,-0.45932 0.33203,-0.57032 -0.053,-0.288 -0.0178,-0.88032 0.20117,-1.11132 -0.06,-0.458 -0.85914,-1.59854 -1.11914,-2.01954 -0.279,-0.454 -1.68331,-0.31751 -2.07031,-0.35351 -0.083,-0.007 -0.98356,-0.35449 -1.10156,-0.39649 z m 110.92383,42.66211 c -0.795,-0.029 -1.41241,0.18286 -2.19141,0.38086 -0.618,0.367 -1.63609,2.21836 -0.99609,2.94336 0.348,0.127 1.3694,0.85761 1.5664,0.84961 0.647,-0.026 1.19283,-0.25195 1.79883,-0.37695 0.63,-0.13 1.28192,-0.0291 1.91992,-0.0371 l 0.18555,-0.35938 -0.1543,-0.62304 c -1.056,-0.853 -1.3699,-1.70335 -2.1289,-2.77735 z"
     id="path7"
     style="fill:#00247d;fill-opacity:1;stroke:#00247d;stroke-opacity:1" />
</svg>
