<?xml version="1.0" standalone="no"?>
<!DOCTYPE svg PUBLIC "-//W3C//DTD SVG 20010904//EN"
 "http://www.w3.org/TR/2001/REC-SVG-20010904/DTD/svg10.dtd">
<svg version="1.0" xmlns="http://www.w3.org/2000/svg" height="1024" width="1024" viewBox="118.55364466254647 01 112.89271067490708 90">
<g stroke="none"><path class="country-map-path" d="M255.30799436033521,189.68335577385812L255.18768046718864,189.89197412756891L255.05232733739888,190L254.89291142897997,189.93861871657379L254.74251906254685,189.8502432909234L254.56204822282712,189.88706443133435L254.36052245180696,189.93861871657379L254.13192605482868,189.89933876495036L253.92438458915103,189.92634339052552L253.78000791737526,189.9042485852263L253.66270187155754,189.8281519460037L253.54238797841114,189.6122005841218L253.605552772313,189.37672664603713L253.72285881813067,189.12911146206227L253.86422764257773,188.99677483425654L254.0025886196962,188.75670023848153L254.11087112352806,188.6293617804572L254.2642713372897,188.5754978405597L254.45978141365276,188.61467102415253L254.66130718467295,188.66853929755308L254.80869170377744,188.715066693727L254.94705268089575,188.76894607631345L255.10947643664346,188.8350789241855L255.220766787804,188.96982178493215L255.3170179023211,189.1830367058858L255.44635533745355,189.27129091032026L255.389206238209,189.4870908546808ZM132.2810229234366,76.92685618672164L132.28403077076533,77.09284724913596L132.25996799213598,77.2828890619601L132.1095756257029,77.25087812687349L131.97723034324187,77.12285015639938L131.9411361752979,76.89486278036506L132.0073088165285,76.69693855602958L132.1366462516608,76.77889987080513ZM163.45435263768076,84.18423756679042L163.5115017369253,83.9941633085808L163.33704659186304,83.9840545711917L163.45435263768076,84.18423756679042L163.27087395063245,84.15390274719482L163.06032463762625,84.14985821425012L162.9249715078365,84.2449115613604L162.76555559941738,84.15390274719482L162.60613969099845,84.09121538571151L162.38355898867746,84.01235944185359L162.16699398101377,83.9557509634474L161.95042897335028,83.87489046957731L161.73085611835805,83.79404027780666L161.53233819466627,83.81223067302466L161.39397721754796,83.76170308445373L161.2676476297442,83.71926301773064L161.0871767900245,83.67682578760494L160.825494072431,83.63237077855808L160.68412524798396,83.59398032013382L160.49763871360693,83.58387795355313L160.38033266778905,83.52730766941266L160.33220711053053,83.68086730637935L160.2058775227268,83.76978722836225L160.04345376697913,83.88701888676448L159.84794369061606,83.9800111213408L159.67649639288237,84.03257797995784L159.45090784323284,84.03257797995784L159.28246839282787,84.04875327451472L159.05988769050688,84.01033762349019L158.84332268284322,83.99214154821556L158.57863211792102,84.01235944185359L158.38612988888687,84.04875327451472L158.20265120183842,84.11548072590946L158.02819605677612,84.19839431271996L157.8296781330845,84.34402491303081L157.71838778192395,84.47957235190981L157.64920729336478,84.65764890146536L157.69131715596603,84.84994689224169L157.8477252170564,85.00585238395271L157.66725437733686,85.11318630169441L157.4747521483025,85.15369440508803L157.23111651468093,85.15166893823698L157.02658289633203,85.18205162284747L156.90025330852814,85.21446143043246L156.74986094209504,85.25902763125589L156.5633744077182,85.378561608191L156.4189977359424,85.54675790209868L156.4370448199143,85.82245362188266L156.3377858580685,86.10435551937286L156.19942488095018,86.22202096552067L156.07911098780374,86.32956207344293L155.90164799541276,86.41073734463444L155.7392242396649,86.45132890829265L155.55273770528805,86.47771482940905L155.32113346098103,86.52440032484208L155.16472539989064,86.55281927989631L155.00530949147156,86.54469944739333L154.8398778883953,86.49801244507367L154.68346982730495,86.46553657442729L154.53909315552914,86.40667833232189L154.34959877382357,86.33767912931205L154.09693959821595,86.28897836451165L153.93150799513955,86.29100748780232L153.76006069740583,86.33159132759425L153.60666048364422,86.3397084096396L153.39310332330928,86.40058986295679L153.25474234619077,86.59342001535742L153.12841275838704,86.66244728371208L153.01712240722665,86.73960437894428L152.87274573545085,86.76600240221754L152.6501650331299,86.85535778862996L152.42758433080908,86.82083260999934L152.21402717047414,86.73351268490336L152.03656417808315,86.67462935324886L151.85308549103468,86.57311931990952L151.67261465131514,86.50816149856718L151.53425367419663,86.46147720849876L151.34475929249103,86.41276686061167L151.1642884527713,86.38232480838542L150.95674698709365,86.36203092518556L150.76725260538808,86.33362058828945L150.59279746032564,86.32753282583559L150.31306765876027,86.33767912931205L150.13861251369784,86.37623657469507L150.0092750785654,86.43712156306393L149.81677284953108,86.59138991631556L149.87993764343312,86.78427860648375L149.9130239640483,86.96910121312425L149.78067868158732,87.11740483541058L149.59118429988155,87.10724593521778L149.40469776550452,87.05645390055875L149.22422692578496,87.01582323173932L149.0227011547646,86.99550888339087L148.88133233031755,86.9812892306202L148.7399635058705,86.98332058987091L148.57152405546535,86.96910121312425L148.39406106307436,86.9812892306202L148.23765300198397,87.01176030948488L148.02409584164906,87.06458034990996L147.8315936126147,87.1214684415319L147.7112797194683,87.17632969974915L147.5789344370073,87.24135666224981L147.45260484920354,87.310455196318L147.30522033009905,87.4100517716677L147.19392997893863,87.53609460742953L147.07963178044952,87.76181528723427L146.95931788730306,87.88996322268468L146.8029098262127,87.97337517931581L146.63447037580772,88.08528673190949L146.50814078800383,88.2114655836314L146.35774842157073,88.29084919872383L146.1832932765085,88.36413533049588L146.01184597877477,88.55553409466259L145.9366497955583,88.78162308352313L145.690006314608,88.80810733170799L145.4584020703012,88.89571708481196L145.19371150537896,89.03632589494629L144.98917788703005,89.20550604998758L144.89593461984154,89.32783356229393L144.85984045189758,89.52972649338042L144.87187184121217,89.72352371420831L144.68538530683514,89.82962776172124L144.4778438411577,89.84391238129436L144.28834945945192,89.76433082139317L144.14397278767612,89.69496033171879L143.99358042124322,89.53380581311336L143.81912527618078,89.42163425826857L143.61759950516043,89.34822381634538L143.41908158146882,89.33395056842974L143.22357150510592,89.34210667004905L142.99798295545622,89.36249739132415L142.7844257951213,89.33191155971039L142.57688432944383,89.37065386673987L142.39942133705281,89.50117200367148L142.30317022253558,89.39920237187499L142.18887202404645,89.26258923372833L142.05051104692814,89.16473554832143L141.91816576446692,89.01798381747867L141.73468707741864,88.85904173770376L141.5602319323562,88.66551310571793L141.38276893996522,88.5820087531097L141.24440796284688,88.5575705670071L141.1000312910711,88.47000825119613L141.0158115658686,88.28067124884527L140.89850552005075,88.16261913720498L140.72104252765976,88.1789008620739L140.51049321465354,88.24810292272485L140.35408515356318,88.20332424425041L140.4743990467096,87.91030657736925L140.61877571848538,87.70080167717194L140.64283849711455,87.52389580586194L140.59170509252746,87.34703985529217L140.50447751999624,87.15397823779588L140.42025779479377,87.01785470272668L140.25783403904592,86.82083260999934L140.12849660391362,86.71726845615007L139.95704930617995,86.68275086411333L139.73146075653023,86.82692515070329L139.5389585274959,86.80458612364373L139.39758970304885,86.72742104991374L139.2622365732591,86.75787981539901L139.10582851216873,86.70508556013121L139.0697343442248,86.51831071584951L138.95844399306438,86.34782559639376L139.04867941292414,86.23013663454549L139.05469510758144,86.04755937907757L138.8802399625192,86.20984765815871L138.59449446629637,86.18955933564263L138.39898438993347,86.19564576374623L138.24558417617166,86.20578994134863L138.12226243569648,86.3031823649358L137.97788576392088,86.28289103389184L137.8395247868024,86.28086193676921L137.68612457304076,86.360001572866L137.4725674127058,86.43509196851167L137.26803379435674,86.45132890829265L137.17779837449694,86.2686874914065L137.23193962641295,86.09421297580346L137.17779837449694,85.87111832383417L137.26201809969945,85.6967538600336L137.40338692414647,85.56905234190239L137.40338692414647,85.39882384733221L137.2860808783288,85.22661553699271L137.2229160844269,85.02205256203953L137.32819074093,84.88841350628667L137.46053602339106,84.79731215866951L137.35526136688793,84.63538659301227L137.24998671038483,84.49373569850604L137.14771990121028,84.3359334460259L136.99732753477738,84.23479882558442L136.8649822523162,84.21052891802358L136.69052710725393,84.17614813963334L136.5491582828067,84.15592502334314L136.34763251178654,84.15996959499222L136.19423229802473,84.15390274719482L135.92954173310267,84.17614813963334L135.64680408420838,84.2449115613604L135.358050740657,84.30559136504144L135.20164267956662,84.3500935811015L135.07230524443418,84.40471420993282L134.89183440471444,84.57669880555432L134.82566176348402,84.7851663036482L134.81363037416926,84.99167756869855L134.9369521146444,85.0706555877737L135.00613260320358,85.21648709861879L135.07230524443418,85.36640457685647L135.05726600779084,85.59742822294245L134.9971090612177,85.92587060546359L135.1023837177208,86.2179631702441L134.93093641998712,86.11044112392383L134.80761467951194,86.07798524584189L134.69933217568013,85.98468391122105L134.61210460314908,85.85692406429848L134.5218691832891,85.66837351044518L134.4677279313733,85.4373238935917L134.4226102214433,85.1435671357649L134.26018646569565,84.92485772020575L134.14588826720652,84.78719059662384L134.1338568778919,84.63336278561826L134.2782335496677,84.47552573963614L134.35944542754146,84.16199189049311L134.32635910692625,83.9840545711917L134.1849902824792,84.02246863034196L134.08573132063339,83.85467695602782L134.23612368706628,83.63641201443312L134.41057883212872,83.38186434648546L134.45268869472997,83.17789574757808L134.47073577870185,83.0204201907521L134.56097119856182,82.9073848412877L134.7324184962955,82.87307450926352L134.87980301539986,82.98408521090712L135.03621107649022,82.92958662958884L135.1204308016927,82.78831573074251L135.15652496963668,82.60471038764109L135.1053915650494,82.3626742745951L135.01214829786088,82.17717542854163L134.92492072532983,82.01188492388951L134.85874808409923,81.77007344954967L134.8376931527986,81.58474658274179L134.85273238944194,81.3894057354984L134.75347342759613,81.1176387768761L134.62413599246366,80.88823641906745L134.45569654205872,80.7232784413105L134.35944542754146,80.58048322408371L134.2692100076817,80.4236462119253L134.09174701529068,80.37941705581497L134.08272347330464,80.16434592709462L134.1188176412486,80.0076104373139L134.052645000018,79.81676621598496L133.96240958015824,79.64806687050654L133.8481113816691,79.49747978642145L133.6917033205787,79.31080065858234L133.56236588544627,79.18437130487823L133.3999421296986,79.05596050133659L133.18638496936364,78.91353465197105L133.06306322888847,78.76913487780965L133.11720448080447,78.59469486439485L133.0329847556018,78.38623061385363L132.94876503039933,78.1998723411229L132.84048252656768,78.02157969777937L132.7231764807498,77.85134600686109L132.59083119828878,77.68516094520882L132.48856438911423,77.49700276076598L132.67505092349128,77.48299316357262L132.7622784960225,77.64912643001L132.8675531525256,77.54703950528517L132.67505092349128,77.48299316357262L132.68106661814858,77.23687383878774L132.4855565417855,77.08284658780758L132.2810229234366,76.92685618672164L132.3532112593245,76.72292517248425L132.36825049596783,76.48108983516943L132.31110139672325,76.34122608130826L132.12461486234622,76.17342918430793L131.92308909132586,76.14147276578109L131.84789290810943,76.31525468890737L131.7426182516063,76.42713883046969L131.5380846332574,76.48708466705648L131.50800615997073,76.2693078371382L131.372653030181,76.16743723656029L131.42077858743951,75.89985301787206L131.42378643476826,75.65233544533237L131.318511778265,75.42685670642666L131.4177707401108,75.20943315847643L131.33655886223704,75.02398208548794L131.25835483169186,74.83858351294828L131.4117550454535,74.75287932319273L131.55011602257198,74.6532373754832L131.56515525921532,74.46196726066731L131.54710817524324,74.24486354317156L131.72156332030568,74.09353093028909L131.98023819057045,74.00593323972149L132.1065677783743,74.1711841008159L132.2629758394647,74.28867685998634L132.4073525112403,74.43607038533341L132.56676841965944,74.53368701886868L132.79837266396626,74.5316946975031L133.0119298243012,74.4779043072898L133.19540851134965,74.31257626493564L133.33076164113942,74.11941430077758L133.46310692360044,73.98204498640632L133.5864286640756,73.87654891511701L133.71275825187934,73.72729093146864L133.80600151906785,73.57209853376247L133.90526048091365,73.39307582405459L133.99248805344487,73.20614846986183L134.08573132063339,72.95566936838915L134.16393535117857,72.68343088227397L134.1849902824792,72.5304701729242L134.20604521377982,72.34775832275957L134.2120609084371,72.02416444684908L134.20002951912252,71.77810074083618L134.16393535117857,71.5559281420648L134.1248333359059,71.35167435906791L134.17295889316443,71.12568030620838L134.28124139699628,70.9195773209365L134.23612368706628,70.63628997119585L134.17596674049315,70.36896145075264L134.07069208399005,70.0265415923898L134.02557437406008,69.79308432262704L134.01655083207405,69.60123563737807L134.06768423666134,69.4430513510273L134.06166854200404,69.2572326156417L133.97744881680154,69.01021313094614L133.89924478625636,68.7968616330237L133.83607999235448,68.55198621195728L133.8090093663964,68.36444049019457L133.8571349236551,68.10788382737539L133.79096228242452,67.88692890194838L133.68869547324996,67.70154059322377L133.57740512208957,67.43932304294998L133.5383031068169,67.208734797938L133.5052167862017,67.00777345418888L133.4029499770273,66.81474929095998L133.33076164113942,66.6178427009688L133.21345559532153,66.5154739395459L133.08111031286055,66.32259030305485L132.99087489300058,66.13369635440213L132.8886080838262,65.95272241085607L132.81942759526686,65.75016759704303L132.66602738150524,65.55160460806357L132.4524702211703,65.31576365793413L132.3471955646672,65.17822757095746L132.21184243487744,65.02893417535859L132.08852069440226,64.8561090642194L131.99527742721375,64.72062915348846L131.8930106180394,64.59695363888474L131.74562609893488,64.3908776493573L131.61929651113113,64.22802354885138L131.50199046531344,64.07501535527908L131.40273150346763,63.89262731118558L131.372653030181,63.63971801405788L131.2463234423771,63.41237553605879L131.1230017019021,63.27914090604861L130.96659364081174,63.132220997044215L130.83424835835052,62.955958671110864L130.7139344652041,62.78561480869894L130.53947932014185,62.51354392662506L130.4372125109673,62.26701159448734L130.32291431247816,62.07532531441797L130.2717809078909,61.913020520250086L130.1935768773457,61.72534218831987L130.12138854145797,61.557257073711924L129.99205110632553,61.36967555425187L129.8115802666058,61.11964613692871L129.66118790017273,60.93804088430653L129.58899956428482,60.76819527614657L129.51079553373964,60.56716758216507L129.43860719785175,60.375952684254116L129.33934823600592,60.17503878011834L129.24911281614615,59.966384017142644L129.18895586957302,59.7266060093927L129.02352426649662,59.488859135189244L128.92727315197936,59.38365286093537L128.84606127410564,59.245350297321494L128.75582585424567,59.025291593773034L128.65355904507132,58.86175316033126L128.6655904343859,58.70798415249462L128.59941779315528,58.57370729948917L128.50015883130948,58.44334724234628L128.45203327405096,58.30134084230352L128.37984493816307,58.157418595595914L128.27457028165995,58.02130318935758L128.17230347248542,57.85411193374196L128.0790602052969,57.63254783514179L127.9557384648219,57.37608741649032L127.84144026633278,57.156616222047404L127.74218130448698,57.00127985467938L127.64893803729845,56.84015466493497L127.60983602202577,56.5936851600992L127.5526869227812,56.34730194174924L127.46545935025017,56.12427334528974L127.39026316703354,55.97110326380951L127.3481533044323,55.788893562193664L127.27897281587315,55.55635372918823L127.16467461738401,55.37425095112911L127.11354121279673,55.176703083429544L127.06240780820946,54.97921032439032L127.03834502958027,54.77983720575139L126.95111745704907,54.559237143550234L126.90299189979052,54.31162752302615L126.84584280054595,54.17045129574947L126.75259953335744,54.01576980920481L126.63228564021101,53.77994526699203L126.56310515165168,53.519082863386814L126.49693251042126,53.343296126768564L126.43978341117669,53.183000928640155L126.39767354857545,52.97061694490276L126.34052444933089,52.76601571962058L126.28939104474361,52.59234363294874L126.28036750275757,52.3415583166464L126.22321840351302,52.05422767158609L126.14501437296782,51.78243011463101L126.0848574263947,51.570460870272626L125.99462200653474,51.437530238986795L125.94950429660494,51.229514202961184L125.90137873934623,50.97535396851583L125.83219825078707,50.78094339185793L125.79309623551457,50.617371124636406L125.73895498359856,50.411515184995636L125.63368032709546,50.20187175969815L125.57352338052215,50.038430522515796L125.51637428127778,49.821206953190256L125.40508393011719,49.68475466697487L125.31785635758597,49.54640674650582L125.21558954841161,49.37927154502057L125.1223462812231,49.10847895165713L125.0441422506779,48.974080396797575L124.97195391479002,48.847384510504014L124.95992252547543,48.65930100929248L124.9117969682167,48.47318456232401L124.87269495294419,48.304377769534796L124.80652231171361,48.099176683306496L124.7614046017838,47.89786720074895L124.65011425062322,47.77135820319171L124.46362771624621,47.625708293787085L124.30120396049853,47.459013073061584L124.21698423529604,47.31917165765725L124.16885867803751,47.093183071088475L124.06659186886296,46.89406443005558L123.97334860167445,46.710310554581554L123.80490915126948,46.56678482614075L123.6545167848364,46.48068284386295L123.4951008764173,46.35059231092339L123.45299101381606,46.21287446638152L123.37177913594232,46.02164241799494L123.30861434204046,45.763557866754155L123.2454495481386,45.601106515533246L123.26650447943919,45.43486980063457L123.2063475328659,45.27058061729295L123.05294731910428,45.138793601591686L122.89353141068514,44.942111733643856L122.73110765493747,44.79320294988332L122.55364466254647,44.66150089814741L122.5746995938471,44.44395745783632L122.69200563966479,44.3218557632901L122.86646078472722,44.201681520557L123.0890414870482,44.14064808185731L123.2454495481386,44.11585467963468L123.4499831664875,44.00715491090429L123.56127351764789,43.81267919161493L123.77483067798283,43.62587784048935L124.00342707496111,43.55345727158323L124.10569388413565,43.73833426229248L124.26811763988331,43.726897240016115L124.34932951775706,43.58013771455305L124.50272973151888,43.416258655005834L124.52077681549078,43.19145995376181L124.54483959412012,42.978154326859055L124.72230258651113,42.801080760940266L124.617027930008,42.62595247558173L124.54483959412012,42.46608853505711L124.40948646433037,42.233965964432656L124.49370618953284,42.05897025650805L124.68921626589591,42.15597370127668L124.82156154835694,42.150267268894936L124.85164002164358,41.95247111866425L124.78245953308442,41.77183749639852L125.01707162471997,41.65397371705663L124.89675773157356,41.463909789364806L125.08625211327913,41.45250748135987L125.23062878505492,41.424002467547155L125.23062878505492,41.24539563147877L125.21859739574016,40.94338046788778L125.30281712094283,40.76109025891466L125.4652408766905,40.72691574800183L125.62766463243817,40.75159718397117L125.80211977750042,40.64907958255486L125.93145721263288,40.73261139234802L126.07282603707993,40.605418905683905L126.3615793806315,40.50102317337459L126.52701098370791,40.521901165575485L126.68341904479828,40.68135214053831L126.79771724328725,40.88261216932912L127.06240780820946,40.96996813871698L127.13158829676878,41.15610810253531L127.09549412882484,41.372696164398604L127.05037641889487,41.58744587607737L127.10150982348213,41.78134344580161L127.23686295327188,41.93345500608319L127.48350643422205,41.93345500608319L127.65796157928449,41.946766234293506L127.87151873961943,41.82507236296718L128.08808374728292,41.95247111866425L128.20238194577206,42.188310971936005L128.27156243433123,42.38046118037451L128.32570368624724,42.58978978582485L128.44902542672222,42.78204309066416L128.46406466336555,43.04099697340317L128.32570368624724,43.250510677975996L128.06702881598233,43.34004811293818L127.98882478543712,43.58204349704954L128.0580052739963,43.73642807970876L128.18433486180018,43.81077281858674L128.25351535035935,44.02431697541465L128.3046487549466,44.23982996672649L128.47910390000888,44.20358889632698L128.59039425116944,44.276072805905414L128.5753550145261,44.52218941689918L128.5663314725401,44.75502603266071L128.49113528932364,44.94783959269003L128.49715098398093,45.15407205185184L128.53023730459614,45.29732287903968L128.67461397637192,45.2457493834215L128.80094356417564,45.19608941777659L128.96336731992332,45.12351546695365L129.2461049688176,45.15980155207774L129.4055208772365,45.07195409226722L129.5950152589421,45.09677949069754L129.69126637345937,45.283951627215714L129.70028991544538,45.496009987991584L129.78150179331914,45.614483510712944L129.9890432589968,45.67946093685933L130.16349840405923,45.608750483088954L130.29283583919153,45.4921885779755L130.45225174761063,45.57626416771521L130.57256564075706,45.446333200210205L130.75002863314805,45.56479875072023L130.9244837782105,45.54760095913011L131.09593107594418,45.578175087862434L131.39972365613892,45.627860748371205L131.62230435845987,45.627860748371205L131.74863394626362,45.786495057340204L131.91707339666857,45.78458359754225L132.0644579157731,45.92986866780353L132.1937953509054,46.0732701771027L132.30508570206595,46.24347620441898L132.4193839005551,46.3926779062181L132.67204307616254,46.38693881959594L132.80438835862373,46.47302982240848L132.9818513510147,46.53042942551221L133.19240066402094,46.59357416702446L133.342793030454,46.67012052383052L133.5142403281877,46.5399964618403L133.72478964119392,46.50364238627441L133.94436249618616,46.46155043960189L134.1188176412486,46.45007123603207L134.33237480158354,46.482596111675036L134.45569654205872,46.53042942551221L134.61210460314908,46.54765018057148L134.79257544286864,46.56295785716836L134.9971090612177,46.488335944989075L135.24676038949642,46.50938238392962L135.39414490860096,46.438592211684295L135.51445880174737,46.32572468188812L135.66184332085174,46.27407921503237L135.79719645064148,46.27216648958117L135.94458096974583,46.23008778745765L136.09497333617892,46.15549963657571L136.2724363285699,46.18036151376873L136.54013474082086,46.134463319329L136.6875192599252,46.100041551115396L136.94920197751867,46.17079915394322L137.08455510730843,46.18227400063989L137.37631629818858,46.23008778745765L137.58084991653766,46.23582565061653L137.70417165701264,46.26069024128452L137.87261110741778,46.279817421218524L138.0771447257667,46.35059231092339L138.23355278685705,46.45581081541329L138.31476466473083,46.57826585264115L138.44710994719202,46.773470761484845L138.624572939583,46.83280802706901L138.73887113807214,46.9476679778017L138.88926350450524,47.02042191528966L139.03664802360956,47.060631135172486L139.15996976408474,47.01467792099339L139.3103621305178,46.99936082280453L139.51790359619528,46.924694549218344L139.7374764511877,46.6988274642336L139.87884527563475,46.58783351175609L140.0924024359697,46.63184634844771L140.14353584055678,46.43476591005967L139.9600571535085,46.321898967418775L139.8607981916627,46.11725223407947L139.81568048173287,45.94133976148865L139.85478249700537,45.77884924787594L139.92396298556454,45.627860748371205L140.01720625275306,45.47881379865726L140.15556722987156,45.39665975358869L140.36611654287776,45.43486980063457L140.52252460396812,45.446333200210205L140.69096405437327,45.404301604875656L140.87143489409283,45.39474930311903L141.05190573381256,45.27822116477245L141.21733733688896,45.199909296711525L141.34366692469268,45.03758183889076L141.38878463462268,44.88483558055489L141.42788664989519,44.659592344825654L141.46698866516786,44.45349749893407L141.62339672625822,44.36382595490548L141.70460860413198,44.25127488272676L141.7978518713205,43.984272774534446L141.94523639042484,43.95948458818799L142.05953458891398,43.87940532534276L142.19488771870374,43.82793035168953L142.4114527263674,43.923257186889L142.60395495540172,43.8755922421752L142.7543473218348,43.76120883410607L142.88067690963854,43.65065491512158L143.0761869860014,43.69068116209553L143.19950872647658,43.75739635664635L143.3829874135249,43.78027151437797L143.52435623797209,43.60491326738594L143.63564658913248,43.442934185567964L143.76799187159352,43.351479197624L143.9574862532993,43.357194805687186L144.0958472304176,43.31909157947959L144.22518466555005,43.284800340454524L144.35151425335377,43.2200323011987L144.48686738314353,43.22574690199599L144.5229615510875,43.02385754531508L144.5229615510875,42.81250359584547L144.5229615510875,42.60120939375429L144.5229615510875,42.38997484738073L144.5229615510875,42.178799865173914L144.5229615510875,41.96768435569331L144.5229615510875,41.756628227608246L144.5229615510875,41.54563138969729L144.5229615510875,41.33469375084857L144.5229615510875,41.1238152200595L144.5229615510875,40.91299570643616L144.5229615510875,40.70223511919312L144.5229615510875,40.491533367653716L144.5229615510875,40.28089036124916L144.5229615510875,40.07030600951879L144.5229615510875,39.85978022210932L144.5229615510875,39.649312908775414L144.5229615510875,39.43890397937858L144.5229615510875,39.2285533438874L144.5229615510875,39.018260912377144L144.5229615510875,38.80802659502993L144.5229615510875,38.597850302133764L144.5229615510875,38.3877319440829L144.5229615510875,38.17767143137746L144.5229615510875,37.9676686746231L144.5229615510875,37.75772358453068L144.5229615510875,37.547836071916606L144.5229615510875,37.338006047701924L144.5229615510875,37.12823342291239L144.5229615510875,36.91851810867817L144.5229615510875,36.70886001623373L144.5229615510875,36.499259056917566L144.5229615510875,36.28971514217193L144.5229615510875,36.08022818354249L144.5229615510875,35.8707980926784L144.5229615510875,35.661424781332045L144.5229615510875,35.45210816135804L144.5229615510875,35.2428481447146L144.5229615510875,35.03364464346146L144.5229615510875,34.82449756976138L144.5229615510875,34.615406835878446L144.5229615510875,34.406372354178814L144.5229615510875,34.197394037130096L144.5229615510875,33.98847179730126L144.5229615510875,33.77960554736242L144.5229615510875,33.57079520008432L144.5229615510875,33.36204066833878L144.5229615510875,33.15334186509779L144.5229615510875,32.94469870343346L144.5229615510875,32.73611109651816L144.5229615510875,32.52757895762389L144.5229615510875,32.31910220012239L144.5229615510875,32.110680737484444L144.5229615510875,31.902314483280236L144.5229615510875,31.694003351178765L144.5229615510875,31.48574725494774L144.5229615510875,31.27754610845355L144.5229615510875,31.069399825660525L144.5229615510875,30.861308320631338L144.5229615510875,30.65327150752637L144.5229615510875,30.445289300603548L144.5229615510875,30.237361614218543L144.5229615510875,30.02948836282411L144.5229615510875,29.82166946096976L144.5229615510875,29.61390482330205L144.5229615510875,29.406194364564158L144.5229615510875,29.198537999595374L144.5229615510875,28.99093564333151L144.5229615510875,28.783387210804023L144.5229615510875,28.575892617140312L144.5229615510875,28.368451777563024L144.5229615510875,28.16106460739067L144.5229615510875,27.953731022036408L144.5229615510875,27.74645093700846L144.5229615510875,27.539224267909816L144.5229615510875,27.332050930437873L144.5229615510875,27.124930840384394L144.5229615510875,26.91786391363516L144.5229615510875,26.71085006617008L144.5229615510875,26.50388921406244L144.5229615510875,26.296981273479304L144.5229615510875,26.090126160680768L144.5229615510875,25.88332379201995L144.5229615510875,25.676574083943223L144.5229615510875,25.469876952989182L144.5229615510875,25.26323231578948L144.5229615510875,25.05664008906726L144.5229615510875,24.850100189638425L144.5229615510875,24.643612534410494L144.5229615510875,24.437177040382295L144.5229615510875,24.230793624644804L144.5229615510875,24.024462204379944L144.5229615510875,23.818182696860674L144.5229615510875,23.61195501945076L144.5229615510875,23.405779089604863L144.5229615510875,23.199654824867963L144.5229615510875,22.993582142875596L144.5229615510875,22.787560961352824L144.5229615510875,22.581591198115206L144.5229615510875,22.3756727710676L144.5229615510875,22.169805598204903L144.5229615510875,21.963989597610407L144.5229615510875,21.758224687457385L144.5229615510875,21.55251078600776L144.5229615510875,21.346847811611894L144.5229615510875,21.14123568270915L144.5229615510875,20.93567431782671L144.5229615510875,20.730163635580652L144.5229615510875,20.524703554674005L144.5229615510875,20.31929399389864L144.5229615510875,20.113934872133143L144.5229615510875,19.908626108344208L144.5229615510875,19.703367621584903L144.5229615510875,19.498159330996145L144.5229615510875,19.293001155805143L144.5229615510875,19.087893015325847L144.5229615510875,18.882834828958778L144.5229615510875,18.651973149699984L144.5229615510875,18.421174603298283L144.51995370375892,18.21627832402615L144.51995370375892,18.011431657097404L144.5229615510875,17.8398415070088L144.69741669614993,17.985598659830856L144.76058149005178,18.13507191262596L144.9530837190861,18.240272619043196L145.07038976490378,18.345486410518618L145.16964872674959,18.489484401886045L145.28695477256747,18.63535354658677L145.48848054358783,18.646433245633233L145.74715541385257,18.786788694149607L145.91258701692897,18.868057788311546L146.09606570397727,18.903153682855248L146.25548161239638,19.09713104573649L146.33067779561281,19.267128904906684L146.52017217731859,19.38171205968527L146.63447037580772,19.492613856882457L146.73673718498208,19.607227763332446L146.9081844827158,19.729253311433638L146.92623156668785,19.92712033146404L147.08263962777824,20.080638140259452L147.16986720030928,20.289689569711953L147.21799275756797,20.461779947259146L147.40447929194485,20.485838414077705L147.41350283393086,20.646862913999627L147.28717324612714,20.76533754805203L147.41350283393086,20.93382264411767L147.5879579789933,20.978263948586516L147.56690304769268,21.135679303051575L147.63006784159455,21.30609182064964L147.76842881871286,21.363521292648926L147.89776625384533,21.419101977469325L147.76241312405557,21.55436383694223L147.88573486453075,21.64516839733085L147.8887427118593,21.82124635403943L147.93987611644656,21.980675477048266L148.06319785692173,22.130863513592203L148.24366869664127,22.149407135013774L148.2587079332846,22.35712407938675L148.3910532157458,22.422046320359357L148.38503752108852,22.602000323143585L148.5083592615635,22.652097586161148L148.49933571957763,22.856228971327596L148.43015523101832,23.017714117131618L148.54445342950743,23.086401296045324L148.68281440662594,23.216365680348616L148.76101843717112,23.36677864696543L148.79410475778633,23.55808424558583L148.62566530738135,23.619385748181713L148.58355544478013,23.79588531553813L148.76101843717112,23.814466424576636L148.71289287991257,24.02260359882797L148.7339478112132,24.17502325199635L148.88734802497484,24.27727183641295L148.99563052880669,24.403705923808474L149.05578747537982,24.5766547710532L149.06481101736586,24.72917766127688L149.22422692578496,24.77568420696585L149.15504643722562,24.93940832460825L149.15805428455434,25.084554897864507L149.26934463571473,25.004535002514416L149.3896585288612,24.950572528735393L149.40469776550452,25.11247066244195L149.39266637618994,25.313492400611267L149.5370430479657,25.378648979696692L149.51598811666508,25.59463380076548L149.51598811666508,25.788324148649565L149.7145060403567,25.98951301992605L149.67239617775545,26.1739799797879L149.62727846782548,26.405088737149242L149.6994668037134,26.591514822918555L149.62727846782548,26.74814594195672L149.720521735014,26.893616306015844L149.62727846782548,27.039112875294308L149.73255312432858,27.149185398048502L149.83481993350313,27.244344937914946L149.73255312432858,27.44776280116477L149.59719999453884,27.589625843238508L149.58516860522425,27.781927520485453L149.52501165865093,27.93879012882914L149.43176839146258,28.138647583892123L149.2723524830435,28.278764257903617L149.11594442195312,28.519822228095393L148.96254420819128,28.669351991977635L148.85726955168818,28.83573668944939L148.80914399442966,29.0189868627904L148.61964961272406,29.17983287223163L148.54445342950743,29.30142403721038L148.37902182643103,29.3407112972003L148.34593550581582,29.537176636574287L148.31585703252918,29.71497273920346L148.28878640657126,29.945230910959424L148.32187272718647,30.188665703551976L148.43917877300433,30.368480836871043L148.4361709256756,30.591433259459848L148.44218662033308,30.855684985342123L148.33991981115852,31.02252759330554L148.3699982844452,31.215659054188166L148.42714738368974,31.42196809684276L148.469257246291,31.62270228022885L148.4181238417037,31.77469392116501L148.53843773485013,31.88166857855927L148.53843773485013,32.039341935380065L148.75500274251382,32.16700541469365L148.73093996388445,32.349149491102L148.80012045244362,32.55575573816688L148.98660698682068,32.32473597966009L149.26633678838618,32.28717821229384L149.41973700214783,32.12570025702257L149.5641136739236,32.12757771713029L149.62126277316818,31.98114928140734L149.77767083425857,31.962378375314813L149.96716521596414,31.846008745201516L150.12658112438325,31.821610842041366L150.3732246053334,31.92483790582216L150.5386562084098,31.900437560483084L150.63490732292706,32.016815236306485L150.79733107867474,32.16325031071534L150.97780191839428,32.16512786046309L151.14022567414213,32.1876588071035L151.37182991844895,32.2402335268404L151.52222228488205,32.33788162233253L151.735779445217,32.30971265731574L151.9282816742513,32.20267979686466L152.12679959794292,32.144475059770144L152.2561370330754,32.157617688367225L152.38246662087911,32.10880331770653L152.51180405601158,32.180148419827134L152.6501650331299,32.14823007410135L152.7704789262763,32.0299557323996L152.9058320560661,32.031832964039154L153.09532643777183,32.031832964039154L153.26075804084823,31.99616632858522L153.519432911113,32.073133193203375L153.76306854473458,32.15949522466744L154.00369633102744,32.25337775615739L154.14205730814592,32.16512786046309L154.29244967457902,32.120067903587454L154.44284204101209,32.144475059770144L154.5812030181304,32.283422534274735L154.71054045326287,32.283422534274735L154.8819877509966,32.249622239639564L155.0203487281149,32.24774448810891L155.26398436173648,32.06937853733427L155.49558860604347,31.892929914031896L155.6068789572039,31.690250502458213L155.58582402590326,31.497002935606417L155.59183972056053,31.28129699484242L155.49859645337204,31.12190002479184L155.67906729309175,30.956911134320336L155.89563230075527,30.88380206130759L156.15129932369146,30.938164574204677L156.2926681481387,30.93628994262224L156.54231947641756,30.925042246396117L156.67767260620732,30.902547333563803L156.87619052989896,30.7957052276073L157.0596692169472,30.703870027548305L157.23412436200948,30.688877536565798L157.33338332385532,30.542715613368188L157.41459520172924,30.30666479045877L157.52889340021835,30.244853557839065L157.59205819412023,30.10626404008741L157.74545840788204,30.00327397640632L157.9349527895876,29.802949703192496L157.9199135529443,29.660693930498383L158.04925098807675,29.537176636574287L158.04925098807675,29.353807480544674L158.15452564457985,29.222855320505914L158.11241578197863,29.06761130984924L158.28386307971232,28.942315862193595L158.41921620950208,28.774039450155385L158.63578121716557,28.671221290779073L158.8222677515426,28.67309059394637L158.96664442331837,28.532904967755115L159.16215449968126,28.534773948008706L159.1862172783106,28.33668630024971L159.31856256077182,28.260080620559876L159.42985291193222,28.15359219664475L159.44489214857555,27.987349047877103L159.58926882035115,27.86595725303806L159.7577082707563,27.856620182260144L159.8509515379448,27.699773606285078L160.04345376697913,27.776325850607464L160.21490106471285,27.869692111723907L160.35025419450258,27.85101799186188L160.45252100367696,27.68857144999251L160.5487721181942,27.358177964768032L160.70217233195586,27.197696701547386L160.84654900373164,27.12679654969844L160.84053330907435,26.970092003033358L160.95483150756345,26.9010770308237L161.09319248468177,26.815282855570473L161.08116109536718,26.658638730379693L161.0691297060526,26.446098792056546L161.3458516602894,26.42932170033731L161.41202430151984,26.300708876878787L161.42104784350587,26.05286057950508L161.4571420114498,25.85910714128235L161.5564009732956,25.74175975390989L161.36690659159,25.615118097333294L161.48421263740772,25.486634223130324L161.48722048473644,25.326523299316193L161.65866778247016,25.242756874037894L161.75191104965867,25.084554897864507L161.58046375192498,24.876147386191576L161.6797227137708,24.51900109139885L161.8842563321197,24.375814372539395L162.01359376725216,24.173164304966804L162.00156237793757,23.95755505845156L161.8842563321197,23.801459604084698L162.02562515656675,23.712275528822886L162.1940646069719,23.650967095068694L162.07976640848273,23.515361659667093L162.00156237793757,23.403921883741532L162.16699398101377,23.123531884922244L162.2421901642304,22.785705148496163L162.44973162990806,22.735599778628L162.4888336451806,22.55747197305871L162.54598274442515,22.38865710275516L162.65125740092824,22.245840661743642L162.88286164523527,22.08636051608181L162.97309706509503,21.865735119033957L163.17763068344394,21.732275980620216L163.18966207275872,21.493215338190282L163.30396027124783,21.57474767003947L163.4393134010376,21.4858037047172L163.48743895829614,21.643315143789124L163.66189410335838,21.63775540798079L163.80326292780543,21.519156575933238L163.94162390492394,21.61181046637904L164.10705550800034,21.49506825688701L164.30557343169195,21.34129005888289L164.43491086682442,21.319059419340846L164.63342879051604,21.350553000731452L164.89210366078078,21.383900445698174L165.06355095851447,21.40242738190034L165.2771081188494,21.39872196163364L165.45156326391185,21.517303603522294L165.66211257691805,21.563629153616915L165.8034814013651,21.45986350806828L165.87867758458174,21.328322113608635L166.01703856170008,21.348700404108286L166.0260621036861,21.491362423624963L166.2035250960771,21.661847865350154L166.20653294340582,21.83236832158721L166.42309795106934,21.813831791848628L166.59153740147445,21.94174228082582L166.76298469920815,22.078943582283898L166.92240060762708,22.143844004987727L167.05775373741685,22.31817318063875L167.2111539511787,22.31817318063875L167.30740506569572,22.41833634071611L167.48186021075816,22.553761385540014L167.63826827184855,22.520366847632914L167.80971556958227,22.71147605558741L167.8788960581414,22.88221295205784L167.99920995128784,22.947176485410125L168.17667294367882,22.947176485410125L168.1285473864203,23.101253330789888L168.2398377375807,23.18108760538965L168.33608885209796,23.27764171911329L168.46241843990165,23.36306441551949L168.58874802770538,23.47635602016527L168.73011685215243,23.582232776479998L168.7210933101666,23.730854745671508L168.8654699819422,23.792169144203484L169.018870195704,23.751292369747347L169.17828610412295,23.68069182478351L169.36176479117142,23.745718421821834L169.37078833315726,23.890653370210202L169.5362199362337,23.838622495211325L169.70465938663864,23.890653370210202L169.79790265382715,23.794027227767856L169.99341273019022,23.7661564158835L170.16786787525248,23.706701845733534L170.3092366996995,23.6825496561068L170.5318174020205,23.73642859269765L170.71228824174023,23.894369987535896L170.8416256768727,24.06907000177324L170.9529160280331,24.23451178451222L171.11233193645222,24.286567795355097L171.32288124945842,24.364658018205034L171.4010852800036,24.524580302086378L171.52440702047878,24.623152635850715L171.6627679975971,24.68081366242066L171.81316036403015,24.600833330643837L172.0116782877218,24.532019308885083L172.17109419614087,24.52272056096095L172.32750225723126,24.58037450290371L172.51699663893686,24.658492782378403L172.7064910206426,24.736618530637543L172.84485199776094,24.744059467782876L173.04637776878127,24.900334813015974L173.29302124973142,24.985926849707255L173.41935083753515,25.043613505326704L173.57275105129696,25.05850104658927L173.73517480704464,24.96545837187864L173.86451224217708,24.974762161771906L174.02392815059602,25.015700097969244L174.21041468497305,25.065944919147825L174.40893260866466,25.02500446093677L174.66459963160088,24.982205270083995L174.89620387590787,24.959876148871416L175.05862763165553,24.805449786154384L175.23609062404654,24.7049953039473L175.41054576910898,24.59525359956902L175.57898521951392,24.457632285772405L175.8015659218349,24.420441310932347L175.9850446088832,24.48738628312853L176.1715311432602,24.569215358127707L176.2677822577773,24.671513221634655L176.41516677688182,24.64175252246585L176.62270824255927,24.677093473402465L176.83626540289424,24.671513221634655L177.11599520445975,24.701275004817347L177.31150528082281,24.69383445738174L177.513031051843,24.727317454527736L177.67545480759068,24.684533868377798L177.84389425799583,24.591533800012144L178.09053773894598,24.478088042684675L178.35222045653944,24.28099020732469L178.5597619222171,24.180600118395148L178.68007581536352,24.135986250114257L178.83648387645388,24.002159215820058L179.05605673144632,23.849771690697537L179.20344125055067,23.626816544115655L179.28465312842442,23.441066797795855L179.36586500629835,23.255358995486148L179.44707688417228,23.069693076947914L179.52528091471743,22.884068982001736L179.61250848724848,22.683641866391696L179.68168897580782,22.44616159379811L179.7328223803949,22.247695262741473L179.7899714796395,22.025172797939973L179.82305780025487,21.797149269207182L179.84712057888407,21.59327886147591L179.86817551018467,21.413543741787038L180.01255218196044,21.224585828204113L180.1088032964777,21.00418913736641L180.17798378503687,20.81347267366985L180.247164273596,20.62279980863758L180.31935260948393,20.432170477353452L180.38853309804307,20.243434754386243L180.46072143393096,20.052891875022254L180.52990192249013,19.862392335675793L180.61111380036402,19.646052149753388L180.6863099835805,19.42791936322439L180.7524826248111,19.23571367006582L180.83670235001358,18.988128743997066L180.94799270117414,18.82557523923782L180.9901025637754,18.64273999645698L180.95100054850272,18.419328469169045L180.86978867062896,18.188593444594517L180.7584983194684,17.961611582049557L180.79760033474108,17.780807766713053L181.02018103706206,17.758671173591296L181.1826047928097,17.72177813555146L181.44127966307445,17.718088919996177L181.7089780753254,17.58713215838435L181.94659801428952,17.511518440401858L182.12706885400928,17.469103936266634L182.31054754105756,17.42853552247547L182.4910183807773,17.38796904548903L182.7015676937835,17.340029341601337L182.87602283884593,17.30131078502353L183.0564936785655,17.253375966994128L183.23696451828522,17.203600361325385L183.41743535800492,17.153827667678087L183.5979061977245,17.105901158297L183.77837703744424,17.056134177501804L183.95884787716398,17.008213167256798L184.1964678161281,16.987939705382672L184.3558837245472,16.864466309225236L184.48522115967967,16.78707419588673L184.6055350528261,16.65810294518161L184.70780186200045,16.42784560072556L184.78299804521708,16.238160170060468L184.84917068644768,16.057721812942702L184.95745319027935,15.89756859750193L185.10784555671242,15.752168037497256L185.26124577047426,15.582871861974155L185.396598900264,15.413609063631156L185.52292848806772,15.363940440527927L185.66429731251478,15.27012975909841L185.8176975262766,15.196559913598662L185.87484662552114,15.02369552941866L186.00719190798216,14.91705183469898L186.12449795379987,14.803067993921019L186.26285893091836,14.731376200420613L186.4102434500227,14.736890742221163L186.5546201217985,14.681746910295118L186.70501248823157,14.608227282003469L186.82231853404926,14.50347262785678L186.96067951116777,14.444668565367664L187.06595416767084,14.264606008168755L187.0809934043142,14.093764973449481L187.15618958753066,13.93764942182841L187.12611111424417,13.779725833497366L187.09302479362879,13.59796566728383L187.07497770965688,13.408902032095085L187.20431514478935,13.192355385176256L187.2464250073906,12.957518232306626L187.3306447325931,12.834620891796561L187.36373105320828,12.64572292582281L187.37576244252304,12.480699904268079L187.4599821677255,12.354203356602568L187.47802925169742,12.148914567170749L187.5562332822426,11.903364415643807L187.6103745341586,11.74764063447796L187.53217050361343,11.608428648566871L187.61939807614448,11.39415857466227L187.63142946545923,11.196417142176728L187.6885785647038,11.002380764381115L187.71564919066174,10.786428231691957L187.7607669005917,10.616265584351652L187.91717496168206,10.429673262185077L187.9231906563394,10.248606589720026L188.076590870101,10.259579272974207L188.1487792059889,10.446135706523762L188.3142108090653,10.407723813059846L188.39542268693904,10.287011576145034L188.31721865639386,10.073062144000403L188.40444622892508,9.967020890728378L188.5458150533721,9.906692733815817L188.59995630528815,9.740354517969024L188.795466381651,9.698317924360595L188.75937221370708,9.477201634565347L188.9127724274689,9.455275743467553L189.1564080610903,9.42604206268399L189.15340021376176,9.203166816179532L189.36394952676795,9.159329070501002L189.52938112984435,9.075312751851783L189.7038362749068,9.000435314811313L189.8211423207245,8.932868389303252L189.89032280928365,8.717418842864618L190.05575441236005,8.582332922735532L190.09485642763272,8.730198297957884L190.2482566413944,8.722895729806197L190.27532726735228,8.545826718322928L190.44978241241472,8.518448042916418L190.42571963378538,8.693686054070582L190.56708845823243,8.70098838348099L190.65130818343488,8.500196058208758L190.79568485521068,8.467343424109231L190.95209291630107,8.465518313140421L191.15662653465,8.45456772550449L191.29498751176848,8.304923120021925L191.397254320943,8.210039495999553L191.45139557285881,8.065908595507551L191.44237203087283,7.870730244122342L191.51155251943214,7.633654730990912L191.6258507179213,7.482323825063844L191.65893703853646,7.340132426417512L191.82436864161292,7.365652306312512L191.974761008046,7.360183699753378L192.05898073324846,7.252641182851221L192.23343587831073,7.2125438679889555L192.3627733134432,7.403933481999502L192.53121276384815,7.387527064595901L192.59738540507874,7.20889874598592L192.72371499288246,7.057639174553373L192.7658248554837,6.813490462868941L192.96735062650407,6.726050256140866L193.01848403109133,6.596727118287106L193.1869234814963,6.556658911188208L193.42153557313185,6.443748959296215L193.58696717620828,6.345419500884674L193.68622613805408,6.237997657448659L193.75841447394197,6.099642505923725L193.73134384798408,5.913988466479822L193.74337523729866,5.668328188865445L193.8666969777738,5.588275467423443L194.02310503886417,5.482762178042947L194.22162296255578,5.371804487350886L194.35096039768825,5.2663162553718905L194.41111734426138,5.122653626180323L194.39607810761805,4.966287088833781L194.3990859549468,4.74451066994996L194.54647047405115,4.6918012319647175L194.6577608252117,4.626373047707148L194.82620027561669,4.473725455731881L194.9675691000637,4.377425172131069L195.09389868786747,4.232085396460576L195.09389868786747,3.9905089189329033L195.22624397032865,3.7998354751225065L195.328510779503,3.7072369103944993L195.46687175662152,3.6019400504556813L195.60824058106857,3.5583724548880866L195.74960940551563,3.4440173096309934L195.81878989407477,3.3060839303780654L195.960158718522,3.2461982211394513L196.2098100468009,3.0556786003358525L196.38727303919188,2.9958091123002646L196.5256340163102,2.9758534772568623L196.67602638274326,2.984924167103145L196.90161493239282,2.9794817425248823L197.07306223012648,2.9812958804940024L197.23548598587416,3.0720073151179292L197.46709023018116,3.0284647163202294L197.56935703935574,2.9431997300031867L197.7979534363338,2.91780316753173L197.92729087146628,2.9286873232625226L198.12280094782932,2.8778956913653815L198.22807560433245,2.7799482683334986L198.3513973448076,2.7273511484897597L198.51682894788382,2.620352427559851L198.68827624561752,2.535124992192948L198.87476277999457,2.5151792762148375L199.11238271895886,2.457157812473241L199.25074369607717,2.415457125328004L199.26277508539198,2.270425837416184L199.4703165510694,2.1671048512835114L199.68387371140437,2.190668276046978L199.80719545187952,2.2305462013962654L199.90043871906806,2.1163548870135855L199.98766629159928,1.9677459122309244L200.12903511604628,1.6760338341750014L200.09594879543107,1.4876471939031148L200.09294094810235,1.264892792233951L200.18919206261944,1.1073668309917934L200.30649810843732,1.0132260377167768L200.37567859699647,0.8684125158300162L200.44185123822706,0.689236737029745L200.62232207794676,0.6150426417739538L200.78474583369444,0.6277095113506732L200.9110754214982,0.6041854609626682L201.10357765053251,0.5897094150971895L201.27803279559475,0.5788525270951652L201.4314330093566,0.45943503756399195L201.66303725366342,0.35812300130427843L201.7893668414673,0.3744045568465424L201.94878274988625,0.44496122125167403L202.14730067357786,0.40877765517902276L202.34581859726947,0.464862776128399L202.4871874217167,0.39973198119278663L202.6375797881496,0.464862776128399L202.81805062786933,0.37078640903962423L202.97746653628843,0.307471074762276L203.2842669638119,0.2731016772680448L203.47977704017478,0.34726878748853096L203.61813801729326,0.2586307274603712L203.85876580358615,0.12840218617890287L204.08435435323565,0.19532293722213012L204.22873102501143,0.057869242594250636L204.37310769678726,0L204.54455499452092,0.07595410948982817L204.78518278081378,0.10850774447371236L204.91151236861754,0.10308206054625657L205.09799890299456,0.10308206054625657L205.29651682668617,0.2513953359773211L205.47999551373445,0.32917870939670024L205.6333957274963,0.32736972071671744L205.80785087255853,0.44315200987907133L206.03343942220806,0.4232509145324457L206.2139102619278,0.5517108559974417L206.37031832301818,0.6530437630727306L206.5026636054792,0.687427055194263L206.63200104061164,0.7598170502289747L206.7162207658141,0.8738426191855524L206.87262882690453,0.8847029202371459L206.97489563607905,0.9951231236808269L207.14634293381278,1.0910725549272513L207.2937274529171,1.2359205103423392L207.46818259797953,1.1761680123294695L207.71482607892972,1.1435773486999494L207.97650879652315,1.185221175859482L208.08178345302645,1.2793792697100912L208.17803456754353,1.4441787509366293L208.31338769733327,1.5274950438261499L208.4607722164376,1.4858359683932463L208.68034507142983,1.494892131065967L208.8728473004642,1.5075709063348484L209.03527105621203,1.449612195695579L209.27890668983346,1.3880350051273354L209.513518781469,1.2902442750719558L209.74813087310457,1.322840048590848L209.98575081206886,1.339138361478632L210.21434720904713,1.302920274203558L210.39481804876687,1.3916570804884998L210.6083752091018,1.2485957732555732L210.9633011938838,1.2522173084909127L211.19189759086208,1.2033277656736914L211.36936058325307,1.1815998999379076L211.6671374687905,1.1164193291151605L211.9498751176846,1.179789267231996L212.08522824747433,1.1399562338991132L212.3138246444526,1.2196239960830155L212.55144458341692,1.3011094066648354L212.7018369498498,1.2775684477549305L212.88832348422682,1.3500040612558735L213.09887279723324,1.451423350970856L213.27633578962423,1.4858359683932463L213.46282232400125,1.4242563904900578L213.70645795762266,1.3590589075452613L213.8538424767272,1.4242563904900578L214.01325838514612,1.6053843883863408L214.25990186609647,1.5872700073757642L214.3922471485575,1.6434257329665058L214.43736485848746,1.7738649778700903L214.52760027834722,1.8934503190291423L214.66896910279428,1.9550608791946615L214.66896910279428,2.1834179279113073L214.72912604936758,2.3737583108245985L214.7892829959407,2.564137708130886L214.84643209518526,2.756369879882527L214.90658904175856,2.9468278672447923L214.9667459883317,3.1373250579213448L215.0238950875763,3.3278615148032316L215.08405203414958,3.5202524975935034L215.14420898072268,3.7108680512573073L215.2013580799673,3.9015230607490707L215.26151502654056,4.09221758919341L215.32167197311372,4.284768405597561L215.37882107235828,4.475542539435082L215.43897801893155,4.666356382554966L215.4991349655047,4.857209998317558L215.5562840647493,5.049921674723947L215.6164410113226,5.240855406391859L215.67359011056715,5.431829101745393L215.73374705714042,5.622842824383042L215.79390400371358,5.815716391024665L215.85105310295813,6.006810741996446L215.91121004953146,6.197945312013843L215.97136699610456,6.389120164915369L216.02851609534912,6.58215665590248L216.08867304192245,6.773412651499825L216.14882998849558,6.964709122467639L216.19695554575407,7.126887396404811L216.18492415643948,7.327372757581912L216.1728927671249,7.5297259493048045L216.1608613778103,7.732124657757936L216.15183783582427,7.93456895893263L216.13980644650954,8.137058928896266L216.12777505719492,8.337769793285673L216.11273582055162,8.602411970479494L216.13980644650954,8.8653065798797L216.17590061445344,9.088097332975792L216.31125374424323,9.257967032125123L216.4405911793757,9.40411743248086L216.56992861450811,9.55029184270498L216.69926604964058,9.69466266241895L216.81055640080098,9.822605783486097L216.95192522524806,10.038323095040823L216.997042935178,10.29066928080124L217.01208217182136,10.493695600731058L217.0271214084647,10.720554929594385L217.10532543900985,10.931000771747335L217.17751377489776,11.117699119533881L217.25270995811422,11.304437047193801L217.3248982940021,11.49121461475778L217.40009447721857,11.678031882313007L217.46626711844917,11.846567833930777L217.62568302686827,11.951003095291895L217.7850989352872,12.055450800563875L217.94451484370632,12.159910960264654L218.1340092254119,12.284546404378943L218.18815047732792,12.517368992820337L218.21221325595712,12.73008007101879L218.2332681872577,12.931836759025657L218.25733096588706,13.135474950274357L218.2783858971877,13.33732556473268L218.29944082848834,13.539223044322881L218.32951930177495,13.801759956396097L218.43479395827805,14.033152064870706L218.56112354608177,14.25725731243304L218.69046098121424,14.479582994745442L218.80175133237464,14.67623272092817L218.84386119497606,14.900504858098799L218.870931820934,15.102767482662188L218.9010102942206,15.305077640268735L218.92808092017853,15.505595577017033L218.96116724079377,15.722722824788491L218.9521436988077,15.941745804528551L218.94312015682186,16.146095030345066L218.93409661483582,16.348651419738474L218.92507307284984,16.55309789493515L218.9160495308638,16.757593333635327L218.90702598887793,16.962137815384096L218.8980024468919,17.16673141981036L218.89198675223463,17.31606050343251L218.90702598887793,17.5207392650548L218.92206522552124,17.723622749345424L218.94011230949312,17.92839982627325L218.95515154613645,18.133226402927335L218.9701907827798,18.336256606724163L218.98823786675166,18.5411819755125L219.00327710339502,18.744310239032018L219.01831634003833,18.949334718205137L219.03636342401037,19.152561357166235L219.05140266065354,19.357685265651924L219.06644189729684,19.56285923428149L219.08749682859747,19.834653295869145L219.10253606524083,20.106535483954985L219.11155960722687,20.332246259012237L219.10554391256954,20.55801797152199L219.0965203705835,20.761634961120052L219.08749682859747,20.96715340029772L219.07847328661165,21.18383582545215L219.06042620263958,21.39872196163364L219.03937127133892,21.60254461224045L219.02132418736704,21.806417295926167L218.9972614087377,22.04742235442913L218.90401814154922,22.2625322203383L218.8318298056613,22.42946632958305L218.77167285908817,22.627976302453703L218.76264931710213,22.910053839758433L218.82882195833272,23.036277655022474L218.89499459956318,23.24793155497693L218.92507307284984,23.515361659667093L218.94011230949312,23.823757136836775L218.8859710575773,24.065352592609628L218.77167285908817,24.195471947740344L218.7145237598436,24.390689748242323L218.65737466059903,24.58781401738267L218.60022556135448,24.78312550004543L218.54006861478115,24.980344486639325L218.47991166820805,25.190639889756L218.5430764621099,25.395404371490116L218.61225695066906,25.587185093591955L218.6814374392282,25.779011056185226L218.75061792778754,25.974608430504134L218.5821784773824,26.06031355877704L218.41073117964874,26.14416429504695L218.24229172924373,26.22802370359193L218.0888915154821,26.302572685010176L217.93248345439173,26.19447889914423L217.77306754597262,26.084536214355154L217.6136516375535,25.976471489211576L217.45423572913458,25.864695535041108L217.29181197338687,25.754797515423036L217.13540391229654,25.64491435911461L216.97598800387738,25.536908104605544L216.81957994278704,25.42705438594757L216.66016403436794,25.319077045951275L216.50074812594897,25.21111402171752L216.3443400648586,25.101304241904216L216.18492415643948,24.993370059890395L216.02851609534912,24.883589595022187L215.8691001869302,24.77568420696585L215.71269212583962,24.665933007976577L215.55327621742072,24.558056365671035L215.39386030900158,24.448334383551696L215.27655426318393,24.366517400032535L215.09608342346417,24.422300819521155L214.91862043107315,24.47622840728053L214.69904757608094,24.5524769265584L214.51857673636118,24.764522394480082L214.36818436992812,24.993370059890395L214.19372922486585,25.15527669160079L214.04634470576153,25.279985332783696L213.84481893474117,25.44567261647137L213.65231670570685,25.616980331702422L213.50794003393105,25.745484807279865L213.45981447667253,25.944800072821266L213.4056732247567,26.17584349649192L213.31844565222548,26.39576855980232L213.24324946900884,26.584056954814542L213.16504543846366,26.772389184062604L213.11090418654783,26.90294222279428L213.01465307203077,27.080155111160167L212.9184019575135,27.2574069277606L212.82215084299645,27.434697725310286L212.70484479717857,27.651232055638133L212.5905465986894,27.873426987767488L212.48226409485756,28.08447569530631L212.32585603376722,28.24887064706988L212.18448720932014,28.383400673049465L212.05815762151644,28.504870787282613L211.9498751176846,28.704869415843547L211.84159261385275,28.923616733923154L211.67616101077653,29.127460847088457L211.57990989625927,29.33696957002502L211.5017058657141,29.52594874120257L211.47764308708474,29.73369042784077L211.4505724611268,29.939614064963735L211.4235018351689,30.19241143682555L211.41447829318287,30.449036245172437L211.41447829318287,30.65701943523237L211.41447829318287,30.865057233018632L211.41447829318287,31.073149724274856L211.4114704458543,31.25879194367056L211.43252537715492,31.4669881439641L211.45358030845557,31.67336290431075L211.47764308708474,31.947361972705068L211.5889334382453,32.13508760237559L211.73631795734963,32.00930647990657L211.88069462912546,31.94548494251862L212.04311838487308,31.866653715089228L212.0822204001458,32.07876521060399L212.16042443069097,32.262766625951656L212.40406006431238,32.48437652497918L212.55144458341692,32.62714144332878L212.5574602780742,32.92214601510514L212.44917777424234,33.17402124326381L212.5424210414309,33.3582798367903L212.61160152999003,33.48803898342962L212.7589860490944,33.61593865084933L212.9063705681989,33.74385927258015L213.06879432394658,33.88685420100006L213.2071553010649,34.05998841895928L213.32746919421152,34.219983582562065L213.44778308735795,34.37812876091502L213.6041911484483,34.5871556476842L213.81774830878325,34.7020502194068L213.99220345384555,34.76798100847563L214.1696664462365,34.83391739670378L214.37720791191416,34.91304845733774L214.58474937759183,34.99030323058173L214.7622123699828,35.05625851623492L214.93967536237378,35.1222194130699L215.11413050743622,35.1881859238394L215.29159349982723,35.25227305539923L215.46905649221821,35.31825064170707L215.7036685838538,35.40685795918483L215.94429637014662,35.42759730676289L216.1307829045237,35.42948272955525L216.31726943890072,35.42948272955525L216.50375597327752,35.43136815694092L216.69024250765455,35.43136815694092L216.87672904203157,35.43325358891994L217.0602077290799,35.43325358891994L217.24669426345693,35.435139025492305L217.43318079783396,35.435139025492305L217.61966733221098,35.43702446665813L217.80615386658786,35.43702446665813L217.98963255363628,35.438909912417586L218.17611908801314,35.438909912417586L218.36260562239016,35.44079536277067L218.5490921567672,35.44079536277067L218.74460223313025,35.39177514634551L218.76264931710213,35.19949503242779L218.75964146977338,34.95450128150421L218.72354730182946,34.71523592941969L218.72956299648692,34.50617459949501L218.72655514915817,34.36118309717938L218.72053945450088,34.04681381123143L218.75663362244484,33.790894184930096L218.78971994306005,33.516250345053834L218.7987434850461,33.3582798367903L218.83784550031862,33.13642278031435L218.86792397360523,32.92966350574483L218.88897890490585,32.74174786970838L218.9310887675071,32.51067337475871L218.94913585147916,32.25337775615739L218.97319863010836,31.986780640523648L219.09952821791228,31.89856064215971L219.2589441263312,31.94923900736694L219.55972885919732,31.947361972705068L219.71613692028774,32.13133265078986L219.90863914932203,32.24774448810891L220.122196309657,32.24774448810891L220.21543957684548,32.114435590482685L220.46509090512438,32.146352564694666L220.66661667614457,32.19704689207643L220.9132601570949,32.25337775615739L221.07267606551383,32.28717821229384L221.2561547525623,32.28717821229384L221.44264128693914,32.28717821229384L221.62912782131616,32.28717821229384L221.81561435569319,32.28717821229384L222.00210089007024,32.289056058033566L222.23069728704849,32.289056058033566L222.45628583669802,32.294689622173934L222.64277237107504,32.30032322669757L222.82925890545206,32.3059568716063L223.01574543982895,32.30971265731574L223.211255516192,32.31534636953663L223.46090684447086,32.30407898548282L223.70755032542104,32.27778905089585L223.9030604017841,32.29093390826014L224.03841353157384,32.289056058033566L224.24294714992277,32.281544701995244L224.43845722628583,32.1876588071035L224.3572453484119,32.46559360007177L224.36626889039792,32.67035173595224L224.33619041711125,32.867646364881296L224.32716687512522,33.07250953818638L224.28204916519542,33.28494723704358L224.23693145526545,33.49744265744434L224.17677450869218,33.72128352169972L224.13165679876238,33.90755300749751L224.07450769951777,34.09010264467784L223.9963036689726,34.26516464005201L223.930131027742,34.44591510788993L223.88200547048348,34.63424153202217L223.80680928726684,34.860293520375336L223.72559740939312,35.03741357645629L223.69551893610645,35.19384045749999L223.6143070582325,35.3880044890569L223.5691893483027,35.55581652336221L223.49700101241484,35.729323423185946L223.4218048291982,35.96135548329707L223.34360079865303,36.189682737962926L223.25637322612195,36.36710760756185L223.18117704290535,36.537020779783944L223.09695731770285,36.76929612369162L223.0879337757168,36.969524671908175L223.0728945390735,37.14901914129288L223.0007062031858,37.35879745034492L222.96761988257038,37.568633167634744L222.91047078332582,37.83715549110468L222.84129029476665,38.105772098526785L222.76609411155022,38.325275483144395L222.71796855429153,38.527804416667124L222.6728508443617,38.73038715705118L222.64277237107504,38.897037641279155L222.61570174511712,39.086457491282744L222.5856232718305,39.292978882244796L222.5675761878584,39.45785734815516L222.57659972984445,39.622771629981855L222.5735918825159,39.8465057820971L222.5344898672432,40.077893617077336L222.49538785197075,40.24104558252287L222.45327798936927,40.442188299176166L222.4171838214255,40.635791283191395L222.38108965348158,40.81425368594134L222.3690582641668,40.95857330782786L222.3570268748522,41.19410150170671L222.29386208095036,41.39359830999072L222.19460311910456,41.61785787266879L222.10436769924462,41.81556586000127L222.01413227938485,41.99811175513494L221.9208890121963,42.20162672415043L221.8426849816511,42.336699868573334L221.75846525644863,42.49463316298355L221.65319059994553,42.66021347847666L221.55693948542827,42.846773148052534L221.55092379077098,43.046710203527766L221.5449080961137,43.248605742945244L221.50580608084118,43.45817777456642L221.4606883709112,43.70021153809003L221.38549218769458,43.91944387889146L221.28623322584878,44.08724793583724L221.15990363804505,44.25699740687688L220.99447203496865,44.415338070544806L220.79896195860573,44.6137885393139L220.66360882881602,44.756934831796826L220.5011850730683,44.873380881632244L220.34778485930653,44.99939231886981L220.21243172951677,45.16553109669471L220.0710629050697,45.32215584571395L219.944733317266,45.438690914057275L219.71312907295896,45.68710571614855L219.55371316454006,45.822813734966815L219.40632864543574,45.9719302176849L219.21382641640136,46.10195382935811L219.0634340499683,46.006345999075705L218.92808092017853,46.113427603101485L219.10253606524083,46.23200040354007L219.02132418736704,46.37928677376516L218.870931820934,46.47111657949307L218.71151591251487,46.55147706982808L218.55510785142448,46.6088828003538L218.3896762483481,46.69308598638898L218.1911583246565,46.752416755518624L217.97760116432153,46.84046479783859L217.77908324062992,46.87874984994431L217.58357316426702,46.9476679778017L217.4632592711206,47.007019331912176L217.34896107263148,47.118076703228525L217.25270995811422,47.232981347501465L217.16849023291175,47.35556616739342L217.04817633976532,47.49733045204141L216.8977839733322,47.65445268856132L216.74739160689916,47.81927570121829L216.55188153053626,48.03973668055423L216.46766180533362,48.162456844732645L216.3353165228726,48.335067006357434L216.16386922513885,48.54033449755286L216.04957102664977,48.64586833302508L215.91421789686,48.77636768076604L215.76081768309837,48.88961402032476L215.66155872125256,49.037436619292066L215.52018989680548,49.17184689235452L215.39686815633036,49.36198389362451L215.25249148455453,49.50990266884307L215.14120113339413,49.64824362369603L215.0208872402477,49.77507936159586L214.8674870264859,49.93077175824456L214.75318882799675,50.101879794408944L214.63287493485032,50.251872927116636L214.51556888903264,50.417286047511L214.4102942325294,50.559648585829905L214.31705096534102,50.7039635885088L214.21478415616647,50.81366229587783L214.10950949966337,51.01578255409538L214.01025053781757,51.16404011248423L213.87790525535638,51.312328198622424L213.76360705686724,51.48761715701346L213.65231670570685,51.670656720372335L213.5560655911896,51.811339857791836L213.4568066293438,52.01374066051878L213.3786025987986,52.181487442607136L213.3003985682534,52.33384323763937L213.24324946900884,52.468869117250875L213.16504543846366,52.60970894490413L213.06277862928926,52.79110517299455L212.97254320942935,53.00536636701162L212.94246473614288,53.25831587525656L213.01164522470202,53.499763520211985L212.92140980484226,53.74902325150879L212.789064522381,53.91717791410426L212.69882910252124,54.02350308465239L212.61160152999003,54.13177776983943L212.51234256814422,54.259408390222035L212.37097374369716,54.412208519730314L212.24464415589347,54.53795480015535L212.14237734671894,54.640502870854306L212.02507130090123,54.79144963597125L211.91077310241212,54.994697962695966L211.80249059858028,55.176703083429544L211.7663964306363,55.32195350111377L211.6400668428326,55.544728746138276L211.50471371304286,55.80052256364635L211.4385410718122,56.002122366758414L211.351313499281,56.186326390586714L211.23099960613456,56.364759332242215L211.13775633894605,56.62279123483776L211.04451307175754,56.85374211028224L210.90314424731054,57.030402806973456L210.80689313279342,57.226528799532076L210.70161847629032,57.40522592255826L210.63243798773098,57.556765673740216L210.55724180451455,57.70639474793708L210.4670063846546,57.871606822147186L210.37677096479484,58.08741307822905L210.27450415562043,58.23910055862933L210.16321380445987,58.39276631067898L210.0729783846001,58.57370729948917L209.9406331021389,58.78778408936975L209.83836629296454,58.99803252311963L209.75414656776206,59.107075205565906L209.68496607920272,59.245350297321494L209.58269927002834,59.39339351421884L209.50148739215442,59.5102919940926L209.37816565167927,59.63695419462326L209.29394592647677,59.84550995744024L209.20671835394575,59.97223329583821L209.12550647607182,60.10092990246193L209.04128675086935,60.280365021459744L208.95105133100938,60.45399320591639L208.8277295905344,60.60619751836617L208.68936861341587,60.79942812028443L208.5720625675982,60.9653762586652L208.46378006376636,61.088398823210895L208.35850540726324,61.28567119748115L208.21412873548746,61.52012751586085L208.07576775836895,61.72729690747818L207.9464303232367,61.88173724714159L207.88928122399216,62.04794591897348L207.71181823160111,62.17311776326795L207.58849649112597,62.39222331591566L207.49525322393748,62.52332878033269L207.37193148346228,62.66033137057738L207.25462543764462,62.85609679433236L207.11927230785483,62.98924919478671L206.97489563607905,63.16943772774823L206.84555820094658,63.34575498044825L206.77036201773018,63.479002575855475L206.61996965129705,63.64951895737957L206.4575458955494,63.82595996469658L206.3071535291163,63.93969053131599L206.1958631779559,64.09266839655535L206.06051004816612,64.21232882199857L205.9311726130337,64.33593457059763L205.78980378858665,64.4733005691825L205.6875369794121,64.57732466940644L205.55819954427966,64.68332782381788L205.40780717784656,64.73633558774202L205.218312796141,64.7716763894218L205.05288119306454,64.83647262392932L204.91752806327483,64.94644398741596L204.8032298647857,65.09964801380158L204.7220179869119,65.23323866581143L204.58365700979346,65.39633343891279L204.4302567960318,65.56339880612822L204.23775456699747,65.74623509263077L204.09638574255024,65.889786279732L203.96103261276068,65.99599439133681L203.8316951776282,66.06484187410297L203.72642052112496,66.16124010657012L203.60309878064993,66.28716867264149L203.4557142615456,66.38359856848538L203.33239252107043,66.4721687437235L203.16094522333674,66.48594736889632L202.99551362026034,66.58437428518783L202.8902389637572,66.72416513309994L202.80601923855474,66.89352799926161L202.64058763547834,67.04717292228449L202.5323051316465,67.17326668134444L202.49921881103128,67.35653870021258L202.33077936062634,67.47283388262807L202.19542623083657,67.6187240207384L202.02397893310288,67.81986766010559L201.94577490255767,67.98161497963076L201.84952378804044,68.09604511530978L201.77733545215253,68.23812342692875L201.68409218496402,68.36838828129322L201.5697939864749,68.48288432266023L201.4404565513426,68.54606291403658L201.30209557422413,68.72575955686935L201.16072674977704,68.86994662653925L201.08853841388918,69.01811634320018L200.9922872993721,69.13469955903452L200.90806757416945,69.25920913911324L200.8268556962957,69.40153417659602L200.68548687184864,69.57157323218001L200.48095325349954,69.72187631896662L200.37868644432518,69.86825656483433L200.2613803985073,70.0245627978172L200.1350508107036,70.15319665529651L200.02676830687176,70.28581445140247L199.95758781831262,70.43231850984625L199.83125823050887,70.56499187246976L199.66883447476124,70.71749988592748L199.5214499556567,70.9195773209365L199.38910467319565,71.0325296964082L199.2447280014199,71.11973413246204L199.13945334491677,71.26642195524474L199.004100215127,71.33184724180805L198.88378632198058,71.47461570621385L198.76648027616272,71.62138197681753L198.67624485630293,71.75627692059066L198.55292311582778,71.85151341041669L198.3844836654228,72.02019495207404L198.26116192494766,72.11745442528118L198.15588726844456,72.31598750143183L197.98744781803958,72.41924825134768L197.84908684092107,72.56622405097272L197.7257651004461,72.68939110721448L197.57537273401303,72.90200764511721L197.4099411309366,73.08884879476193L197.19337612327294,73.27176586402422L196.97079542095213,73.39307582405459L196.802355970547,73.45075560617255L196.73919117664514,73.58403511162362L196.6188772834987,73.69943319104371L196.4684849170656,73.83873368946664L196.4143436651498,74.0119054386904L196.21281789412944,74.06963949314115L196.0323470544097,74.15525449709028L195.91804885592074,74.25880382691932L195.79773496277414,74.38627157377638L195.67140537497045,74.43208634136366L195.52702870319465,74.51774861734114L195.3856598787476,74.57154227443442L195.19917334437073,74.62334774344862L195.00667111533642,74.73693559389966L194.88936506951853,74.8764563765603L194.84123951226002,75.04990219579963L194.79010610767273,75.2154163259884L194.69987068781296,75.39094691827219L194.58256464199508,75.53060717365835L194.43518012289076,75.6403611672051L194.31185838241558,75.74614155101747L194.17048955796855,75.89186711546552L194.03513642817876,76.00168183889892L193.8787283670884,76.0715735581573L193.73735954264134,76.16144534386461L193.61102995483762,76.32124799530303L193.52681022963498,76.46710210863702L193.40348848915997,76.51705965408632L193.22903334409756,76.62697974458871L193.06059389369256,76.7489128265467L192.85906812267223,76.86087151027064L192.69664436692455,76.93285512562358L192.49812644323293,77.02884567511839L192.34773407679984,77.18486055439212L192.2665221989261,77.30289669752466L192.13417691646492,77.37693030898342L192.02589441263308,77.46698256560992L191.89956482482935,77.6010835233011L191.70405474846646,77.75523378987253L191.520576061418,77.87337373034879L191.37319154231366,77.96950346797863L191.21076778656598,78.05763492469683L191.06338326746163,78.19586522563196L190.90697520637127,78.21189383641337L190.84681825979794,78.40226394023628L190.65431603076365,78.50649024968669L190.55505706891785,78.61875275701797L190.44376671775746,78.69694709258019L190.31743712995353,78.76913487780965L190.1820840001638,78.83932518035758L190.00762885510153,78.97772269463027L189.80008738942388,79.11815629316058L189.68879703826346,79.20042445242126L189.57449883977435,79.29073085235058L189.40906723669792,79.39911522826651L189.2737141069082,79.56774937868036L189.05414125191595,79.63802663631813L188.8796861068535,79.73642768168017L188.7804271450077,79.86095668417386L188.65409755720395,80.01765643833699L188.51272873275693,80.07994514721781L188.37135990830987,80.11812508010411L188.2209675418768,80.20655047241922L188.01643392352787,80.35730361969479L187.83596308380817,80.41359386356254L187.64346085477382,80.45179362436937L187.50509987765534,80.51010290352167L187.36673890053703,80.60461539605515L187.25845639670518,80.69310779027401L187.1080640302721,80.80776381309389L186.97571874781107,80.84799885388674L186.8132949920634,80.87616488441239L186.61477706837178,80.93652483042703L186.38618067139353,80.99689045965619L186.20871767900252,81.09348729319848L186.00418406065344,81.21626678543686L185.77558766367517,81.34913668512189L185.6071482132702,81.47599277368465L185.41464598423588,81.53640927419733L185.27929285444614,81.64315903777117L185.12288479335575,81.73985344735507L184.89428839637748,81.81238385287978L184.68373908337128,81.87686223476692L184.4731897703649,81.87484718685707L184.27767969400202,81.8285028384989L184.13631086955496,81.81238385287978L183.99794989243648,81.81238385287978L183.83552613668883,81.8446222306575L183.6580631442978,81.85671204159408L183.51067862519346,81.8184284248484L183.30614500684436,81.72373669692641L183.12567416712483,81.64920201002755L182.92715624343322,81.57669011100609L182.74367755638474,81.52432551769641L182.54215178536455,81.46995143736959L182.35265740365878,81.4377319402038L182.1812101059251,81.41558197677952L182.02179419750615,81.40350050163019L181.7601114799127,81.40752763467523L181.48940522033317,81.41759557814242L181.29088729664156,81.43370461710833L181.14350277753704,81.4518277706178L180.96603978514605,81.48404797749467L180.7284198461819,81.53439529893129L180.5028312965322,81.63107326455426L180.33138399879851,81.72373669692641L180.2140779529808,81.8204432948747L180.09075621250565,81.89701306336136L179.97345016668794,81.97560736793L179.84110488422675,82.0723520965341L179.68168897580782,82.22959354981464L179.53731230403204,82.44132593534553L179.45910827348686,82.59058909056407L179.395943479585,82.78024405434999L179.33879438034043,82.99014089684533L179.33879438034043,83.23241560024096L179.45610042615812,83.30511600808191L179.5884457086193,83.44246168594847L179.70875960176573,83.51518612098428L179.7989950216255,83.65459789410002L179.80801856361154,83.81627305386843L179.54633584601808,83.85669827841056L179.40496702157083,83.9557509634474L179.21848048719397,83.96585924982168L179.03199395281695,83.94159963309554L178.85152311309724,83.90925492036482L178.6439816474196,83.87084771535959L178.4875735863292,83.83446408627344L178.3101105939382,83.84457044068157L178.15671038017658,83.8506343305761L177.97623954045685,83.82840035087446L177.83186286868124,83.75159804933239L177.6664312656048,83.68692963277047L177.44685841061258,83.57377574763345L177.28744250219347,83.50306480380272L177.14005798308915,83.4465017140077L176.97462638001272,83.41620212952563L176.83024970823692,83.37984453465981L176.6497788685174,83.35964676936604L176.52044143338492,83.34550871547239L176.21364100586146,83.34348901915354L176.02113877682714,83.35560729331308L175.88879349436596,83.37984453465981L175.68726772334577,83.41620212952563L175.50078118896874,83.45660189651772L175.32632604390648,83.53538883017785L175.16089444083008,83.63843264201361L175.10073749425678,83.78393472792771L175.07065902097014,84.00629400609714L174.98944714309638,84.23277629779196L174.82401554001996,84.35413939211037L174.74280366214623,84.47552573963614L174.61948192167108,84.59895904993493L174.52323080715382,84.73658521532028L174.59842699037046,84.98357781697149L174.4510424712659,85.14154170137951L174.27057163154635,85.08280692824513L174.06603801319744,85.05647931917642L173.8855671734777,84.99572748348044L173.73216695971593,85.02610267143703L173.59079813526884,84.98560274517394L173.46146070013657,84.92283298654877L173.30204479171744,84.88031507730977L173.15165242528437,84.90461067538374L173.0283306848092,84.99572748348044L172.89297755501946,84.96130403480902L172.76364011988716,84.912709415515L172.59820851681076,84.88233967483123L172.41172198243373,84.84994689224169L172.27636885264397,84.8013608288341L172.16207065415486,84.71836826888017L172.0116782877218,84.58074606449267L171.84624668464537,84.473502443196L171.69284647088372,84.37639181451235L171.51839132582148,84.3743688347221L171.28077138685717,84.35616230730366L171.0792456158368,84.273228080025L170.95592387536183,84.236821359831L170.7814687302994,84.18423756679042L170.57392726462174,84.08919331594257L170.40849566154532,84.0447094121999L170.270134684427,84.02044677975442L170.11372662333665,84.02449048737466L169.98739703553292,83.99618507538997L169.83700466909985,83.96585924982168L169.69864369198135,83.9557509634474L169.50012576828973,83.92138399441174L169.29559214994083,83.88297605527904L169.16926256213708,83.85467695602782L169.00082311173196,83.82031546045764L168.79027379872576,83.77787147522034L168.61581865366333,83.77585040385404L168.4443713559296,83.75766105110387L168.27893975285338,83.72734662124464L168.11952384443427,83.68490885087604L167.94206085204328,83.64853587634917L167.7014330657504,83.56973491024823L167.48186021075816,83.51922661143203L167.30439721836717,83.47680274312609L167.15099700460536,83.45660189651772L167.01564387481562,83.45660189651772L166.86525150838253,83.45660189651772L166.70884344729217,83.47680274312609L166.56145892818782,83.49094371784949L166.41106656175475,83.57377574763345L166.17043877546186,83.63641201443312L165.99899147772817,83.65661857954245L165.8365677219805,83.670763557671L165.68918320287597,83.73947221949359L165.56886930972954,83.83648534428056L165.46660250055518,84.06088501617083L165.48765743185578,84.3500935811015L165.3282415234367,84.37234586139192L165.1387471417311,84.35211648337639L164.9672998439974,84.35413939211037L164.83194671420765,84.3399791666111L164.62741309585874,84.277273400264L164.43190301949568,84.25097928028009L164.28451850039133,84.23075377645361L164.13412613395826,84.23075377645361L163.9386160575952,84.21052891802358L163.71302750794567,84.20648402377756ZM199.16652397087472,45.62212761682494L199.08831994032948,45.421496059329286L199.11238271895886,45.26294014879403L198.95597465786852,45.13688381750217L198.80859013876395,45.05094863656555L198.66421346698834,45.05667733806598L198.50479755856924,44.91347310319682L198.43862491733864,44.74357334111849L198.44764845932468,44.59088769780976L198.36944442877947,44.432509570446086L198.24311484097578,44.30277918792001L198.1137774058433,44.260812447478145L197.97541642872483,44.33139423481745L197.8250240622919,44.45349749893407L197.5934198179849,44.49165889022032L197.3768548103214,44.49165889022032L197.22345459655958,44.52218941689918L197.06704653546922,44.50119954480803L196.91063847437883,44.556537761788775L196.76626180260303,44.60997168327032L196.61586943616996,44.68058670168102L196.49856339035227,44.823745900394954L196.39629658117775,44.98984524680051L196.28500623001733,45.133064264117394L196.14664525289885,45.1578917137368L195.92406455057807,45.199909296711525L195.6774210696277,45.16744095476534L195.4789031459361,45.16744095476534L195.30444800087383,45.1884497191098L195.1149536191681,45.25911994416089L194.94049847410582,45.42531710356434L194.79010610767273,45.591551667419395L194.7028785351415,45.72915341837921L194.6156509626103,45.878250955594865L194.44119581754802,46.004433969042935L194.41111734426138,46.159324486109114L194.29681914577225,46.321898967418775L194.13740323735334,46.40224315011616L193.89677545106028,46.33337617051498L193.68923398538283,46.24730151114596L193.58395932887953,46.406069282511794L193.45762974107583,46.48068284386295L193.37942571053063,46.67777559823048L193.2200098021117,46.63376000985582L193.02449972574863,46.67777559823048L192.80191902342764,46.64141470533832L192.61844033637936,46.620364484679925L192.5733226264494,46.8213230206764L192.41992241268775,46.92278012930814L192.38683609207254,47.06446069968126L192.33570268748525,47.20616865230363L192.28757713022674,47.34024194284325L192.15222400043697,47.31725620724461L192.107106290507,47.51457392713223L191.95069822941662,47.637205916128124L192.061988580577,47.75985847110729L191.9476903820879,47.922788222133335L191.85444711489936,48.13752764124129L191.70706259579504,48.304377769534796L191.5536623820334,48.49236962658284L191.3942464736143,48.63435480774817L191.28295612245387,48.71879155502063L191.16565007663598,48.9049708136167L191.2709247331391,49.075837017645455L191.1536186873214,49.191050389936976L191.02428125218896,49.29091676320917L190.9280301376719,49.388875973729995L190.76560638192404,49.42153198215098L190.80470839719672,49.56369879302244L190.6452924887776,49.642478890229114L190.60017477884782,49.85003818961212L190.47685303837264,49.94038349697874L190.53099429028848,50.1403366068094L190.3806019238554,50.23071816508778L190.24524879406562,50.4134388007125L190.12794274824796,50.52886511859219L190.1038799696186,50.7135856147776L189.92942482455635,50.7135856147776L189.8030952367526,50.85215702451612L189.7549696794939,51.05043743278242L189.63164793901893,51.02540874210595L189.505318351215,51.108199268339405L189.33988674813878,51.18137091001199L189.14437667177572,51.2892163576513L188.87667825952494,51.2738088759549L188.71124665644854,51.373963403509094L188.55183074802943,51.531927723294416L188.37135990830987,51.59165498149446L188.25706170982073,51.774721046315676L188.07358302277245,51.664875810848315L188.07959871742975,51.813267215380506L188.03448100749978,51.97325593383192L188.17885767927555,52.127495690984716L188.30819511440802,52.28755450786761L188.47061887015568,52.42642966951229L188.5909327633021,52.657948133524144L188.67214464117603,52.85286757794847L188.7503486717212,53.04590949564249L188.83156054959497,53.239003592912354L188.90976458014015,53.43408166854786L188.99398430534265,53.63887447928025L189.07820403054512,53.84565900855662L189.15941590841902,54.038969887747726L189.24664348095024,54.253606501206974L189.32785535882402,54.439290452457016L189.54141251915894,54.59793394834307L189.6767656489487,54.741130478281406L189.80610308408117,55.000505914345325L189.86325218332576,55.205750782401054L189.97153468715757,55.44204969718433L190.17005261084918,55.43236376409942L190.37157838186954,55.469171015649096L190.26630372536644,55.74237947131343L190.1911075421498,56.01181611611739L190.1911075421498,56.22511231770167L190.26931157269502,56.40355508236368L190.31743712995353,56.58786408960313L190.32646067193957,56.77416223659176L190.4588059544006,56.77416223659176L190.58814338953306,56.71011668369849L190.80470839719672,56.68876946189661L190.85884964911253,56.9022708447896L190.95810861095833,57.0362275423102L191.08744604609083,57.16244200426547L191.22279917588057,57.16826783482344L191.3220581377264,57.2614876995863L191.4213170995722,57.47516327663439L191.59577224463462,57.63643432073161L191.70405474846646,57.79385510844554L191.76120384771104,57.99213904783929L191.94468253475935,58.11852577635494L192.09808274852097,58.231320912856575L192.20937309968156,58.348024693119896L192.3447262294713,58.49976875734072L192.47105581727502,58.661276229533485L192.63047172569395,58.76637345407991L192.7658248554837,58.822821092279895L192.96434277917535,58.81503493950518L193.12375868759443,58.809195381975L193.2651275120415,58.807248873664804L193.412512031146,58.820874545935794L193.60200641285158,58.935730079657645L193.82157926784384,59.05255173093022L194.0291207335215,59.093443936803624L194.2938112984437,59.11486462177757L194.47728998549198,59.12460151454937L194.64572943589695,59.12460151454937L194.80213749698734,59.22782094887657L194.85928659623187,59.03502723460264L194.82319242828794,58.83060733199346L194.89538076417585,58.667114548914384L195.05178882526621,58.56008645331198L195.11194577183952,58.414165488602634L195.14503209245476,58.21965160653588L195.2081968863566,58.00186029327523L195.13600855046872,57.80746103510654L195.18714195505598,57.603399880245206L195.34655786347508,57.51596328793022L195.48792668792214,57.48487734969879L195.63831905435524,57.36054737481598L195.75261725284435,57.17603568409976L195.782695726131,57.00904585724979L195.6954681535998,56.81298056198966L195.56011502381,56.644136454805476L195.42776974134884,56.510254416168266L195.52702870319465,56.335663921748534L195.73757801620104,56.223172970658936L195.93008024523533,56.230930390846L196.07445691701113,56.12621242029368L196.2428963674161,55.98273526760474L196.31809255063254,55.74819356513751L196.44141429110772,55.59898030294849L196.56774387891141,55.46335921697823L196.69708131404388,55.453672992009956L196.8805600010922,55.509854944010954L197.08509361944127,55.476920154852706L197.2565409171748,55.43236376409942L197.47912161949577,55.29290103252495L197.68064739051613,55.29290103252495L197.89721239817965,55.34907021482084L198.05061261194146,55.33938555489746L198.21002852036037,55.381999050329455L198.41456213870947,55.300648240845504L198.67022916164564,55.20187768700342L198.8777706273233,55.16121146463908L199.0221472990989,55.15152937502697L199.15449258156013,55.09537586588851L199.32293203196505,55.05858804986639L199.47934009305544,54.95791537446783L199.66883447476124,54.86693506853021L199.83125823050887,54.79144963597125L199.98766629159928,54.66952860050773L200.14106650536087,54.62502296719984L200.2523568565215,54.55536757910687L200.3516158183673,54.43348709421892L200.50501603212894,54.33483725836044L200.67947117719137,54.23233331335669L200.8058007649951,54.1433796067472L200.93513820012754,54.1221097170141L201.0524442459452,53.93070932626688L201.29908772689558,53.781877937539605L201.28104064292347,53.5731798097454L201.16373459710582,53.43214994095976L201.010334383344,53.308530255198946L201.10357765053251,53.12314086901591L201.1095933451898,52.8837507812444L201.13365612381915,52.72355864954196L201.19982876504957,52.53253300511423L201.24494647497957,52.35313109091936L201.32315050552475,52.13713677706815L201.4524879406572,52.04265972100012L201.60889600174758,51.93662886325481L201.7683119101667,51.844105640328166L201.9728455285156,51.83061366645657L202.10218296364806,51.664875810848315L202.1112065056339,51.48569067258825L202.23152039878053,51.416340669727106L202.25859102473842,51.22181105976418L202.1833948415218,50.95225293776977L202.1713634522072,50.77132046722792L202.3097244293257,50.67894692064246L202.43003832247214,50.600053878396636L202.57441499424777,50.58658519628651L202.68269749807962,50.503854517670106L202.7969956965687,50.37689097778744L202.90527820040055,50.163411675632716L203.01656855156094,50.0365079041531L203.0857490401201,49.9115486635628L203.05867841416222,49.76739171519313L203.1128196660782,49.60981293308373L203.04664702484763,49.425373962111536L203.02559209354698,49.24482288440328L202.94438021567305,49.08735753281388L202.8721918797852,48.88769444396189L202.6857053454083,48.71879155502063L202.50523450568858,48.66889592978913L202.4601167957586,48.407959121671155L202.49921881103128,48.19122236869083L202.37890491788485,48.01481166805533L202.25257533008113,47.85952882782058L202.0570652537181,47.826942792472124L201.86155517735503,47.853778245395205L201.72620204756527,47.692780305864886L201.63897447503425,47.52990180167214L201.5667861391463,47.39387813188796L201.42842516202785,47.334495441308974L201.25096216963686,47.22723568735887L201.10357765053251,47.102757444951465L201.0223657726586,46.96106947671629L200.91408326882691,46.8672641246001L200.787753681023,46.79452537123768L200.70353395582055,46.68160316534946L200.55614943671617,46.620364484679925L200.43884339089828,46.49981574607256L200.32153734508063,46.58400643316074L200.18919206261944,46.62227811617956L200.07188601680173,46.41563470059583L199.97864274961324,46.224349969033426L199.96059566564134,46.03502704510939L199.85532100913804,45.9489872564819L199.95758781831262,45.822813734966815L199.81020329920824,45.6374160665961L199.57258336024398,45.63359392445861L199.38008113120964,45.55906610900516Z"></path></g></svg>
