<?xml version="1.0" encoding="UTF-8" standalone="no"?>
<!-- Created with Inkscape (http://www.inkscape.org/) -->

<svg
   xmlns:dc="http://purl.org/dc/elements/1.1/"
   xmlns:cc="http://creativecommons.org/ns#"
   xmlns:rdf="http://www.w3.org/1999/02/22-rdf-syntax-ns#"
   xmlns:svg="http://www.w3.org/2000/svg"
   xmlns="http://www.w3.org/2000/svg"
   version="1.0"
   width="1024"
   height="1024"
   viewBox="0 0 496.05518 694.48682"
   id="svg2"
   xml:space="preserve"><metadata
   id="metadata22"><rdf:RDF><cc:Work
       rdf:about=""><dc:format>image/svg+xml</dc:format><dc:type
         rdf:resource="http://purl.org/dc/dcmitype/StillImage" /><dc:title></dc:title></cc:Work></rdf:RDF></metadata><defs
   id="defs38" />
	
		<g
   id="São_Tomé_and_Príncipe">
			<rect
   width="496.05518"
   height="694.48682"
   x="0"
   y="0"
   id="rect7"
   style="fill:none;fill-rule:evenodd" /> 
			
			<path
   d="m 142.84668,560.45264 c 0,0 0.25,1.25 0.75,2.25 0.5,1 1,1.75 2,2 1,0.25 1.75,0 2.5,1 0.75,1 2.25,1.25 3.25,1.75 1,0.5 3,1.75 3,3.25 0,1.5 1,2.5 1,2.5 l 3.59553,1.78908 0.52475,-0.45945 1.81396,0.44238 0.52197,-0.83887 -0.99414,-1.81494 0.37061,-0.91357 2.34033,0.13476 0.59863,-0.68701 -0.1665,-2.125 0.74951,-0.96875 2.91309,-3.76465 1.0415,-2.05762 1.27881,-0.54003 2.18799,-0.0918 1.57715,-0.99805 4.2666,-4.81396 1.26269,-2.74219 2.24756,-2.21777 1.49365,-2.13672 0.59131,-1.75049 -1.23096,-3.18018 0.73584,-2.58691 1.49854,-1.5293 -1.53272,-3.17773 0.96045,-2.81641 0.9751,-0.84228 2.1875,-0.16748 0.271,-0.39161 0.625,-0.90576 -0.2334,-0.98535 -0.63951,-0.56153 -0.83184,0.19919 -2.5,0.5 c 0,0 -2.25,0.75 -3.5,1.25 -1.25,0.5 -3,0.5 -4.5,0.5 -1.5,0 -2.25,0.25 -3.75,0.75 -1.5,0.5 -2.5,2.75 -3.5,3.5 -1,0.75 -2.25,1 -3.5,0.25 -1.25,-0.75 -3,-0.5 -4,-0.5 -1,0 -2,0 -3.25,1 -1.25,1 -1.25,3 -1.25,4.5 0,1.5 0.25,2.75 1.25,4.25 1,1.5 0,2.25 0,2.25 0,0 -2,0 -3,0 -1,0 -1.75,0 -3,-1.25 -1.25,-1.25 -2.75,-1 -4.25,0 -1.5,1 -4.5,1 -4.5,1 z"
   id="Cantagalo"
   style="fill-opacity:1;stroke:none" /><polygon
   points="109.99951,628.34717 109.50732,628.93311 110.39453,629.86084 109.29639,632.04004 108.00879,632.31885 106.78955,632.97852 106.57959,632.13965 106.36768,631.37646 105.32422,630.74951 105.04736,629.4541 107.70508,628.34717 107.70508,628.34717 "
   id="polygon11"
   style="fill-rule:evenodd;stroke:none;stroke-width:0;stroke-linejoin:round;stroke-miterlimit:3.8636899" />
			<polygon
   points="411.77246,66.89941 413.13428,67.04297 415.72217,69.76367 418.37305,70.5835 418.8335,71.56885 418.55322,75.06787 417.84277,75.20215 417.72266,75.2251 416.12695,73.94263 414.61328,73.72412 413.61377,74.26416 413.33301,74.41602 411.9917,77.46558 408.82422,78.62598 408.00586,80.68359 405.14893,83.05835 405.22803,83.58984 405.6084,83.96753 408.92871,83.1106 410.2041,81.58203 410.96045,81.65332 412.18555,84.00244 415.50879,83.52539 415.81592,84.28394 415.37939,86.94727 416.88818,86.48169 418.0293,87.53906 416.46533,91.19775 414.89111,93.26025 414.13672,93.49316 412.77148,92.99292 411.48438,92.52148 406.89697,96.19922 406.15039,97.57251 406.15967,99.01685 407.53809,101.74463 406.89453,107.45044 405.7041,110.34644 406.54297,111.55762 406.24756,112.62378 405.72168,113.08301 404.51172,112.93848 402.45898,111.20312 399.1543,114.41699 398.70898,115.71191 399.72363,120.57056 398.89941,121.71631 397.99268,121.72192 397.68311,120.65967 397.97412,118.90942 397.13623,117.92651 392.37939,118.71655 391.43457,117.19043 390.31689,115.38501 386.76172,115.02759 383.94629,111.37427 383.78857,111.16943 382.34766,110.41846 381.06592,110.95898 380.09814,113.16943 378.43506,113.18018 377.2124,111.13574 377.70996,106.34326 376.02002,102.24878 376.37988,99.58594 374.64014,99.36914 374.09521,97.01562 374.76465,95.33911 376.34473,94.18848 378.10986,94.43945 379.53369,96.3728 380.37061,96.30591 382.63184,96.125 384.66602,95.12378 385.17969,92.76392 386.75488,90.9292 387.34863,89.25293 386.34521,86.06641 386.56006,84.24048 388.66064,81.79419 387.13135,79.14331 387.27051,77.31787 386.49951,75.04199 387.46973,73.05908 387.45361,70.62622 388.13086,70.16602 391.61523,71.20825 393.96143,70.37378 395.2251,68.29639 395.28564,66.01489 396.2666,65.70483 398.85107,67.81714 403.61035,67.33105 405.6626,68.99048 408.91602,69.42627 409.40723,68.99219 409.40723,68.99219 "
   id="polygon13"
   style="fill-opacity:1;fill-rule:evenodd;stroke:none;stroke-width:0;stroke-linejoin:round;stroke-miterlimit:3.8636899" />
			<polygon
   points="353.3125,165.63989 352.24512,164.20264 352.15723,162.37891 352.98389,161.68945 354.3418,161.30078 355.93506,162.27832 356.55371,164.40283 356.18457,165.69727 355.13086,166.31201 355.13086,166.31201 "
   id="polygon15"
   style="fill-opacity:1;fill-rule:evenodd;stroke:none;stroke-width:0;stroke-linejoin:round;stroke-miterlimit:3.8636899" />
			<polygon
   points="355.06006,178.39795 354.52148,176.95728 354.73828,175.43579 356.24316,174.43799 357.30273,174.65918 358.29443,176.09692 358.45654,177.76782 357.78369,178.83643 356.50098,179.07275 356.50098,179.07275 "
   id="polygon17"
   style="fill-opacity:1;fill-rule:evenodd;stroke:none;stroke-width:0;stroke-linejoin:round;stroke-miterlimit:3.8636899" />
			<path
   d="m 407.59668,124.95264 c -0.5,1 0.5,3.5 1.5,2.75 1,-0.75 -1,-3.75 -1.5,-2.75 z"
   id="path19"
   style="fill-opacity:1;fill-rule:evenodd;stroke:none;stroke-width:0;stroke-linejoin:round;stroke-miterlimit:3.8636899" />
			<path
   d="m 399.59668,64.70264 c -1.25,0 -1.25,1.5 -0.25,1.75 1,0.25 1.5,-1.75 0.25,-1.75 z"
   id="path21"
   style="fill-rule:evenodd;stroke:none;stroke-width:0;stroke-linejoin:round;stroke-miterlimit:3.8636899" />
			<path
   d="m 169.84668,494.45264 c 1,1.25 3.25,-1 2.75,-2.5 -0.5,-1.5 -3.75,1.25 -2.75,2.5 z"
   id="path23"
   style="fill-rule:evenodd;stroke:none;stroke-width:0;stroke-linejoin:round;stroke-miterlimit:3.8636899" />
			
			
			
			
			
			<line
   style="fill:none;stroke:#646464;stroke-width:1.13390005;stroke-linejoin:round;stroke-miterlimit:3.8636899"
   x1="247.68652"
   y1="294.70557"
   x2="298.2002"
   y2="320.44385"
   id="line35" />
		<path
   d="m 129.84668,543.95264 c 0,0 1.75,0.75 2.75,0.75 1,0 3.25,0.75 4.5,0.75 1.25,0 2,-0.25 3,0.5 1,0.75 3,1.75 3,1.75 l -0.25,12.75 c 0,0 0.25,1.25 0.75,2.25 0.5,1 1,1.75 2,2 1,0.25 1.75,0 2.5,1 0.75,1 2.25,1.25 3.25,1.75 1,0.5 3,1.75 3,3.25 0,1.5 1,2.5 1,2.5 l 3.59553,1.78908 0.0896,1.97316 -0.82715,0.38526 -1.8584,3.80957 -2.18262,0.7749 -1.79736,1.83496 -2.25879,0.62402 -0.0615,1.89795 1.66504,0.67139 0.0229,0.16162 0.21582,1.50684 -0.0503,3.4165 -0.82129,1.14453 -3.70507,-1.03564 -1.04444,1.60156 -2.41113,0.71973 -0.97705,0.29199 -1.94824,1.83594 -2.45899,4.11718 -1.58349,0.16358 -1.36426,-0.82568 -0.97901,0.23535 -1.11963,1.60205 -2.63183,1.23388 -2.28223,-2.72753 -0.30615,-0.36573 -2.41602,-0.21045 -1.27783,0.69287 -1.04541,1.4502 -0.58594,2.35742 0.78418,3.94141 -0.21435,1.5957 -2.31983,2.52246 -0.80322,3.57373 -2.71142,0.62696 -1.43897,-0.74854 -0.39404,-2.19873 -0.76367,-1.2085 -0.83106,-0.14599 -1.12451,0.91943 -0.12549,3.41651 -1.7124,1.08935 -3.84375,2.44385 4.1e-4,-4e-5 -1.74121,-0.7461 -0.46582,-1.74267 0.041,-3.03467 0.007,-0.5332 -1.3042,-2.875 0.36816,-1.1416 1.72852,-0.92334 0.57519,-3.79981 -0.58496,-7.43506 0.80908,-2.73925 -0.61767,-1.89307 -1.44092,-0.97608 -2.56592,-0.0571 -3.10888,-1.95069 0.66015,-2.50976 -0.38703,-1.2881 c 0,0 2.68083,-2.5586 4.68083,-3.8086 2,-1.25 4,-3 5,-4.25 1,-1.25 2.25,-5.5 3.75,-6.5 1.5,-1 3.5,-5 4.25,-6.5 0.75,-1.5 2,-2 2,-3.75 0,-1.75 -0.75,-6.5 0.25,-8.25 1,-1.75 1.25,-3.5 0.75,-5.25 -0.5,-1.75 -0.75,-3 -1,-4 -0.25,-1 0.5,-2.5 2,-3.25 1.5,-0.75 4,-1 4,-1 l 2.5,-0.5 c 0.25,1 2.25,4.5 2.25,4.5 z"
   id="Caue"
   style="fill-opacity:1;stroke:none" /><path
   d="m 167.09668,501.45264 c 0,0 -0.25,2.5 0.5,3.75 0.75,1.25 1.25,3.5 2,4.75 0.75,1.25 0.5,1.5 -0.5,2.75 -1,1.25 -0.25,3.25 0.25,4.5 0.5,1.25 0.25,2.5 -0.25,3.75 -0.5,1.25 -0.0318,1.8705 -0.0318,1.8705 0.46042,0.2025 1.40678,0.44216 1.78178,0.62966 1.5,0.75 3.5,1 5,1 1.5,0 4.25,0.5 4.25,0.5 l 4.0537,0.2426 -0.23128,-1.93608 -2.19482,-0.81983 -0.69141,-1.66552 0.58203,-2.96582 0.041,-4.7837 -0.60986,-0.83105 -1.20703,0.16016 -0.97168,1.29834 -1.20362,0.53955 -1.28808,-0.67383 -0.69043,-1.51367 0.80468,-2.37696 0.30372,-0.89648 -0.917,-1.51221 -2.78515,1.00684 -1.21778,-1.35791 0.29444,-1.06494 2.61474,-3.66407 -0.0244,-0.13134 -0.13281,-0.70264 -1.89307,-0.82178 -3.55225,-0.65771 -1.82502,-1.88528 z"
   id="Agua Grande"
   style="fill-opacity:1;stroke:none" /><path
   d="m 133.34668,507.70264 c 0.75,1.25 1,4 -0.5,4.75 -1.5,0.75 -2.5,2.5 -2.5,2.5 0,0 -0.5,0.75 0,1.75 0.5,1 0.75,1.75 0.75,2.75 0,0.51723 0.26753,1.50263 0.31873,2.71865 0,0 4.68127,1.03135 5.93127,0.53135 1.25,-0.5 2.5,-0.25 3.25,-1.5 0.75,-1.25 0.75,-1.75 1.75,-2.25 1,-0.5 3,-3.25 3,-3.25 0,0 1.25,-1 3,-1 1.75,0 2.75,0 4,-0.5 1.25,-0.5 2,-1.25 2.25,0.25 0.25,1.5 0.5,2.75 0.5,2.75 0,0 0,0.75 1.25,0.75 1.25,0 3.25,0 3.25,0 0,0 0,1.25 1,2 1,0.75 2.75,0.5 2.75,0.5 0,0 2.25,-0.75 2.25,0.25 0,1 0.75,2.25 0.75,2.25 1.08258,-0.0945 1.69128,-0.11946 2.71822,-0.1295 0,0 -0.46822,-0.6205 0.0318,-1.8705 0.5,-1.25 0.75,-2.5 0.25,-3.75 -0.5,-1.25 -1.25,-3.25 -0.25,-4.5 1,-1.25 1.25,-1.5 0.5,-2.75 -0.75,-1.25 -1.25,-3.5 -2,-4.75 -0.75,-1.25 -0.5,-3.75 -0.5,-3.75 l 0.25862,-3.51317 -1.19841,-2.63328 -0.49024,-1.07617 -1.36426,-0.82519 -3.54834,-0.0508 -3.56494,-2.32812 -1.81299,-0.21484 -2.10742,0.85058 -3.32031,0.1001 -3.31201,1.31494 -1.20899,-0.21924 -1.36816,-1.28076 -0.35449,0.062 -1.00244,0.17578 -0.89795,1.06983 -3.02246,-0.43408 -2.32178,2.44726 -1.44873,2.2749 -0.64014,1.00586 -4.32456,4.1394 c 0,0 2.55,4.135 3.3,5.385 z"
   id="Lobata"
   style="fill-opacity:1;stroke:none" /><path
   d="m 98.95278,585.14846 -2.20117,-1.65381 0.51758,-1.44629 -0.23389,-0.98535 -1.73388,-1.2876 -0.39112,-0.29053 0.04639,-3.79638 -0.94971,-5.83887 -2.25244,-3.73779 -2.02783,-3.3667 0.80859,-2.81543 -1.15576,-3.10401 0.80811,-2.89111 -0.62403,-2.65283 0.51368,-1.90186 -0.625,-2.80468 1.41552,-2.36426 0.27393,-3.64649 0.88672,-2.5122 1.65527,-0.6958 1.94727,-1.91309 1.55908,-3.42822 1.60205,-7.60498 0.96973,-1.60205 3.75537,-2.38184 2.24609,-2.37061 2.93604,-1.0083 2.16845,-2.67431 3.60352,-2.60791 4.57715,-3.52686 2.56885,0.28467 1.8081,-0.39258 1.57129,-1.83447 1.45508,-1.26026 3.59487,-2.71802 c 0,0 2.55,4.135 3.3,5.385 0.75,1.25 1,4 -0.5,4.75 -1.5,0.75 -2.5,2.5 -2.5,2.5 0,0 -0.5,0.75 0,1.75 0.5,1 0.75,1.75 0.75,2.75 0,0.51723 0.26753,1.50263 0.38746,2.43731 0.11195,0.8724 0.0953,1.70061 -0.38746,2.06269 -1,0.75 -1,2.5 -1,3.5 0,1 0,6 0,6 l -1.75,3.5 c 0,0 -1,1.5 -0.75,2.5 l -2.5,0.5 c 0,0 -2.5,0.25 -4,1 -1.5,0.75 -2.25,2.25 -2,3.25 0.25,1 0.5,2.25 1,4 0.5,1.75 0.25,3.5 -0.75,5.25 -1,1.75 -0.25,6.5 -0.25,8.25 0,1.75 -1.25,2.25 -2,3.75 -0.75,1.5 -2.75,5.5 -4.25,6.5 -1.5,1 -2.75,5.25 -3.75,6.5 -1,1.25 -3,3 -5,4.25 -2,1.25 -4.68083,3.8086 -4.68083,3.8086 z"
   id="Lemba"
   style="fill-rule:evenodd;stroke:none" /><path
   d="m 183.84668,530.20264 c 0,0 -2.25,0.75 -3.5,1.25 -1.25,0.5 -3,0.5 -4.5,0.5 -1.5,0 -2.25,0.25 -3.75,0.75 -1.5,0.5 -2.5,2.75 -3.5,3.5 -1,0.75 -2.25,1 -3.5,0.25 -1.25,-0.75 -3,-0.5 -4,-0.5 -1,0 -2,0 -3.25,1 -1.25,1 -1.25,3 -1.25,4.5 0,1.5 0.25,2.75 1.25,4.25 1,1.5 0,2.25 0,2.25 0,0 -2,0 -3,0 -1,0 -1.75,0 -3,-1.25 -1.25,-1.25 -2.75,-1 -4.25,0 -1.5,1 -4.5,1 -4.5,1 0,0 -2,-1 -3,-1.75 -1,-0.75 -1.75,-0.5 -3,-0.5 -1.25,0 -3.5,-0.75 -4.5,-0.75 -1,0 -2.75,-0.75 -2.75,-0.75 0,0 -2,-3.5 -2.25,-4.5 -0.25,-1 0.75,-2.5 0.75,-2.5 l 1.75,-3.5 c 0,0 0,-5 0,-6 0,-1 0,-2.75 1,-3.5 0.48276,-0.36208 0.49941,-1.19029 0.31873,-1.78135 0,0 4.68127,1.03135 5.93127,0.53135 1.25,-0.5 2.5,-0.25 3.25,-1.5 0.75,-1.25 0.75,-1.75 1.75,-2.25 1,-0.5 3,-3.25 3,-3.25 0,0 1.25,-1 3,-1 1.75,0 2.75,0 4,-0.5 1.25,-0.5 2,-1.25 2.25,0.25 0.25,1.5 0.5,2.75 0.5,2.75 0,0 0,0.75 1.25,0.75 1.25,0 3.25,0 3.25,0 0,0 0,1.25 1,2 1,0.75 2.75,0.5 2.75,0.5 0,0 2.25,-0.75 2.25,0.25 0,1 0.75,2.25 0.75,2.25 1.08258,-0.0945 1.69128,-0.11946 2.68645,-0.009 0.49219,0.082 1.43855,0.32166 1.81355,0.50916 1.5,0.75 3.5,1 5,1 1.5,0 4.25,0.5 4.25,0.5 l 4.0537,0.2426 1.00896,2.53511 1.60326,1.87253 z"
   id="Me-Zochi"
   style="fill-opacity:1;stroke:none" /><path
   d="m 143.09668,547.70264 -0.25,12.75 c 0,0 0.25,1.25 0.75,2.25 0.5,1 1,1.75 2,2 1,0.25 1.75,0 2.5,1 0.75,1 2.25,1.25 3.25,1.75 1,0.5 3,1.75 3,3.25 0,1.5 1,2.5 1,2.5 l 3.5957,1.78906"
   id="path33"
   style="fill:none;stroke:#646464;stroke-width:1.13390005;stroke-linejoin:round;stroke-miterlimit:3.8636899" /><path
   d="m 169.09668,522.70264 c 0,0 -0.5,-0.5 0,-1.75 0.5,-1.25 0.75,-2.5 0.25,-3.75 -0.5,-1.25 -1.25,-3.25 -0.25,-4.5 1,-1.25 1.25,-1.5 0.5,-2.75 -0.75,-1.25 -1.25,-3.5 -2,-4.75 -0.75,-1.25 -0.5,-3.75 -0.5,-3.75 l 0.25879,-3.51318"
   id="path31"
   style="fill:none;stroke:#646464;stroke-width:1.13390005;stroke-linejoin:round;stroke-miterlimit:3.8636899" /><path
   d="m 130.34668,502.45264 c 0,0 2.25,4 3,5.25 0.75,1.25 1,4 -0.5,4.75 -1.5,0.75 -2.5,2.5 -2.5,2.5 0,0 -0.5,0.75 0,1.75 0.5,1 0.75,1.75 0.75,2.75 0,1 1,3.75 0,4.5 -1,0.75 -1,2.5 -1,3.5 0,1 0,6 0,6 l -1.75,3.5 c 0,0 -1,1.5 -0.75,2.5 0.25,1 2.25,4.5 2.25,4.5 0,0 1.75,0.75 2.75,0.75 1,0 3.25,0.75 4.5,0.75 1.25,0 2,-0.25 3,0.5 1,0.75 3,1.75 3,1.75 0,0 3,0 4.5,-1 1.5,-1 3,-1.25 4.25,0 1.25,1.25 2,1.25 3,1.25 1,0 3,0 3,0 0,0 1,-0.75 0,-2.25 -1,-1.5 -1.25,-2.75 -1.25,-4.25 0,-1.5 0,-3.5 1.25,-4.5 1.25,-1 2.25,-1 3.25,-1 1,0 2.75,-0.25 4,0.5 1.25,0.75 2.5,0.5 3.5,-0.25 1,-0.75 2,-3 3.5,-3.5 1.5,-0.5 2.25,-0.75 3.75,-0.75 1.5,0 3.25,0 4.5,-0.5 1.25,-0.5 3.5,-1.25 3.5,-1.25 l 2.5,-0.5"
   id="path27"
   style="fill:none;stroke:#646464;stroke-width:1.13390005;stroke-linejoin:round;stroke-miterlimit:3.8636899" /><path
   d="m 131.34668,522.45264 c 0,0 4.75,0.75 6,0.25 1.25,-0.5 2.5,-0.25 3.25,-1.5 0.75,-1.25 0.75,-1.75 1.75,-2.25 1,-0.5 3,-3.25 3,-3.25 0,0 1.25,-1 3,-1 1.75,0 2.75,0 4,-0.5 1.25,-0.5 2,-1.25 2.25,0.25 0.25,1.5 0.5,2.75 0.5,2.75 0,0 0,0.75 1.25,0.75 1.25,0 3.25,0 3.25,0 0,0 0,1.25 1,2 1,0.75 2.75,0.5 2.75,0.5 0,0 2.25,-0.75 2.25,0.25 0,1 0.75,2.25 0.75,2.25 0,0 3,-0.25 4.5,0.5 1.5,0.75 3.5,1 5,1 1.5,0 4.25,0.5 4.25,0.5 l 3.75,0.25"
   id="path29"
   style="fill:none;stroke:#646464;stroke-width:1.13390005;stroke-linejoin:round;stroke-miterlimit:3.8636899" /><path
   d="m 99.41602,586.51123 c 0,0 2.68066,-2.55859 4.68066,-3.80859 2,-1.25 4,-3 5,-4.25 1,-1.25 2.25,-5.5 3.75,-6.5 1.5,-1 3.5,-5 4.25,-6.5 0.75,-1.5 2,-2 2,-3.75 0,-1.75 -0.75,-6.5 0.25,-8.25 1,-1.75 1.25,-3.5 0.75,-5.25 -0.5,-1.75 -0.75,-3 -1,-4 -0.25,-1 0.5,-2.5 2,-3.25 1.5,-0.75 4,-1 4,-1 l 2.5,-0.5"
   id="path25"
   style="fill:none;stroke:#646464;stroke-width:1.13390005;stroke-linejoin:round;stroke-miterlimit:3.8636899" /><path
   d="m 107.44336,620.15674 -1.74121,-0.7461 -0.46582,-1.74267 0.041,-3.03467 0.007,-0.5332 -1.3042,-2.875 0.36816,-1.1416 1.72852,-0.92334 0.57519,-3.79981 -0.58496,-7.43506 0.80908,-2.73925 -0.61767,-1.89307 -1.44092,-0.97608 -2.56592,-0.0571 -3.10888,-1.95069 0.66015,-2.50976 -0.3872,-1.28809 -0.4629,-1.36279 -2.20117,-1.65381 0.51758,-1.44629 -0.23389,-0.98535 -1.73388,-1.2876 -0.39112,-0.29053 0.04639,-3.79638 -0.94971,-5.83887 -2.25244,-3.73779 -2.02783,-3.3667 0.80859,-2.81543 -1.15576,-3.10401 0.80811,-2.89111 -0.62403,-2.65283 0.51368,-1.90186 -0.625,-2.80468 1.41552,-2.36426 0.27393,-3.64649 0.88672,-2.5122 1.65527,-0.6958 1.94727,-1.91309 1.55908,-3.42822 1.60205,-7.60498 0.96973,-1.60205 3.75537,-2.38184 2.24609,-2.37061 2.93604,-1.0083 2.16845,-2.67431 3.60352,-2.60791 4.57715,-3.52686 2.56885,0.28467 1.8081,-0.39258 1.57129,-1.83447 1.45508,-1.26026 7.91943,-6.85742 0.64014,-1.00586 1.44873,-2.2749 2.32178,-2.44726 3.02246,0.43408 0.89795,-1.06983 1.00244,-0.17578 0.35449,-0.062 1.36816,1.28076 1.20899,0.21924 3.31201,-1.31494 3.32031,-0.1001 2.10742,-0.85058 1.81299,0.21484 3.56494,2.32812 3.54834,0.0508 1.36426,0.82519 0.49024,1.07617 1.19824,2.6333 1.82519,1.88526 3.55225,0.65771 1.89307,0.82178 0.13281,0.70264 0.0244,0.13134 -2.61474,3.66407 -0.29444,1.06494 1.21778,1.35791 2.78515,-1.00684 0.917,1.51221 -0.30372,0.89648 -0.80468,2.37696 0.69043,1.51367 1.28808,0.67383 1.20362,-0.53955 0.97168,-1.29834 1.20703,-0.16016 0.60986,0.83105 -0.041,4.7837 -0.58203,2.96582 0.69141,1.66552 2.19482,0.81983 1.24024,4.47119 2.65869,2.33447 0.2334,0.98535 -0.625,0.90576 -0.271,0.39161 -2.1875,0.16748 -0.9751,0.84228 -0.96045,2.81641 1.53272,3.17773 -1.49854,1.5293 -0.73584,2.58691 1.23096,3.18018 -0.59131,1.75049 -1.49365,2.13672 -2.24756,2.21777 -1.26269,2.74219 -4.2666,4.81396 -1.57715,0.99805 -2.18799,0.0918 -1.27881,0.54003 -1.0415,2.05762 -2.91309,3.76465 -0.74951,0.96875 0.1665,2.125 -0.59863,0.68701 -2.34033,-0.13476 -0.37061,0.91357 0.99414,1.81494 -0.52197,0.83887 -1.81396,-0.44238 -0.52491,0.45947 0.0898,1.97314 -0.82715,0.38526 -1.8584,3.80957 -2.18262,0.7749 -1.79736,1.83496 -2.25879,0.62402 -0.0615,1.89795 1.66504,0.67139 0.0229,0.16162 0.21582,1.50684 -0.0503,3.4165 -0.82129,1.14453 -3.70507,-1.03564 -1.04444,1.60156 -2.41113,0.71973 -0.97705,0.29199 -1.94824,1.83594 -2.45899,4.11718 -1.58349,0.16358 -1.36426,-0.82568 -0.97901,0.23535 -1.11963,1.60205 -2.63183,1.23388 -2.28223,-2.72753 -0.30615,-0.36573 -2.41602,-0.21045 -1.27783,0.69287 -1.04541,1.4502 -0.58594,2.35742 0.78418,3.94141 -0.21435,1.5957 -2.31983,2.52246 -0.80322,3.57373 -2.71142,0.62696 -1.43897,-0.74854 -0.39404,-2.19873 -0.76367,-1.2085 -0.83106,-0.14599 -1.12451,0.91943 -0.12549,3.41651 -1.7124,1.08935 -3.84375,2.44385 z"
   id="path3000"
   style="fill:none;stroke:none;stroke-width:0;stroke-linejoin:round;stroke-miterlimit:3.8636899" /></g>
	</svg>