<?xml version="1.0" encoding="UTF-8" standalone="no"?>
<!-- Created with Inkscape (http://www.inkscape.org/) -->

<svg
   xmlns:dc="http://purl.org/dc/elements/1.1/"
   xmlns:cc="http://creativecommons.org/ns#"
   xmlns:rdf="http://www.w3.org/1999/02/22-rdf-syntax-ns#"
   xmlns:svg="http://www.w3.org/2000/svg"
   xmlns="http://www.w3.org/2000/svg"
   xmlns:sodipodi="http://sodipodi.sourceforge.net/DTD/sodipodi-0.dtd"
   xmlns:inkscape="http://www.inkscape.org/namespaces/inkscape"
   width="1201.4763"
   height="1182.2391"
   id="svg3657"
   version="1.1"
   inkscape:version="0.47pre4 r22446"
   sodipodi:docname="dessin1.svg">
  <defs
     id="defs3659">
    <inkscape:perspective
       sodipodi:type="inkscape:persp3d"
       inkscape:vp_x="0 : 526.18109 : 1"
       inkscape:vp_y="0 : 1000 : 0"
       inkscape:vp_z="744.09448 : 526.18109 : 1"
       inkscape:persp3d-origin="372.04724 : 350.78739 : 1"
       id="perspective3665" />
    <inkscape:perspective
       id="perspective3675"
       inkscape:persp3d-origin="0.5 : 0.33333333 : 1"
       inkscape:vp_z="1 : 0.5 : 1"
       inkscape:vp_y="0 : 1000 : 0"
       inkscape:vp_x="0 : 0.5 : 1"
       sodipodi:type="inkscape:persp3d" />
    <inkscape:perspective
       id="perspective3689"
       inkscape:persp3d-origin="0.5 : 0.33333333 : 1"
       inkscape:vp_z="1 : 0.5 : 1"
       inkscape:vp_y="0 : 1000 : 0"
       inkscape:vp_x="0 : 0.5 : 1"
       sodipodi:type="inkscape:persp3d" />
    <inkscape:perspective
       id="perspective3811"
       inkscape:persp3d-origin="0.5 : 0.33333333 : 1"
       inkscape:vp_z="1 : 0.5 : 1"
       inkscape:vp_y="0 : 1000 : 0"
       inkscape:vp_x="0 : 0.5 : 1"
       sodipodi:type="inkscape:persp3d" />
    <inkscape:perspective
       id="perspective3893"
       inkscape:persp3d-origin="0.5 : 0.33333333 : 1"
       inkscape:vp_z="1 : 0.5 : 1"
       inkscape:vp_y="0 : 1000 : 0"
       inkscape:vp_x="0 : 0.5 : 1"
       sodipodi:type="inkscape:persp3d" />
    <inkscape:perspective
       id="perspective3987"
       inkscape:persp3d-origin="0.5 : 0.33333333 : 1"
       inkscape:vp_z="1 : 0.5 : 1"
       inkscape:vp_y="0 : 1000 : 0"
       inkscape:vp_x="0 : 0.5 : 1"
       sodipodi:type="inkscape:persp3d" />
    <inkscape:perspective
       id="perspective3817"
       inkscape:persp3d-origin="0.5 : 0.33333333 : 1"
       inkscape:vp_z="1 : 0.5 : 1"
       inkscape:vp_y="0 : 1000 : 0"
       inkscape:vp_x="0 : 0.5 : 1"
       sodipodi:type="inkscape:persp3d" />
    <inkscape:perspective
       id="perspective4674"
       inkscape:persp3d-origin="0.5 : 0.33333333 : 1"
       inkscape:vp_z="1 : 0.5 : 1"
       inkscape:vp_y="0 : 1000 : 0"
       inkscape:vp_x="0 : 0.5 : 1"
       sodipodi:type="inkscape:persp3d" />
    <inkscape:perspective
       id="perspective4749"
       inkscape:persp3d-origin="0.5 : 0.33333333 : 1"
       inkscape:vp_z="1 : 0.5 : 1"
       inkscape:vp_y="0 : 1000 : 0"
       inkscape:vp_x="0 : 0.5 : 1"
       sodipodi:type="inkscape:persp3d" />
    <inkscape:perspective
       id="perspective4749-8"
       inkscape:persp3d-origin="0.5 : 0.33333333 : 1"
       inkscape:vp_z="1 : 0.5 : 1"
       inkscape:vp_y="0 : 1000 : 0"
       inkscape:vp_x="0 : 0.5 : 1"
       sodipodi:type="inkscape:persp3d" />
    <inkscape:perspective
       id="perspective4780"
       inkscape:persp3d-origin="0.5 : 0.33333333 : 1"
       inkscape:vp_z="1 : 0.5 : 1"
       inkscape:vp_y="0 : 1000 : 0"
       inkscape:vp_x="0 : 0.5 : 1"
       sodipodi:type="inkscape:persp3d" />
    <inkscape:perspective
       id="perspective4802"
       inkscape:persp3d-origin="0.5 : 0.33333333 : 1"
       inkscape:vp_z="1 : 0.5 : 1"
       inkscape:vp_y="0 : 1000 : 0"
       inkscape:vp_x="0 : 0.5 : 1"
       sodipodi:type="inkscape:persp3d" />
    <inkscape:perspective
       id="perspective4824"
       inkscape:persp3d-origin="0.5 : 0.33333333 : 1"
       inkscape:vp_z="1 : 0.5 : 1"
       inkscape:vp_y="0 : 1000 : 0"
       inkscape:vp_x="0 : 0.5 : 1"
       sodipodi:type="inkscape:persp3d" />
  </defs>
  <sodipodi:namedview
     id="base"
     pagecolor="#ffffff"
     bordercolor="#666666"
     borderopacity="1.0"
     inkscape:pageopacity="0.0"
     inkscape:pageshadow="2"
     inkscape:zoom="0.49497475"
     inkscape:cx="617.15214"
     inkscape:cy="657.66639"
     inkscape:document-units="px"
     inkscape:current-layer="layer1"
     showgrid="false"
     inkscape:window-width="1280"
     inkscape:window-height="950"
     inkscape:window-x="0"
     inkscape:window-y="25"
     inkscape:window-maximized="1" />
  <metadata
     id="metadata3662">
    <rdf:RDF>
      <cc:Work
         rdf:about="">
        <dc:format>image/svg+xml</dc:format>
        <dc:type
           rdf:resource="http://purl.org/dc/dcmitype/StillImage" />
        <dc:title></dc:title>
      </cc:Work>
    </rdf:RDF>
  </metadata>
  <g
     inkscape:label="Calque 1"
     inkscape:groupmode="layer"
     id="layer1"
     transform="translate(-135.37859,325.18599)">
    <rect
       style="fill:none;fill-opacity:1;stroke:none"
       id="rect4739-0-9-0"
       width="1192.6115"
       height="1181.6115"
       x="140.50398"
       y="-322.58868" />
    <g
       id="g4838"
       transform="translate(214.15234,-8.0812204)">
      <g
         style="display:inline"
         transform="matrix(0.56436044,0,0,1.1354512,-303.23285,-440.72394)"
         id="g4138">
        <g
           transform="translate(0,2.579834e-6)"
           id="g4140">
          <text
             sodipodi:linespacing="125%"
             xml:space="preserve"
             x="445.10889"
             y="1113.1167"
             transform="scale(1.0299372,0.970933)"
             id="text4142"
             style="font-size:16px;font-style:normal;font-variant:normal;font-weight:normal;font-stretch:normal;text-align:center;line-height:125%;writing-mode:lr-tb;text-anchor:middle;font-family:Arial;-inkscape-font-specification:Arial"><tspan
               x="445.10889"
               y="1113.1167"
               id="tspan4144"
               sodipodi:role="line"
               style="font-size:16px;font-style:normal;font-variant:normal;font-weight:normal;font-stretch:normal;text-align:center;line-height:125%;writing-mode:lr-tb;text-anchor:middle;font-family:Arial;-inkscape-font-specification:Arial" /></text>
        </g>
        <g
           id="g4154" />
        <g
           transform="translate(458.20516,-989.76956)"
           id="g4168">
          <path
             d="m 8.4880903,2075.8182 474.1519397,0.3266 0,12.396 -474.1519397,0 0,-12.7226 z m 0,6.5246 474.1518497,0"
             style="fill:none;fill-opacity:1;fill-rule:nonzero;stroke:#000000;stroke-width:0.32400003;stroke-linecap:round;stroke-miterlimit:4;stroke-opacity:1;stroke-dashoffset:0"
             id="path4170"
             sodipodi:nodetypes="ccccccc" />
          <path
             d="m 100.16202,2076.1448 99.67598,0 0,6.198 -99.67598,0 0,-6.198 z m 195.38034,0 93.02684,0 0,6.198 -93.02684,-0.3266 0,-5.8714 z m -287.0542697,5.8714 152.2836997,0.3266 0,6.198 -152.2836997,-0.3266 0,-6.198 z m 304.3306797,0.3266 156.81667,0 0,6.198 -156.81667,0.6532 0,-6.8512 z"
             style="fill:none;fill-opacity:1;stroke:#000000;stroke-width:0.32401723;stroke-linecap:butt;stroke-linejoin:miter;stroke-miterlimit:4;stroke-opacity:1;stroke-dashoffset:0"
             id="path4172"
             sodipodi:nodetypes="cccccccccccccccccccc" />
        </g>
      </g>
      <text
         xml:space="preserve"
         style="font-size:14px;font-style:normal;font-variant:normal;font-weight:normal;font-stretch:normal;text-align:start;line-height:80.00000119%;writing-mode:lr-tb;text-anchor:start;fill:none;fill-opacity:1;stroke:none;display:inline;font-family:Arial;-inkscape-font-specification:Arial"
         x="-40.048889"
         y="779.55151"
         id="text4246"
         sodipodi:linespacing="80.000001%"><tspan
           sodipodi:role="line"
           id="tspan4248"
           x="-40.048889"
           y="779.55151">0</tspan></text>
      <text
         xml:space="preserve"
         style="font-size:14px;font-style:normal;font-variant:normal;font-weight:normal;font-stretch:normal;text-align:start;line-height:80.00000119%;writing-mode:lr-tb;text-anchor:start;fill:none;fill-opacity:1;stroke:none;display:inline;font-family:Arial;-inkscape-font-specification:Arial"
         x="13.518064"
         y="779.55151"
         id="text4250"
         sodipodi:linespacing="80.000001%"><tspan
           sodipodi:role="line"
           id="tspan4252"
           x="13.518064"
           y="779.55151">1</tspan></text>
      <text
         xml:space="preserve"
         style="font-size:14px;font-style:normal;font-variant:normal;font-weight:normal;font-stretch:normal;text-align:start;line-height:80.00000119%;writing-mode:lr-tb;text-anchor:start;fill:none;fill-opacity:1;stroke:none;display:inline;font-family:Arial;-inkscape-font-specification:Arial"
         x="65.706017"
         y="779.55151"
         id="text4254"
         sodipodi:linespacing="80.000001%"><tspan
           sodipodi:role="line"
           id="tspan4256"
           x="65.706017"
           y="779.55151">2</tspan></text>
      <text
         xml:space="preserve"
         style="font-size:14px;font-style:normal;font-variant:normal;font-weight:normal;font-stretch:normal;text-align:start;line-height:80.00000119%;writing-mode:lr-tb;text-anchor:start;fill:none;fill-opacity:1;stroke:none;display:inline;font-family:Arial;-inkscape-font-specification:Arial"
         x="118.61497"
         y="779.55151"
         id="text4259"
         sodipodi:linespacing="80.000001%"><tspan
           sodipodi:role="line"
           id="tspan4261"
           x="118.61497"
           y="779.55151">3</tspan></text>
      <text
         xml:space="preserve"
         style="font-size:14px;font-style:normal;font-variant:normal;font-weight:normal;font-stretch:normal;text-align:start;line-height:80.00000119%;writing-mode:lr-tb;text-anchor:start;fill:none;fill-opacity:1;stroke:none;display:inline;font-family:Arial;-inkscape-font-specification:Arial"
         x="171.40494"
         y="779.55151"
         id="text4263"
         sodipodi:linespacing="80.000001%"><tspan
           sodipodi:role="line"
           id="tspan4265"
           x="171.40494"
           y="779.55151">4</tspan></text>
      <text
         xml:space="preserve"
         style="font-size:14px;font-style:normal;font-variant:normal;font-weight:normal;font-stretch:normal;text-align:start;line-height:80.00000119%;writing-mode:lr-tb;text-anchor:start;fill:none;fill-opacity:1;stroke:none;display:inline;font-family:Arial;-inkscape-font-specification:Arial"
         x="224.26489"
         y="779.55151"
         id="text4267"
         sodipodi:linespacing="80.000001%"><tspan
           sodipodi:role="line"
           id="tspan4269"
           x="224.26489"
           y="779.55151">5</tspan></text>
      <text
         xml:space="preserve"
         style="font-size:14px;font-style:normal;font-variant:normal;font-weight:normal;font-stretch:normal;text-align:start;line-height:80.00000119%;writing-mode:lr-tb;text-anchor:start;fill:none;fill-opacity:1;stroke:none;display:inline;font-family:Arial;-inkscape-font-specification:Arial"
         x="80.249176"
         y="759.6283"
         id="text4273"
         sodipodi:linespacing="80.000001%"><tspan
           sodipodi:role="line"
           id="tspan4275"
           x="80.249176"
           y="759.6283">(km)</tspan></text>
      <text
         xml:space="preserve"
         style="font-size:14px;font-style:normal;font-variant:normal;font-weight:normal;font-stretch:normal;text-align:start;line-height:80.00000119%;writing-mode:lr-tb;text-anchor:start;fill:none;fill-opacity:1;stroke:none;display:inline;font-family:Arial;-inkscape-font-specification:Arial"
         x="-40.305798"
         y="829.83868"
         id="text4279"
         sodipodi:linespacing="80.000001%"><tspan
           sodipodi:role="line"
           id="tspan4281"
           x="-40.305798"
           y="829.83868">0</tspan></text>
      <text
         xml:space="preserve"
         style="font-size:14px;font-style:normal;font-variant:normal;font-weight:normal;font-stretch:normal;text-align:start;line-height:80.00000119%;writing-mode:lr-tb;text-anchor:start;fill:none;fill-opacity:1;stroke:none;display:inline;font-family:Arial;-inkscape-font-specification:Arial"
         x="45.824593"
         y="829.83868"
         id="text4283"
         sodipodi:linespacing="80.000001%"><tspan
           sodipodi:role="line"
           id="tspan4285"
           x="45.824593"
           y="829.83868">1</tspan></text>
      <text
         xml:space="preserve"
         style="font-size:14px;font-style:normal;font-variant:normal;font-weight:normal;font-stretch:normal;text-align:start;line-height:80.00000119%;writing-mode:lr-tb;text-anchor:start;fill:none;fill-opacity:1;stroke:none;display:inline;font-family:Arial;-inkscape-font-specification:Arial"
         x="130.57599"
         y="829.83868"
         id="text4287"
         sodipodi:linespacing="80.000001%"><tspan
           sodipodi:role="line"
           id="tspan4289"
           x="130.57599"
           y="829.83868">2</tspan></text>
      <text
         xml:space="preserve"
         style="font-size:14px;font-style:normal;font-variant:normal;font-weight:normal;font-stretch:normal;text-align:start;line-height:80.00000119%;writing-mode:lr-tb;text-anchor:start;fill:none;fill-opacity:1;stroke:none;display:inline;font-family:Arial;-inkscape-font-specification:Arial"
         x="216.04837"
         y="829.83868"
         id="text4291"
         sodipodi:linespacing="80.000001%"><tspan
           sodipodi:role="line"
           id="tspan4293"
           x="216.04837"
           y="829.83868">3</tspan></text>
      <text
         xml:space="preserve"
         style="font-size:14px;font-style:normal;font-variant:normal;font-weight:normal;font-stretch:normal;text-align:start;line-height:80.00000119%;writing-mode:lr-tb;text-anchor:start;fill:none;fill-opacity:1;stroke:none;display:inline;font-family:Arial;-inkscape-font-specification:Arial"
         x="81.665665"
         y="850.4151"
         id="text4295"
         sodipodi:linespacing="80.000001%"><tspan
           sodipodi:role="line"
           id="tspan4297"
           x="81.665665"
           y="850.4151">(mi)</tspan></text>
    </g>
    <path
       style="fill-opacity:1;stroke:#0978ab;stroke-width:0.59999999999999998;stroke-linecap:butt;stroke-linejoin:miter;stroke-miterlimit:4;stroke-opacity:1;stroke-dasharray:none;display:inline"
       d="m 802.21834,297.66902 c 0.0656,-0.50293 -0.80591,-0.24871 -0.61253,-0.89525 -0.0231,-0.36738 -0.0628,-0.65497 0.56343,-0.5183 0.52679,-0.0913 0.67598,0.4097 1.17995,0.42407 0.29077,0.10882 0.67551,0.6895 1.08371,0.65965 -0.31906,-0.48316 0.4712,-0.1226 0.7539,-0.0942 0.12857,0.23733 0.50573,0.28951 0.70677,0.0942 0.10478,-0.4267 0.48489,-0.64189 0,-0.61253 -0.38586,0.0209 -0.41104,-0.17048 -0.18847,-0.32984 0.14702,-0.21981 -0.10383,-0.49567 -0.32983,-0.65965 -0.27015,-0.12828 -0.39145,-0.49258 -0.56542,-0.7539 -0.2264,-0.25985 -0.3813,-0.44867 -0.68542,-0.61234 0.0419,0.11012 -0.17155,-0.693 -0.0214,-0.89544 0.0584,-0.13437 0.29898,-0.29265 0.37695,-0.5183 -0.21947,-0.59387 0.20954,-0.63543 0.47118,-0.84813 0.30057,-0.19302 0.25657,-0.79549 0.56542,-0.56542 0.45902,0.41763 0.56824,0.0485 1.03661,-0.32983 0.20309,-0.22139 0.41132,-0.41627 0.70677,-0.61253 0.41402,-0.38651 -1.0619,0.13006 -1.41355,0.0471 -0.19309,0.001 -0.54049,0.30849 -0.801,0.37695 -0.16927,-0.26717 -0.74787,-0.37623 -0.7539,-0.56542 0.005,-0.26524 0.26361,-0.53938 -0.0471,-0.61254 -0.13158,-0.0759 -0.29524,-0.40668 -0.45026,-0.52335 -0.17747,-0.1797 -0.47936,-0.35477 -0.63345,-0.51325 -0.60161,-0.12653 -1.41283,0.0314 -2.07321,-0.0942 -0.46175,-0.10074 -0.90834,-0.23763 -1.43214,-0.18846 -0.49071,0.0593 -0.66686,0.14371 -1.15738,0.14135 -0.46779,0.0459 -1.06463,0.13469 -1.50978,0.0942 -0.23679,0.25011 -0.84145,0.21457 -0.94235,0.5183 -0.12779,0.1471 -0.33449,0.33937 -0.51832,0.47118 -0.11095,0.21634 -0.75012,0.22304 -0.94236,0.32984 -0.61815,-0.0293 -0.75873,0.40475 -0.98948,0.75389 0.0279,0.69333 -0.74308,0.11285 -1.17796,0.42407 -0.14773,0.14815 -0.69138,0.45141 -0.61254,0.37694 -0.2708,0.145 -0.38842,0.32493 -0.47118,0.61254 -0.21871,0.0691 0.11724,0.87551 -0.56542,0.5183 -0.25335,0.0119 0.0851,0.45046 -0.18847,0.65965 -0.29758,0.1368 -0.29574,0.31027 -0.65966,0.56542 0.20123,0.19681 -0.65811,0.008 -0.94237,0.14136 0.0792,0.32077 0.11084,0.89081 -0.23559,0.61254 -0.0489,-0.41181 -0.59902,-0.33919 -0.37694,0 -0.12452,0.72779 1.03888,0.21754 0.84813,0.98948 0.0511,0.17567 0.50407,-0.14947 0.5183,0.2356 -0.35227,0.10976 -0.40511,0.42086 -0.37695,0.75389 -0.30555,0.17235 -1.05468,-0.15509 -1.08372,0.0471 -0.18805,0.12175 -0.57909,0.22913 -0.89525,0.32983 -0.24834,0.0826 -0.14701,0.68014 -0.14135,0.68222 0.0107,0.33665 -0.32605,0.30569 -0.37695,0.58998 0.0655,0.37424 -0.0189,0.89837 0.14135,1.17795 0.002,0.12632 0.21691,0.34046 0,0.37695 -0.77375,-0.10146 -0.26663,0.47747 -0.56541,0.84813 -0.12259,0.1336 -0.35816,0.1062 -0.5183,0.28272 -0.40258,0.2004 -0.2748,0.22759 -0.56542,0.47118 -0.26184,0.0775 -0.30412,0.15528 -0.5183,0.37694 -0.18265,0.30425 0.13176,0.91708 0.0942,1.36643 -0.0831,0.31287 0.12314,0.71122 0.37695,0.32983 0.17307,-0.12684 0.12147,-0.75803 0,-0.89525 0.0449,-0.43123 -0.25243,-0.95684 0.42208,-0.89525 0.25408,-0.10941 0.82255,-0.0668 0.47317,0.32983 -0.11759,0.2048 -0.69097,0.1543 -0.65965,0.5183 -0.0197,0.136 0.18052,0.36885 0.37695,0.56542 0.22751,0.13317 0.28137,0.51227 0.32982,0.84813 -0.24811,0.74558 0.5975,0.56947 0.89525,0.7539 0.21247,0.27697 0.45757,-0.0636 0.59634,-0.15461 0.21782,-0.30925 0.26705,0.004 0.34602,-0.45793 0.33363,-0.28617 0.20957,-0.65507 0.2356,-1.13084 -0.0126,-0.0806 1.08142,0.11368 0.96493,0.14135 0.12331,-0.43038 0.71528,-0.29908 1.01404,-0.70677 0.34606,-0.11084 0.72978,-0.32073 1.17796,-0.23559 0.12436,0.38122 0.52233,0.48802 0.61253,0.0942 0.43279,-0.2547 0.36924,0.0827 0.94237,0.14135 0.53042,-0.30883 0.69954,0.29367 0.65965,0.77647 0.0558,0.0153 0.21165,0.92626 0.37695,1.15539 -0.0304,0.29406 -0.15677,0.65035 -0.32983,1.0366 0.0189,0.32711 -0.29667,0.58779 -0.23559,1.08174 -0.25091,0.54731 -0.10395,0.66978 -0.32983,1.03858 -0.15786,0.0745 -0.1493,0.68369 -0.14135,1.12092 -0.0478,0.36994 0.13424,0.6683 -0.18848,0.76381 0.0215,0.48642 -0.084,0.68801 -0.0471,1.03462 -0.0553,0.36707 -0.37868,0.36321 -0.5183,0.70876 -0.002,0.36346 -0.0313,0.61769 -0.56542,0.61254 -0.043,0.093 -0.0535,0.52545 -0.0471,0.75389 0.0454,-0.0493 -0.22362,0.43721 -0.37695,0.61254 0.16628,0.1768 0.69013,0.26531 0.84813,0 0.1017,-0.34565 0.24141,-0.43516 0.18848,-0.70677 0,-0.13406 0,-0.21891 0,-0.47118 -0.0146,-0.0361 0.82725,-0.44301 1.0366,-0.18848 -0.33509,0.29804 0.5735,0.32383 0.44174,0.21056 0.23012,0.14622 0.34739,0.36009 0.59486,0.4491 0.2947,0.0147 0.52464,0.54747 0.7539,0.14135 -0.0564,-0.2717 0.26502,-0.0465 0.18847,0.18847 0.22673,0.23745 -0.0688,0.75381 0.14135,0.94238 0.43169,0.0668 1.03746,0.0331 1.27219,0.0942 0.21355,-0.18598 0.0369,-0.76209 0.0942,-1.1043 0.0478,-0.19642 -0.0754,-0.44758 0.18847,-0.54484 0.18702,0.079 0.99464,-0.48607 1.08373,-0.11879 -0.0465,0.44372 0.14478,0.64323 0.18847,0.77844 0.46862,0.10206 0.5275,0.0476 0.65965,0.47118 0.30757,0.17519 0.2354,0.43728 0.18848,0.72736 0.0647,0.38988 0.56874,0.29114 0.94236,0.4506 0.29439,0.0198 0.93407,0.0661 0.98949,0.14136 0.3483,0.20603 0.52732,0.51461 0.23558,0 -0.0466,-0.0259 -0.1529,-0.41447 0.28272,-0.32984 0.42701,-0.0629 0.51962,0.50404 0.80101,0.37695 -0.01,-0.61074 -0.34402,0.0516 -0.32983,-0.65965 -0.29893,-0.2619 -0.6059,-0.47862 -0.47118,-1.13083 0.0153,-0.54246 -0.3498,-0.38144 -0.2356,-0.89525 0.0353,-0.0119 0.34495,-0.59509 0.0942,-0.84813 -0.25663,-0.28048 0.24616,-0.28981 0.2356,-0.61255 0.40054,-0.19306 0.72246,0.11107 0.96493,0.18848 0.3034,-0.30827 1.04532,-0.13431 0.77845,-0.5183 -0.21498,-0.12353 -0.73175,-0.23313 -1.22508,-0.18848 -0.14736,0.35607 -0.46549,0.21645 -0.7539,0.0471 -0.3435,-0.0549 -1.11931,-0.32961 -0.84812,0.28271 0.23698,0.30599 0.0426,0.6813 -0.42406,0.47118 -0.44133,-0.0676 -0.68548,0.32603 -0.70678,-0.28073 -0.0346,-0.41336 0.53074,-0.41915 0.70678,-0.61451 0.20668,-0.11487 0.38498,-0.42369 0.42406,-0.61254 -0.30991,-0.30579 -0.32404,-0.1915 -0.94236,-0.37695 -0.14642,-0.21641 -0.34242,-0.39297 -0.42407,-0.70678 -0.042,0.12098 -0.2002,-0.3604 -0.32983,-0.42405 -0.56007,-0.0572 -0.0764,-0.29684 0.0471,-0.4712 0.14309,-0.20578 0.13662,-0.43295 0.37695,-0.61253 0.29769,-0.24821 0.13819,-0.80284 0.37693,-0.84813 0.34461,-0.0892 0.14467,-0.60086 0.32984,-0.80101 0.16479,-0.16731 0.45234,-0.2715 0.75389,-0.32983 0.23693,-0.19414 0.46644,-0.30352 0.56542,-0.56541 0.28522,-0.27343 0.0561,-0.56101 0.32983,-0.61255 0.18421,-0.15733 0.3431,-0.20558 0.5183,-0.47118 0.10525,-0.0759 0.0695,-0.56708 -0.37695,-0.56542 -0.0707,-0.22751 -0.10253,-0.53676 -0.32983,-0.23559 -0.16055,0.15905 -0.27499,0.23295 -0.46612,0.39786 0.10003,0.24174 -0.6486,0.48019 -0.66471,0.12044 -0.24876,-0.16607 -0.3563,-0.30474 -0.5183,-0.5183 -0.2693,-0.0939 -0.0724,-0.45106 0.14135,-0.56541 0.21132,-0.26453 0.28151,-0.65115 0.37695,-1.08373 0.12571,-0.3473 0.31257,-0.43973 0.5183,-0.56542 0.35801,-0.12873 0.18918,-0.87141 0.61253,-0.98948 0.30331,-0.34154 -0.16157,-0.86515 0.0942,-1.17797 0.0414,-0.19782 0.4785,-0.0306 0.61254,-0.2827 z"
       id="path3975"
       sodipodi:nodetypes="cccccccccccccccccccccccccccccccccccccccccccccccccccccccccccccccccccccccccccccccccccccccccccccccccccccccccccccccccccccccccccccccccccccccccccc" />
    <g
       transform="matrix(0.80772651,0,0,0.80772651,460.52161,-348.02998)"
       id="g3780"
       style="stroke:#0978ab;stroke-opacity:1;stroke-width:0.74282568999999998;stroke-miterlimit:4;stroke-dasharray:none;fill-opacity:1">
      <path
         sodipodi:nodetypes="ccccccccccccccccccccccccccccccccccccccccccccccccccccccccccccccccccccccccccccccccccccccccccccccccccccccccccccccccccccccccccccccccccccccccccccccccccccccccccccccccccccccccccccccccccccccccccccccccccccccccccccccccccccccccccccccc"
         id="path2830"
         d="m 126.78571,520.93361 c 1.99018,-3.39258 2.58411,-5.05792 5.35715,-7.5 2.71958,-0.5776 2.04329,-5.61292 2.5,-5 1.41894,-4.0719 0.98316,-5.68298 3.92857,-7.14286 1.97167,-3.3225 3.81571,-7.89279 2.14286,-10.71428 -6.00165,-0.8346 -0.73414,-4.73567 -1.42858,-7.85715 1.13425,-5.71501 -4.35435,-6.05254 -5.35714,-10 -0.5325,0.15359 -1.5007,-8.41963 -1.07143,-13.57142 0.85861,-0.2911 -3.65945,-5.06194 -4.28571,-5.35715 -6.4289,0.46469 -2.3558,-5.83146 1.07143,-5.35714 4.42063,0.94673 6.09331,-2.4318 7.5,-5.71429 0.96777,-2.5446 5.51623,-4.56213 4.00861,-7.52007 -4.06061,-2.03792 1.04915,-9.75626 -1.50861,-9.97993 -3.89853,-1.69716 -12.26419,0.35652 -5.71429,-3.21428 3.53394,-2.31189 4.14145,-5.15998 6.07143,-10.71429 2.43311,-2.3865 -2.63432,-5.13161 1.07143,-6.07143 2.18758,-5.30371 -0.36242,-9.97202 -3.57143,-10 1.92822,-5.10764 5.50299,-9.15466 8.21429,-13.57142 0.68276,-3.09411 6.21554,-5.72603 4.64285,-11.07143 0.7604,-0.86682 -0.83008,-5.39242 -0.71428,-8.57143 -1.89609,-3.80569 0.29787,-13.02147 0,-12.14286 1.82487,-4.88107 -1.86776,-6.59177 -3.57143,-9.28571 -1.804,-1.06276 -5.08247,2.07366 -7.5,2.85714 -2.85861,0.5897 -4.76361,0.9464 -5,4.28571 0.94907,3.1379 -4.63862,-4.12531 -8.57143,-0.71428 -4.10879,0.75955 -3.23582,-1.19346 -5.71429,-2.5 2.04316,-5.24049 -7.41795,-7.34065 -8.21428,-2.85714 -2.60101,-1.75276 -4.07763,-2.7566 -3.92857,-5.71429 -5.40572,-2.79473 -8.344386,6.39355 -7.500003,-1.07143 -2.181141,-1.9355 7.435473,-3.24225 6.071433,-3.92857 4.18445,4.79877 8.80679,-0.9949 7.85714,-0.71429 6.7712,3.78333 10.01624,-0.5949 8.21428,-6.42857 1.92683,-3.28662 1.6413,-11.69364 5.1744,-11.81941 3.94177,-1.67355 0.124,-7.52334 -0.88868,-8.18059 0.86011,-2.33519 2.98829,-11.51445 0.71428,-13.21428 -1.82617,-4.20591 -0.18253,-8.75961 2.14286,-9.28572 4.85024,-0.83637 6.76131,-4.29669 5.71429,-8.57143 -0.72347,-5.29867 3.40613,-9.12514 3.4065,-11.94022 2.77489,-0.98483 2.8321,-4.43516 -0.54936,-5.91692 1.45884,-3.94406 4.01879,-4.83572 -1.07143,-7.14286 -0.43159,-0.03 -7.12355,-3.21803 -2.14286,-3.57142 2.3602,2.27474 8.80233,-2.21634 11.07143,1.07142 -0.29087,1.61385 6.05753,1.56358 4.28572,-2.14285 3.89139,1.10327 7.96644,-1.41226 9.28571,0.35714 3.60594,3.38189 3.77553,-2.2487 7.5,-1.07143 4.4026,0.95063 4.16492,6.1713 8.57143,7.14286 -0.24465,2.63998 1.22258,3.98483 3.92857,5.71428 0.10924,4.49672 2.68086,7.86882 -1.42857,12.5 -1.11306,3.9011 -0.49741,7.40515 2.85714,10 3.25906,1.54383 9.27627,3.56079 15.71429,2.5 0.48684,4.10481 7.29835,3.37643 8.11258,6.78413 2.15802,2.51223 7.45595,3.03233 11.88742,3.57302 4.76018,5.00779 9.16526,0.40372 12.5,-2.14286 4.67091,-1.7866 12.2255,-1.33693 12.5,3.57143 2.44931,3.04001 6.15875,4.00097 6.42857,1.78571 2.85741,-1.40364 4.12728,0.81307 9.28571,2.14286 2.43333,1.06068 6.40453,-5.72653 10,-1.07143 3.7355,2.69512 3.851,-0.11273 6.78572,-1.42857 2.99369,-6.78408 8.1425,7.02203 10,0.35714 1.64779,-0.27221 -3.66713,-4.51855 -1.42857,-6.42857 0.20526,-7.7891 1.28454,7.38876 7.85714,1.42857 1.82,-0.47241 2.96323,-3.10575 4.64286,-0.35714 -1.06315,5.01606 1.63553,5.858 5.35714,7.5 2.12984,3.38283 -0.21168,4.79971 3.21429,6.07143 3.67879,0.98532 5.40375,5.7182 6.78571,8.57143 5.71262,1.89588 9.55219,3.90773 14.28571,6.78571 -0.23453,-5.84119 7.96557,-0.23955 6.64968,-0.33512 4.39689,1.75888 9.64108,3.85836 9.7789,1.40655 5.72566,-2.93533 2.8383,3.76518 7.5,5 3.12128,1.09646 5.05609,-2.47804 5.35714,-4.28571 1.64944,-1.95959 2.31729,7.85987 7.85714,6.78571 1.63791,3.94994 3.893,7.95333 7.14286,8.57143 3.87393,-0.37449 0.13404,8.47045 4.28571,7.14286 1.68832,0.36718 2.53892,-3.58022 5.71429,-3.92858 6.02998,5.37934 -7.44651,2.98106 -2.14286,8.21429 2.96108,1.57215 2.43816,4.0837 6.42857,2.5 -0.67604,5.33997 2.08963,0.42578 2.85715,-1.42857 1.72472,-2.1668 5.56594,-3.10907 7.85714,-6.42857 4.2541,1.16055 -0.50298,5.57968 -2.14286,6.42857 -4.2141,5.38439 7.74421,-0.39653 7.15849,4.62078 6.46959,1.17587 -0.18726,2.9716 1.77008,8.95065 1.88385,1.84634 11.34738,-0.22636 9.64286,2.85714 -3.50408,2.60594 4.12697,7.75189 0.35714,10 -1.61119,3.52563 -1.3376,7.76962 -0.71428,12.85714 1.0926,3.80585 2.44015,4.69474 5,7.5 6.18414,-3.69723 1.10824,5.02607 5,7.5 1.12412,2.10267 2.84003,2.42639 5,3.92857 -0.34215,4.20853 5.54763,8.17036 3.92857,7.5 3.92095,0.63129 5.08061,2.33727 5,7.5 3.82655,1.90013 8.8591,3.27785 14.64286,3.21429 0.30072,5.1625 5.06601,7.44922 6.42857,11.07142 0.82303,3.62643 5.09738,1.02626 6.42857,5 1.6069,2.69792 1.7988,1.70925 3.92857,1.42858 2.36577,-2.39147 2.37919,-2.0876 3.21429,-3.92857 0.37179,3.177 2.5195,4.81591 8.57143,2.85714 3.51396,2.48018 8.34146,-0.86032 12.87408,-1.78571 4.79296,-0.44653 6.27348,2.3957 10.3402,2.85714 4.79114,2.85913 5.38605,2.80914 7.5,2.14286 4.51856,-0.36832 6.70199,-1.58613 11.42857,1.07143 2.39158,-0.23387 3.45324,2.30979 2.5,4.64285 3.88018,1.29864 13.40455,1.93617 15.35715,-0.71428 5.61748,-0.41384 13.08956,1.58637 17.5,3.57143 4.33886,2.47386 7.55468,2.30874 7.85714,6.42857 0.46243,3.2805 8.38834,7.4266 5.72396,6.34739 4.69757,1.01644 10.44187,3.28314 11.77603,6.1526 2.99468,3.84111 4.08937,5.13279 7.50001,6.07144 4.29149,1.41614 5.59902,-1.59072 10.71428,-0.35715 0.60505,0.58904 2.1721,5.37213 4.64286,4.64286 -0.23252,-5.80098 3.88487,-4.24249 5.71429,-2.14286 -1.31869,3.21155 -2.82536,7.2305 1.78571,6.78572 3.85901,0.72109 8.34106,-1.10438 8.92857,-0.35715 1.42094,4.90352 0.45702,6.07019 -2.5,8.21429 -1.62014,1.87088 -5.61678,2.83742 -6.68401,3.92698 -0.96123,4.6277 -5.54679,4.37493 -5.81599,9.64445 -0.66305,2.15779 0.99352,2.93019 2.5,4.64286 2.57098,2.16517 2.83142,4.45064 0.71429,7.14285 0.87689,3.19424 1.46197,3.7143 -0.35714,7.14286 -0.10596,0.77846 4.69512,-2.70857 1.42857,2.5 -2.25463,1.79392 0.54937,1.92816 2.85714,2.85714 2.15297,3.83146 -3.22111,7.02915 -0.35714,11.42857 1.01339,3.07533 7.42616,0.0339 5.35714,6.07143 -3.11638,0.63503 -2.27207,3.57738 -3.57143,3.57143 1.47677,3.98542 -1.76423,4.1936 -3.92857,6.42857 -0.15785,3.96054 0.7863,9.35284 0.35714,11.78572 1.79402,0.76698 4.94619,6.76043 2.14286,8.21428 -2.60935,2.18751 -4.66499,2.74427 -4.64286,7.85715 1.30302,1.2135 -3.04999,5.45199 -0.71428,5.71428 6.03204,-1.18291 6.68574,5.48176 2.14285,3.57143 -5.93138,-2.16736 -5.82533,7.04454 -3.21428,7.5 3.7487,-1.63792 6.27992,6.17045 2.85714,5.71429 -5.34794,1.14013 -1.0293,1.75049 -1.07143,4.64285 -4.79297,-0.27313 -5.92158,-4.427 -6.42857,1.07143 4.76625,0.35152 6.72358,2.47548 3.92857,3.57143 -1.48793,3.10078 -7.64938,1.82509 -7.5,6.42857 -0.89413,4.33736 -6.8471,2.12066 -9.28571,3.21429 -2.01233,5.26044 -11.91271,2.25354 -15.46124,4.92552 0.23129,-2.8462 -7.60701,-2.60828 -6.68162,-5.99695 0.8633,-3.87924 -6.68504,4.45392 -8.21428,-1.07143 -1.32676,-3.62605 -11.91172,-2.77205 -10.71429,1.42857 -3.99277,-0.92733 -7.39538,2.90817 -9.64286,5 -5.09933,1.25541 -7.75681,8.74536 -7.14285,12.14286 -1.69995,7.04531 1.58884,8.30599 5,11.07143 3.93254,1.69358 4.68164,5.65241 6.07142,10 3.06186,0.11947 9.54215,-0.40579 8.21429,3.92857 8.03655,-2.27053 3.40213,7.98807 6.78571,9.28571 2.28304,1.96378 -2.94693,5.00511 -2.85714,8.57143 1.15845,3.05795 -1.80122,3.7057 -0.71428,7.5 -0.97681,2.69959 -6.43175,0.0257 -6.07143,-2.5 -2.00076,-1.53011 -10.48869,-4.00657 -11.78572,0.0169 -0.27667,4.24341 3.0848,8.34684 -3.21428,10.3402 -3.65471,-7.46472 -7.97134,-6.38256 -13.57144,-6.07142 -4.16506,3.38632 -13.00636,-1.31405 -14.99999,4.64285 -7.5378,-0.11081 -15.15838,0.43852 -20.35714,-3.21428 -7.13092,-0.95856 -15.24539,-6.11607 -22.85715,-2.5 -2.83471,-0.68575 -6.146,5.86093 -3.57143,3.21428 -7.62996,1.70669 -7.74863,0.42667 -14.50719,2.43217 -2.57973,1.60768 -0.82048,7.22685 -5.49281,6.4964 -1.16603,-4.34247 -5.93905,8.53242 -4.28571,7.14286 0.97826,0.74478 3.28204,3.92672 1.78571,6.42857 -1.81664,4.54443 -7.77208,4.73772 -6.78571,10 -6.42455,-0.90261 -4.63219,2.86743 -6.42857,4.64286 -1.45531,5.36591 -9.42099,5.46669 -11.42857,2.85714 -4.64612,-1.74229 -10.79197,1.78855 -12.5,-1.78571 -8.10623,-2.74484 -4.45427,-3.10311 3.92857,-4.28572 5.08858,-1.92284 2.08594,-12.35049 -1.42857,-14.28571 -4.35477,-1.70138 -9.80851,3.98325 -11.07143,-1.78571 0.014,-5.42285 -11.88011,-6.20473 -10.2428,-5.3713 -6.75939,0.38644 -7.81772,0.17612 -11.90006,-2.48585 -2.20014,-3.0923 -4.85796,-1.54006 -8.92857,-1.07143 -0.63632,-3.51568 -8.55547,-4.48866 -8.7854,-1.82881 -3.29297,4.39663 -7.94165,-2.94153 -0.50032,-2.0998 3.85809,-1.36079 6.001,-8.60273 -1.07142,-6.07143 -4.80286,2.99068 -4.85164,-3.86985 -8.92858,-2.14285 -4.94792,0.77387 -6.01965,-4.08537 -10,-2.85715 -2.82503,2.50593 -6.81803,0.69461 -7.5,-0.71428 -4.27964,1.6987 -6.60263,-5.97407 -9.64285,-0.71429 -2.15133,0.87436 -4.82859,5.03917 -2.14286,6.42857 -1.35687,0.76072 -4.87644,4.18095 -10.71429,3.92858 -4.37029,3.72687 -11.90493,-0.56898 -18.57142,-1.07143 -2.02695,1.39459 -5.6027,13.34921 1.42857,13.57143 6.03933,8.58018 -9.19266,1.44592 -9.28572,7.14285 -1.88781,0.77069 -4.8731,3.32467 -5.71428,3.92857 -2.31153,-3.36112 -10.92875,-3.69998 -10.71429,1.42858 -2.16013,5.00432 -2.66283,-9.07813 -5.71428,-1.78572 -5.28312,0.60902 -9.1097,1.41636 -8.57143,8.57143 -4.59032,-2.44605 -8.60828,-1.52206 -8.57143,-7.5 -4.79679,-0.90841 -4.86289,-7.85333 -0.35714,-9.28571 -1.17599,-3.67521 -8.39294,-4.01749 -5,-6.78572 -0.35488,-4.14485 0.48737,-5.4242 1.78571,-9.64286 0.0704,-1.97536 -4.00406,-5.48844 -5.71429,-9.28571 1.29525,-9.86883 -3.53016,-6.36998 -5.71428,-11.78571 0.83069,-8.19778 -8.96765,-5.61937 -10.71429,-3.92858 -3.04831,2.06894 -6.06616,-3.27346 -7.85714,-5.71428 -2.54661,-2.01124 -0.67041,-5.784 -2.85714,-6.42857 -4.56748,-3.03944 -14.68694,0.48585 -18.57143,-3.21429 -2.45973,-1.9895 -4.82537,-1.48256 -5.71269,-4.54115 -3.33763,-2.8021 -12.36432,-4.7177 -13.93017,0.25544 -1.31819,4.26264 -6.26659,-0.4413 -8.21428,1.07143 -8.23457,-1.43929 -5.62669,8.77726 -8.21429,2.5 -1.52829,-2.54832 -1.70717,-5.1865 -3.92857,-2.85715 -2.15323,2.85174 -4.5594,2.25908 -5.25544,-1.42698 -3.98675,-2.37282 2.56324,-2.78143 3.11258,-5.35873 0.39694,-2.35607 -3.63695,-5.24412 1.78572,-3.57143 3.17394,0.40368 3.37208,-5.15485 6.42857,-5.35714 1.59,-0.78567 -0.0145,-7.60266 0.71428,-6.42857 -1.27648,-4.77999 7.13901,-0.75201 6.07143,-5.71429 1.54919,-2.98941 -0.98581,-13.85877 0.35714,-12.14286 -1.37315,-2.38564 -2.03927,-3.66685 -3.21428,-7.14285 -1.31728,-1.41658 -6.71051,-0.305 -7.85714,-3.57143 -2.98029,-1.84596 -0.8526,-2.96395 1.07142,-4.28572 1.8094,-4.83352 0.63793,-7.46302 -3.21428,-3.92857 -1.89761,4.32032 -5.06273,3.36697 -1.42857,0 0.61644,-1.24805 4.52376,-6.57053 -1.07143,-6.07143 -3.4338,-3.87396 2.92556,-12.42466 -3.21429,-11.42857 -6.826,-1.0793 -0.99365,-2.09545 2.14286,-2.85714 2.55753,-3.53616 2.64299,-9.66878 -3.92857,-7.85714 -0.79142,-1.80329 -0.97136,-4.57419 2.85714,-5.35715 3.07228,-3.35918 4.29256,-6.5294 1.42857,-10 -0.42313,-4.47227 -1.93177,-10.17471 -3.92857,-11.42857 -0.46727,-3.51667 -4.88137,-7.01813 -6.78571,-7.5 -1.60118,-5.59951 3.03243,-6.40401 2.14285,-11.78571 -0.0649,-0.58472 -1.91456,-6.19988 2.5,-2.14286 l 0,8e-5 z"
         style="color:#000000;fill-opacity:1;fill-rule:nonzero;stroke:#0978ab;stroke-width:0.74282568999999998;stroke-linecap:butt;stroke-linejoin:miter;stroke-miterlimit:4;stroke-opacity:1;stroke-dasharray:none;stroke-dashoffset:0;marker:none;visibility:visible;display:inline;overflow:visible;enable-background:accumulate" />
      <path
         id="path2832"
         d="m 113.21429,346.29075 c -0.51353,-0.20036 -1.05884,-0.3081 -1.6064,-0.35859 -0.27297,-0.0958 -0.17285,-0.44675 -0.19094,-0.66994 0.007,-0.38726 0.0455,-0.78154 -0.0554,-1.16083 -0.0965,-0.30522 0.22941,-0.40752 0.46793,-0.3724 0.42473,0.002 0.84713,0.0621 1.27055,0.0809 0.29157,-10e-4 0.31275,-0.43365 0.63011,-0.39956 0.17127,0.0624 0.40953,-0.0811 0.53934,0.0217 -0.0601,0.0663 -0.42058,-0.12731 -0.30468,0.0925 0.19382,0.11531 0.42952,0.30233 0.29591,0.55495 0.0637,0.20124 0.51036,-0.0963 0.41335,0.24753 0.003,0.16831 -0.18524,0.50169 0.0536,0.55427 0.11287,-0.0342 0.33881,-0.11532 0.27019,0.10064 -0.007,0.41735 -0.27404,0.80471 -0.65178,0.97663 -0.35039,0.18586 -0.74366,0.26892 -1.13168,0.33222 z"
         style="color:#000000;fill-opacity:1;fill-rule:nonzero;stroke:#0978ab;stroke-width:0.74282568999999998;stroke-linecap:butt;stroke-linejoin:miter;stroke-miterlimit:4;stroke-opacity:1;stroke-dasharray:none;stroke-dashoffset:0;marker:none;visibility:visible;display:inline;overflow:visible;enable-background:accumulate" />
      <path
         id="path2834"
         d="m 135,439.1479 c 0.18628,-0.20157 -0.12444,-0.4465 -0.063,-0.67345 0.24666,-0.15935 0.0362,0.55119 0.0608,0.17832 -0.0316,-0.18668 0.0704,-0.62723 -0.21112,-0.59887 -0.14784,0.13812 -0.54465,0.20139 -0.51267,-0.094 0.0735,-0.13953 0.0165,-0.33133 -0.16757,-0.24118 -0.29017,0.0861 -0.33002,-0.26428 -0.53838,-0.34403 -0.14114,-0.0541 -0.40457,0.10076 -0.3619,-0.15496 0.0502,-0.15634 -0.001,-0.50064 -0.225,-0.32415 -0.26046,0.13251 -0.20364,0.43756 -0.14337,0.6675 0.0452,0.3217 0.005,0.64798 0.0145,0.97186 -0.005,0.66955 -0.012,1.33922 7.5e-4,2.00873 0.17415,0.15705 0.42483,-0.0309 0.63332,0.0306 0.40237,-0.0113 0.789,-0.21469 1.02286,-0.54305 0.21048,-0.26537 0.35958,-0.57294 0.49074,-0.88332 z"
         style="color:#000000;fill-opacity:1;fill-rule:nonzero;stroke:#0978ab;stroke-width:0.74282568999999998;stroke-linecap:butt;stroke-linejoin:miter;stroke-miterlimit:4;stroke-opacity:1;stroke-dasharray:none;stroke-dashoffset:0;marker:none;visibility:visible;display:inline;overflow:visible;enable-background:accumulate" />
      <path
         id="path2838"
         d="m 130,439.1479 c -0.50422,-0.0622 -1.00959,0.0162 -1.51078,0.0633 -0.27222,0.0417 -0.46482,-0.21717 -0.33317,-0.46092 0.0746,-0.22334 0.059,-0.45606 0.0356,-0.68566 -0.0174,-0.22472 -0.0397,-0.45364 0.007,-0.67644 0.17809,-0.14483 0.40714,0.0179 0.60574,0.016 0.2885,-0.0233 8.4e-4,-0.33113 0.17182,-0.43439 0.10546,-0.11949 0.4539,0.013 0.21268,0.11852 -0.20118,0.0901 -0.36039,-0.15162 -0.1567,-0.27725 0.18154,-0.20515 0.47388,-0.22291 0.71917,-0.14177 0.29567,0.10157 0.36416,-0.24232 0.56081,-0.36086 0.20157,-0.0938 0.51223,0.0562 0.41774,0.30996 -0.14722,0.17034 -0.0382,0.53238 0.22282,0.40353 0.24666,-0.0352 0.13465,0.35205 0.18967,0.50335 0.002,0.53344 -0.35778,0.97503 -0.74289,1.30566 -0.12783,0.11217 -0.26243,0.21667 -0.39955,0.31699 z"
         style="color:#000000;fill-opacity:1;fill-rule:nonzero;stroke:#0978ab;stroke-width:0.74282568999999998;stroke-linecap:butt;stroke-linejoin:miter;stroke-miterlimit:4;stroke-opacity:1;stroke-dasharray:none;stroke-dashoffset:0;marker:none;visibility:visible;display:inline;overflow:visible;enable-background:accumulate" />
      <path
         id="path2844"
         d="m 143.57143,235.93361 c 0.002,0.0179 2.85714,-0.0127 2.85714,0 0,0.11905 -0.47619,0 -0.35714,0 0.23809,0 0.50133,0.10648 0.71428,0 0.10648,-0.0532 -0.0842,-0.27296 0,-0.35714 0.0842,-0.0842 0.27297,0.0842 0.35715,0 0.0945,-0.0945 0,-0.92437 0,-1.07143 0,-1.30294 0.0583,-0.29884 -0.35715,-0.71429 -0.0842,-0.0842 0.0842,-0.27296 0,-0.35714 -0.0556,-0.0557 -1.37291,-0.0557 -1.42857,0 -0.11915,0.11915 0.11915,0.59514 0,0.71429 -0.0842,0.0842 -0.27296,-0.0842 -0.35714,0 -0.0842,0.0842 0.0842,0.27296 0,0.35714 -0.0842,0.0842 -0.27296,-0.0842 -0.35714,0 -0.0842,0.0842 0.0842,0.27296 0,0.35714 -0.16836,0.16836 -0.50133,-0.10648 -0.71429,0 -0.62087,0.31044 -1.19047,0.71429 -0.35714,1.07143 z"
         style="color:#000000;fill-opacity:1;fill-rule:nonzero;stroke:#0978ab;stroke-width:0.74282568999999998;stroke-linecap:butt;stroke-linejoin:miter;stroke-miterlimit:4;stroke-opacity:1;stroke-dasharray:none;stroke-dashoffset:0;marker:none;visibility:visible;display:inline;overflow:visible;enable-background:accumulate" />
      <path
         id="path2846"
         d="m 143.57143,240.93361 c -0.11115,-0.21611 0.16662,-0.90481 0,-1.07143 -0.0557,-0.0557 -1.37291,-0.0557 -1.42857,0 -0.0842,0.0842 0.0532,0.25066 0,0.35714 -0.0753,0.15059 -0.41039,0.19743 -0.35715,0.35715 0.21952,0.65854 0.71429,1.19047 1.78572,0.35714 z"
         style="color:#000000;fill-opacity:1;fill-rule:nonzero;stroke:#0978ab;stroke-width:0.74282568999999998;stroke-linecap:butt;stroke-linejoin:miter;stroke-miterlimit:4;stroke-opacity:1;stroke-dasharray:none;stroke-dashoffset:0;marker:none;visibility:visible;display:inline;overflow:visible;enable-background:accumulate" />
      <path
         id="path2848"
         d="m 150.71429,241.29075 c -0.0357,-0.70752 0.52605,-0.16891 0.71428,-0.35714 0.0842,-0.0842 0,-0.2381 0,-0.35714 0,-0.21795 0.13916,-1.28942 0,-1.42857 -0.0245,-0.0245 -1.70838,0.0773 -1.78571,0 -0.0945,-0.0945 0,-0.92437 0,-1.07143 0,-0.11905 -0.11905,-0.35715 0,-0.35715 0.11904,0 0.11904,0.35715 0,0.35715 -0.1494,0 -0.7134,-0.71517 -1.07143,-0.35715 -0.0568,0.0568 -0.12946,1.75447 0,2.14286 0.20273,0.60819 0.47619,1.19048 2.14286,1.42857 z"
         style="color:#000000;fill-opacity:1;fill-rule:nonzero;stroke:#0978ab;stroke-width:0.74282568999999998;stroke-linecap:butt;stroke-linejoin:miter;stroke-miterlimit:4;stroke-opacity:1;stroke-dasharray:none;stroke-dashoffset:0;marker:none;visibility:visible;display:inline;overflow:visible;enable-background:accumulate" />
      <path
         id="path2852"
         d="m 202.5,279.50504 c -2.73095,-2.04821 -1.13092,-0.65476 0.35714,-0.35714 0.23347,0.0467 0,-0.47619 0,-0.71429 0,-0.2381 0.23347,-0.76098 0,-0.71429 -0.62864,0.12573 -1.19047,0.47619 -0.35714,1.78572 z"
         style="color:#000000;fill-opacity:1;fill-rule:nonzero;stroke:#0978ab;stroke-width:0.74282568999999998;stroke-linecap:butt;stroke-linejoin:miter;stroke-miterlimit:4;stroke-opacity:1;stroke-dasharray:none;stroke-dashoffset:0;marker:none;visibility:visible;display:inline;overflow:visible;enable-background:accumulate" />
      <path
         id="path2856"
         d="m 238.57143,283.43361 c -0.43287,0.10096 -1.179,-0.21331 -1.40924,0.0999 0.0985,0.64581 -0.85143,-0.13131 -0.75294,0.51452 -0.0749,0.46939 -1.1814,-0.37122 -1.04048,0.39358 -0.19901,0.0724 -0.77951,0.11771 -0.54975,0.47776 0.26757,0.0234 0.67324,-0.47867 0.18098,-0.41432 -0.31415,0.4894 -0.9353,0.49142 -1.39989,0.2455 -0.44152,-0.32669 -0.86568,-0.80533 -1.47064,-0.5523 -0.68564,0.0415 -0.2132,-0.80259 -0.40607,-1.19392 -0.0439,-0.39234 0.0972,-1.01461 0.42878,-1.16404 -0.0575,0.71999 0.7316,-0.0841 0.35653,-0.41565 -0.12615,-0.30946 0.13951,-0.7159 0.43995,-0.39233 0.42878,0.067 0.10547,-0.65589 0.56391,-0.44326 0.23929,-0.1234 -0.09,-0.48171 0.2614,-0.32148 0.3004,-0.0195 0.10415,-0.69373 0.14998,-0.15215 0.10217,0.26317 0.35716,-0.47442 0.67678,-0.32635 0.67952,0.0109 1.36048,0.064 2.03583,0.14414 0.4108,-0.13437 -0.14956,-1.04503 0.5063,-0.78531 0.18236,-0.16466 -0.23713,-0.64252 0.0335,-0.65849 -0.31703,0.52484 0.68734,0.20739 0.29594,-0.1527 0.0138,-0.55715 0.79463,-0.21732 1.15257,-0.2647 0.74346,0.0362 1.41293,-0.3963 2.15434,-0.38488 0.44947,-0.15187 0.85123,0.12463 0.6494,0.59277 1.2e-4,0.76552 9.3e-4,1.53105 -2e-5,2.29657 -0.46778,-0.16359 -0.43639,0.3131 -0.29658,0.58711 -0.1134,0.23968 -0.5757,0.0199 -0.42365,0.40207 -0.11357,0.84481 -0.90059,1.36919 -1.62995,1.66902 -0.167,0.0713 -0.33667,0.13607 -0.50698,0.19895 z"
         style="color:#000000;fill-opacity:1;fill-rule:nonzero;stroke:#0978ab;stroke-width:0.74282568999999998;stroke-linecap:butt;stroke-linejoin:miter;stroke-miterlimit:4;stroke-opacity:1;stroke-dasharray:none;stroke-dashoffset:0;marker:none;visibility:visible;display:inline;overflow:visible;enable-background:accumulate" />
      <path
         id="path2858"
         d="m 297.5,282.71932 c -0.15281,-0.50506 -1.00198,-0.51955 -0.71276,0.1182 0.007,0.66129 -0.032,1.33097 0.0374,1.98568 -0.26444,-0.0401 -0.0163,-0.54714 0.0666,-0.12923 0.0869,0.26096 0.24926,0.6998 0.60876,0.52535 -0.1323,0.33053 0.14642,0.42294 0.36422,0.39193 0.25883,0.41357 0.72079,0.31309 1.08563,0.36633 0.24495,0.26533 0.56719,0.45931 0.91044,0.27571 0.54252,0.17754 -0.3347,1.18649 0.40357,1.13527 0.37833,0.12638 0.55458,-0.16053 0.50998,-0.44307 0.21825,-0.21825 0.43649,-0.43649 0.65473,-0.65474 0.734,0.11455 0.29441,-0.92209 0.36597,-1.34056 0.0216,-0.45372 -0.24072,-1.2672 0.10318,-1.49804 0.44405,-0.0312 0.64492,-0.62231 1.15495,-0.35225 0.45886,0.19088 0.67447,-0.22473 0.4618,-0.58904 0.10314,-0.29713 0.60316,-0.0211 0.41641,-0.47418 -0.11539,-0.29432 0.0856,-0.51382 0.3588,-0.39887 0.12106,-0.16305 -0.23259,-0.87953 0.10349,-0.57799 0.0285,0.32784 -0.68062,0.72795 -0.38664,0.15411 0.0998,-0.27814 0.22526,-0.82304 0.63631,-0.63746 0.009,-0.40511 0.23442,-1.21284 -0.39685,-1.11113 -0.46296,-0.46296 -0.92591,-0.92591 -1.38887,-1.38887 -0.332,-0.1194 -1.20655,0.3394 -1.05071,-0.32109 -0.44147,-0.26697 -1.1522,-0.13773 -1.39187,0.33876 -0.1558,0.25554 0.12823,0.84553 -0.28151,0.59665 -0.36492,0.34356 -0.0984,0.88625 -0.1324,1.31907 0.0304,0.64104 0.10371,1.29033 0.0253,1.92857 -0.20632,0.1059 -0.66175,0.0636 -0.41554,0.45272 0.26902,0.4239 -0.24891,1.38906 -0.67824,1.04484 0.2261,-0.62634 -0.66709,-0.49295 -1.03627,-0.6355 -0.13261,-0.0235 -0.26534,-0.0485 -0.39584,-0.0812 z"
         style="color:#000000;fill-opacity:1;fill-rule:nonzero;stroke:#0978ab;stroke-width:0.74282568999999998;stroke-linecap:butt;stroke-linejoin:miter;stroke-miterlimit:4;stroke-opacity:1;stroke-dasharray:none;stroke-dashoffset:0;marker:none;visibility:visible;display:inline;overflow:visible;enable-background:accumulate" />
      <path
         id="path2864"
         d="m 305.71429,295.57647 c -0.95238,0 0.11904,-0.11905 -0.35715,0.35714 -0.0842,0.0842 -0.23809,0 -0.35714,0 -0.11905,0 -0.27296,0.0842 -0.35714,0 -0.73894,-0.73894 1.1292,0.0289 -0.35715,-0.71429 -0.10647,-0.0532 -0.23809,0 -0.35714,0 -0.11905,-0.11904 -0.20656,-0.28185 -0.35714,-0.35714 -0.10648,-0.0532 -0.27296,0.0842 -0.35714,0 -0.16836,-0.16836 0.16835,-0.54593 0,-0.71428 -0.0842,-0.0842 -0.30391,0.10648 -0.35715,0 -0.10648,-0.21296 0,-0.47619 0,-0.71429 0,-0.11905 -0.11904,-0.35714 0,-0.35714 0.11905,0 0,0.47619 0,0.35714 0,-0.2381 -0.10648,-0.50133 0,-0.71429 0.0532,-0.10648 0.35715,-0.11904 0.35715,0 0,0.11905 -0.47619,0 -0.35715,0 0.2381,0 0.47619,0 0.71429,0 0.11905,0 0.35714,-0.11904 0.35714,0 0,0.11905 -0.35714,0.11905 -0.35714,0 0,-0.16835 0.20656,-0.28185 0.35714,-0.35714 0.10648,-0.0532 0.27297,0.0842 0.35714,0 0.17047,-0.17047 -0.17336,-2.32663 0,-2.5 0.0184,-0.0184 1.9391,0 2.14286,0 0.2381,0 0.50133,-0.10648 0.71429,0 0.0455,0.0228 -0.0958,1.59423 0,1.78572 0.0753,0.15058 0.28185,0.20655 0.35714,0.35714 0.10648,0.21296 -0.16836,0.54593 0,0.71428 0.0842,0.0842 0.38049,-0.11673 0.35714,0 -0.12572,0.62865 -0.47619,1.19048 -2.14285,2.85715 z"
         style="color:#000000;fill-opacity:1;fill-rule:nonzero;stroke:#0978ab;stroke-width:0.74282568999999998;stroke-linecap:butt;stroke-linejoin:miter;stroke-miterlimit:4;stroke-opacity:1;stroke-dasharray:none;stroke-dashoffset:0;marker:none;visibility:visible;display:inline;overflow:visible;enable-background:accumulate" />
      <path
         id="path2866"
         d="m 316.42857,301.29075 c -0.0199,0.10313 0.0616,0.55079 -0.0633,0.25513 -0.54023,10e-4 -0.25646,0.7347 -0.32,1.07684 0.007,0.7778 0.0733,1.56633 -0.0427,2.33642 0.001,0.46198 0.60715,0.36438 0.42147,-0.0754 0.14787,0.0783 -0.0408,0.52349 -0.007,0.1359 -0.0201,-0.5141 -0.098,-1.03284 -0.0108,-1.54492 0.19463,-0.0128 0.73813,-0.10345 0.47295,-0.38 -0.16581,-0.0193 -0.4535,-0.0381 -0.14792,-0.16172 0.39279,-0.34668 0.92724,-0.22368 1.38208,-0.1711 0.2632,-0.16545 0.46718,-0.5034 0.80025,-0.41003 -0.0236,-0.26817 0.0686,-0.54334 0.37961,-0.32693 0.54062,0.14825 0.32773,-0.51672 0.35926,-0.82624 -0.004,-0.49213 -0.0194,-0.98466 0.005,-1.4765 0.19145,-0.23884 -0.034,-0.8548 -0.37158,-0.57438 0.035,0.16698 0.60504,0.41564 0.14565,0.33329 -0.44994,0.003 -0.38538,-0.81761 -0.82813,-0.69326 -0.56629,0.2421 -0.82945,0.88589 -1.38536,1.13873 -0.58736,0.23952 -0.67043,-0.61086 -0.23514,-0.8456 0.29009,-0.29169 0.62019,-0.56312 0.83761,-0.91471 0.0534,-0.36101 -0.53724,0.0932 -0.74609,-0.14576 -0.26224,-0.41094 -0.76498,-0.4162 -1.21598,-0.39105 -0.52506,-7.4e-4 -1.05109,0.0268 -1.57256,0.0898 -0.10612,0.52205 0.044,1.0528 -10e-4,1.58021 -0.0249,0.12706 0.11968,0.70272 -0.0728,0.45122 -0.0695,-0.48214 0.49616,-0.10845 0.41643,0.18275 -0.12009,0.45818 0.4047,0.21752 0.67144,0.27122 0.41585,-0.0135 0.8046,0.24022 0.96128,0.62583 0.0717,0.14691 0.1242,0.30341 0.16716,0.46028 z"
         style="color:#000000;fill-opacity:1;fill-rule:nonzero;stroke:#0978ab;stroke-width:0.74282568999999998;stroke-linecap:butt;stroke-linejoin:miter;stroke-miterlimit:4;stroke-opacity:1;stroke-dasharray:none;stroke-dashoffset:0;marker:none;visibility:visible;display:inline;overflow:visible;enable-background:accumulate" />
      <path
         id="path2872"
         d="m 338.57143,314.86218 c 0.45122,0.24442 0.79555,0.65194 1.26477,0.86557 0.2221,0.0136 0.18342,-0.28337 0.11868,-0.42009 -0.15065,-0.42752 -0.54475,-0.6899 -0.8682,-0.97941 -0.22731,-0.19683 -0.4694,-0.40238 -0.58862,-0.68586 -0.0296,-0.20859 0.2428,-0.2367 0.39493,-0.23574 0.4241,-0.0227 0.84948,0.0584 1.27223,0.009 0.17454,-0.0333 0.38269,-0.11437 0.53948,0.009 0.128,0.14285 0.004,0.33284 -0.0249,0.49012 -0.12589,0.50402 -0.0955,1.04719 -0.31573,1.52604 -0.0827,0.18017 -0.3301,0.21283 -0.46594,0.0746 -0.19876,-0.17058 -0.0392,-0.45661 -0.16047,-0.659 -0.11355,-0.14026 -0.31942,-0.13215 -0.48359,-0.1213 -0.23044,0.0247 -0.45835,0.0693 -0.68262,0.12672 z"
         style="color:#000000;fill-opacity:1;fill-rule:nonzero;stroke:#0978ab;stroke-width:0.74282568999999998;stroke-linecap:butt;stroke-linejoin:miter;stroke-miterlimit:4;stroke-opacity:1;stroke-dasharray:none;stroke-dashoffset:0;marker:none;visibility:visible;display:inline;overflow:visible;enable-background:accumulate" />
      <path
         id="path2876"
         d="m 335,311.6479 c -0.23693,-0.14293 -0.60564,0.20909 -0.75652,-0.0873 -0.0809,-0.20991 -0.008,-0.54843 0.0436,-0.6824 0.0209,-0.51217 -0.0986,-1.02236 -0.0565,-1.53322 0.0365,-0.31127 0.30385,-0.56768 0.6202,-0.57468 0.37864,-0.0397 0.74835,0.15449 1.12467,0.0816 0.24497,-0.11064 0.0794,-0.40883 0.0594,-0.60358 -0.14543,-0.25229 0.45162,-0.33727 0.33974,-0.12777 -0.13996,0.13495 -0.46202,-0.0716 -0.16425,-0.1534 0.25554,-0.1462 0.55433,-0.31145 0.85699,-0.21714 0.21607,0.0215 -0.0408,-0.50436 0.10401,-0.30914 -0.13447,0.27713 0.12654,0.45134 0.30349,0.59958 0.11933,0.26292 0.07,0.56379 0.0863,0.84497 -10e-4,0.29296 -0.006,0.60671 -0.18307,0.8551 -0.53314,0.89932 -1.49315,1.41907 -2.37807,1.90739 z"
         style="color:#000000;fill-opacity:1;fill-rule:nonzero;stroke:#0978ab;stroke-width:0.74282568999999998;stroke-linecap:butt;stroke-linejoin:miter;stroke-miterlimit:4;stroke-opacity:1;stroke-dasharray:none;stroke-dashoffset:0;marker:none;visibility:visible;display:inline;overflow:visible;enable-background:accumulate" />
      <path
         id="path2880"
         d="m 374.28571,309.86218 c -0.604,0.89744 -2.46943,-0.1986 -2.40117,0.83965 -0.45692,0.75777 -0.72383,1.30335 -0.42477,1.7552 -1.14544,0.47585 -2.41861,0.78769 -3.67945,0.63599 -0.89888,-0.39421 -2.39065,1.16047 -1.11063,1.29168 0.54651,-0.21487 0.74168,1.45482 0.79649,2.08486 0.51289,0.92656 1.2746,1.70166 1.4696,2.81787 0.67602,1.38203 2.72598,1.25685 3.64678,0.19816 1.3965,-0.61541 1.53058,1.86917 3.187,1.37223 0.78131,-0.4037 -0.0872,-1.70946 0.64566,-2.21331 0.21635,-1.10867 -0.0224,-2.1126 -0.72492,-2.91328 -0.2345,-1.1318 0.49709,-2.15159 0.42622,-3.28385 -0.40627,-0.84773 -0.15433,-2.08893 -1.07867,-2.618 -0.25,-0.0719 -0.50088,0.0274 -0.75214,0.0328 z"
         style="color:#000000;fill-opacity:1;fill-rule:nonzero;stroke:#0978ab;stroke-width:0.74282568999999998;stroke-linecap:butt;stroke-linejoin:miter;stroke-miterlimit:4;stroke-opacity:1;stroke-dasharray:none;stroke-dashoffset:0;marker:none;visibility:visible;display:inline;overflow:visible;enable-background:accumulate" />
      <path
         id="path3659"
         d="m 591.07143,467.36218 c 0.65476,0.4881 0.23809,-0.71428 0.35714,-0.71428 0.11905,0 0,0.23809 0,0.35714 0.11905,-0.11905 0.20656,-0.28185 0.35715,-0.35714 0.21295,-0.10648 0.54592,0.16835 0.71428,0 0.0842,-0.0842 0,-0.2381 0,-0.35715 0,-0.11904 0.0842,-0.27296 0,-0.35714 -0.0842,-0.0842 -0.35714,0.11905 -0.35714,0 0,-0.11905 0.47619,0 0.35714,0 -0.71428,0 -1.42857,0 -2.14286,0 -0.11904,0 -0.35714,0.11905 -0.35714,0 0,-0.11905 0.47619,0 0.35714,0 -0.23793,0 -1.35087,-0.0777 -1.42857,0 -0.0842,0.0842 0,0.2381 0,0.35714 0,0.71429 0,1.42857 2.14286,1.07143 z"
         style="color:#000000;fill-opacity:1;fill-rule:nonzero;stroke:#0978ab;stroke-width:0.74282568999999998;stroke-linecap:butt;stroke-linejoin:miter;stroke-miterlimit:4;stroke-opacity:1;stroke-dasharray:none;stroke-dashoffset:0;marker:none;visibility:visible;display:inline;overflow:visible;enable-background:accumulate" />
      <path
         id="path3686"
         d="m 108.92857,666.29075 c -0.83333,0 -1.66667,0 -2.5,0 0.15058,0.15786 -0.081,0.51829 -0.0247,0.15963 0.0261,-0.3357 -0.2467,0.3256 -0.46961,0.21833 -0.29758,-0.0567 -0.94404,0.21741 -0.94686,-0.24648 0.1228,-0.29422 -0.5827,0.0338 -0.33526,-0.37515 -0.0292,-0.41182 -0.7989,-0.18338 -0.72862,-0.64408 0.12292,-0.38773 -0.51708,-0.01 -0.39749,-0.46117 0.0677,-0.37351 -0.0943,-0.78938 0.0862,-1.13512 0.13194,-0.11 0.40492,0.12024 0.32132,-0.19329 -0.11357,-0.37423 0.67492,-0.0113 0.39764,-0.51631 -0.38905,-0.22398 0.34255,-0.42884 0.57597,-0.40637 0.3106,0.0285 0.6318,0.11759 0.93521,-0.0123 0.58962,-0.20953 1.13873,-0.52976 1.74635,-0.68805 0.25055,0.0787 0.77717,0.16082 0.62477,-0.26533 0.27082,-0.2356 0.74494,-0.0787 1.06941,-0.0625 0.22744,0.26232 0.52527,0.49842 0.86646,0.27608 0.45529,0.0438 0.11047,0.52171 0.18194,0.74792 0.22452,0.0332 0.69398,0.0263 0.38872,0.36696 -0.42048,0.63403 -0.88194,1.24448 -1.20397,1.93813 -0.21401,0.42451 -0.40603,0.86001 -0.58743,1.29916 z"
         style="color:#000000;fill-opacity:1;fill-rule:nonzero;stroke:#0978ab;stroke-width:0.74282568999999998;stroke-linecap:butt;stroke-linejoin:miter;stroke-miterlimit:4;stroke-opacity:1;stroke-dasharray:none;stroke-dashoffset:0;marker:none;visibility:visible;display:inline;overflow:visible;enable-background:accumulate" />
      <path
         id="path3690"
         d="m 129.28571,592.36218 c -0.20974,-0.0305 -0.42661,-4.4e-4 -0.63906,3.7e-4 -0.1334,-0.0125 -0.33922,0.0475 -0.42835,-0.0213 0.0828,-0.12295 0.42887,-0.0902 0.33778,0.10668 -0.081,0.16623 -0.27937,0.25415 -0.31836,0.447 -0.0896,0.27678 0.1023,0.54184 0.077,0.8177 -0.11343,0.20907 -0.19805,-0.0684 -0.13889,-0.1832 0.009,-0.0961 0.0507,-0.14373 0.0385,-0.0306 -0.002,0.23168 0.004,0.46375 -0.003,0.69517 -0.0383,0.12716 -0.0802,0.35945 0.12482,0.34616 0.41162,0.0319 0.82162,-0.0608 1.23318,-0.0253 0.25772,0.004 0.51731,0.0268 0.77402,-0.002 0.0857,-0.14585 0.11906,-0.33252 0.12932,-0.5044 0.0144,-0.46299 -0.28603,-0.8568 -0.60219,-1.16309 -0.18184,-0.17599 -0.37988,-0.33448 -0.58428,-0.48338 z"
         style="color:#000000;fill-opacity:1;fill-rule:nonzero;stroke:#0978ab;stroke-width:0.74282568999999998;stroke-linecap:butt;stroke-linejoin:miter;stroke-miterlimit:4;stroke-opacity:1;stroke-dasharray:none;stroke-dashoffset:0;marker:none;visibility:visible;display:inline;overflow:visible;enable-background:accumulate" />
      <path
         id="path3693"
         d="m 263.21429,739.1479 c 0.10649,-0.006 0.33726,0.0117 0.36254,0.006 -0.27723,-0.0581 -0.0352,-0.51479 0.18083,-0.34981 0.21209,0.0659 0.22871,-0.16166 0.14284,-0.29354 0.0663,-0.2327 0.38797,0.0844 0.44389,-0.17102 0.11065,-0.16957 -0.10637,-0.36963 -0.21182,-0.15473 -0.0493,0.0765 -0.23661,0.40843 -0.19264,0.15889 0.0632,-0.29232 0.40989,-0.48293 0.34993,-0.80749 -0.008,-0.15008 -0.21768,-0.50313 0.021,-0.51323 0.13939,0.0969 0.0164,0.4995 -0.10292,0.23658 -0.12037,-0.20168 -0.11238,-0.48648 -0.31613,-0.63166 -0.0793,-0.0151 -0.35553,0.12359 -0.28145,-0.009 0.1317,0.062 0.44666,0.0914 0.24205,-0.11563 -0.24474,-0.20423 -0.5797,-0.23306 -0.88307,-0.27696 -0.25722,-0.0288 -0.52375,-0.0431 -0.77468,0.0328 -0.1984,0.14083 -0.0287,0.40271 0.0241,0.57769 0.0477,0.12834 -0.13734,0.24557 -0.13072,0.0515 -0.0126,-0.10997 0.0735,-0.35055 0.0581,-0.10231 0.0245,0.40782 0.0463,0.82219 -0.0508,1.22293 -0.0868,0.53655 -0.18752,1.07091 -0.26169,1.60945 0.21163,-0.77113 0.36598,-1.56402 0.68974,-2.299 0.0598,-0.16348 0.27255,-0.50063 0.42479,-0.22506 0.12179,0.25507 0.13869,0.54494 0.18196,0.82101 0.0488,0.40888 0.0646,0.82339 0.0841,1.23272 z"
         style="color:#000000;fill-opacity:1;fill-rule:nonzero;stroke:#0978ab;stroke-width:0.74282568999999998;stroke-linecap:butt;stroke-linejoin:miter;stroke-miterlimit:4;stroke-opacity:1;stroke-dasharray:none;stroke-dashoffset:0;marker:none;visibility:visible;display:inline;overflow:visible;enable-background:accumulate" />
      <path
         id="path3697"
         d="m 269.28571,741.29075 c -0.0979,0.30298 0.242,0.86254 -0.34111,0.72226 -0.23051,0.35395 0.0333,0.79549 0.023,1.18418 0.0136,0.40839 -0.58542,0.52204 -0.42973,0.98873 0.0111,0.45146 0.0953,0.9022 0.0513,1.3539 -0.23209,0.0387 -0.51576,0.0244 -0.4052,0.35967 -0.0135,0.39897 -0.0453,0.84109 0.31521,1.10953 0.30188,0.24184 0.78956,1.00023 1.16744,0.60742 -0.0148,-1.28573 -0.006,-2.58198 -0.0273,-3.87176 -0.1381,-0.5978 0.74494,-0.24151 1.0846,-0.29928 0.55002,0.1573 0.31417,-0.48572 0.15948,-0.75822 -0.36458,-0.62274 -1.00755,-1.01477 -1.59775,-1.39643 z"
         style="color:#000000;fill-opacity:1;fill-rule:nonzero;stroke:#0978ab;stroke-width:0.74282568999999998;stroke-linecap:butt;stroke-linejoin:miter;stroke-miterlimit:4;stroke-opacity:1;stroke-dasharray:none;stroke-dashoffset:0;marker:none;visibility:visible;display:inline;overflow:visible;enable-background:accumulate" />
      <path
         id="path3701"
         d="m 580.71429,638.07647 c -0.15318,-0.2297 -0.71411,0.28673 -0.66615,-0.0505 0.15681,-0.0414 0.45141,0.0852 0.11337,0.051 -0.43955,0.006 -0.88126,-0.0151 -1.31945,0.0123 -0.127,0.11759 -0.41142,-0.0681 -0.13064,-0.0165 0.29743,0.11632 0.19644,-0.16186 0.003,-0.21281 -0.30404,-0.17031 -0.0802,-0.47638 -0.0949,-0.72472 -0.007,-0.34045 -0.50783,0.0921 -0.40698,-0.29258 0.0744,-0.37905 -0.52366,-0.16696 -0.76036,-0.21769 -0.41257,-0.10998 -0.43856,0.32521 -0.32346,0.59755 0.0365,0.36696 -0.0543,0.73526 -0.0282,1.10074 0.0784,0.24953 0.53407,-0.0507 0.3982,0.33308 -0.003,0.35207 0.53198,0.13941 0.76469,0.18246 0.696,-0.0729 1.39567,-0.0411 2.09401,-0.0478 -0.23809,0 -0.47619,0 -0.71428,0 0.41238,0.009 0.86996,0.17268 1.24209,-0.0853 0.20099,-0.0875 0.59482,-0.40674 0.2562,-0.57646 -0.13632,-0.0462 -0.28446,-0.0491 -0.42719,-0.0526 z"
         style="color:#000000;fill-opacity:1;fill-rule:nonzero;stroke:#0978ab;stroke-width:0.74282568999999998;stroke-linecap:butt;stroke-linejoin:miter;stroke-miterlimit:4;stroke-opacity:1;stroke-dasharray:none;stroke-dashoffset:0;marker:none;visibility:visible;display:inline;overflow:visible;enable-background:accumulate" />
      <path
         id="path3705"
         d="m 602.14286,625.21932 c 0.10578,0.33337 -0.0113,0.6766 -0.26724,0.90256 -0.16344,0.23733 0.0528,0.68592 -0.40195,0.5182 -0.27847,0.20194 0.0315,0.63841 -0.0432,0.93838 -0.10696,0.35354 0.19136,-0.20374 0.32164,0.11305 0.0984,0.20136 0.0826,0.59712 0.013,0.72477 -0.23537,-0.21599 0.15764,-0.53582 0.23504,-0.12758 0.099,0.31461 0.64974,-0.0658 0.49005,0.35774 0.026,0.41966 0.60457,-0.0977 0.33026,-0.3833 -0.11201,-0.37524 0.65659,0.002 0.36824,-0.45744 0.0516,-0.2236 0.53205,0.0805 0.37883,-0.29185 -0.0576,-0.33789 0.55521,0.0275 0.43147,-0.4259 -0.007,-0.34892 -0.18248,-0.68789 -0.12664,-1.03603 0.13658,-0.21732 0.61396,-0.012 0.43023,-0.47037 0.11082,-0.45614 -0.37445,-0.66333 -0.58625,-0.99016 -0.31836,-0.35517 -0.62593,-0.74398 -1.04001,-0.99003 -0.37215,0.0767 -0.0807,0.59314 0.15024,0.7088 0.44058,0.37357 1.04524,0.49699 1.46616,0.89237 0.31112,0.44589 -0.45989,0.6587 -0.69539,0.30336 -0.33805,-0.27418 -0.77806,-0.68025 -1.24082,-0.43444 -0.0774,0.0395 -0.14865,0.0911 -0.21366,0.14787 z"
         style="color:#000000;fill-opacity:1;fill-rule:nonzero;stroke:#0978ab;stroke-width:0.74282568999999998;stroke-linecap:butt;stroke-linejoin:miter;stroke-miterlimit:4;stroke-opacity:1;stroke-dasharray:none;stroke-dashoffset:0;marker:none;visibility:visible;display:inline;overflow:visible;enable-background:accumulate" />
      <path
         id="path3709"
         d="m 621.07143,481.29075 c 0.12849,-0.48147 0.35961,-0.93029 0.4645,-1.41874 -0.2834,-0.0216 -0.43971,0.52094 -0.54675,0.78707 -0.10594,0.38803 -0.22613,0.77655 -0.3022,1.16992 -0.0318,0.18471 0.0365,0.83845 0.0273,0.34231 -0.004,-0.15692 0.007,-0.75872 -0.009,-0.31568 -0.0407,0.3598 -0.17921,1.02959 0.36556,0.91001 0.0284,0.34147 -0.081,0.77862 0.19005,1.04747 0.28521,0.15354 0.64105,-0.28966 0.87996,-0.0106 -0.0633,0.27081 0.0669,0.52549 0.3736,0.33401 0.20097,-0.17994 0.50158,0.0966 0.12576,0.0587 -0.33774,-0.0891 0.36403,-0.021 0.46507,-0.0236 0.36006,0.0376 1.12453,0.10982 0.7973,-0.46798 -0.13487,-0.34687 0.22858,-0.21623 0.39233,-0.3081 -0.0486,-0.20949 -0.0358,-0.43277 0.26725,-0.30886 0.309,0.0302 0.10186,-0.83289 0.0807,-0.6351 0,0.20858 0,0.41715 0,0.62573 -0.0447,-0.32624 0.23771,-0.98247 -0.13504,-1.08219 -0.43817,0.11054 -0.0898,-0.51376 -0.40826,-0.69784 -0.0811,-0.23724 -0.22348,-0.24181 -0.17885,0.0329 -0.0699,0.37836 -0.53361,-0.14426 -0.32828,-0.35963 -0.0587,-0.10518 -0.56282,0.0245 -0.24597,-0.0455 0.48664,0.1264 -0.0595,-0.38163 -0.27381,-0.3699 -0.66375,-0.21619 -1.50769,-0.071 -1.90233,0.55223 -0.0378,0.0581 -0.0716,0.12217 -0.0985,0.18346 z"
         style="color:#000000;fill-opacity:1;fill-rule:nonzero;stroke:#0978ab;stroke-width:0.74282568999999998;stroke-linecap:butt;stroke-linejoin:miter;stroke-miterlimit:4;stroke-opacity:1;stroke-dasharray:none;stroke-dashoffset:0;marker:none;visibility:visible;display:inline;overflow:visible;enable-background:accumulate" />
      <path
         id="path3713"
         d="m 621.78572,488.43361 c 0.0728,-0.24877 -0.0318,-0.50338 -0.0488,-0.75354 -0.0502,-0.1774 0.0431,-0.4392 0.26884,-0.3564 0.15735,0.0264 0.34625,0.15755 0.49163,0.0367 0.0504,-0.1197 -0.11875,-0.43065 0.14409,-0.39039 0.17339,0.0724 0.35816,-0.0103 0.53098,0.009 0.17937,0.1061 0.10871,0.3489 0.073,0.51275 -0.11559,0.18505 0.10416,0.45097 -0.037,0.58082 -0.13446,-0.0268 0.0888,-0.46702 -0.0477,-0.24928 -0.16114,0.31031 -0.31464,0.65654 -0.61907,0.85241 -0.27966,0.15103 -0.56462,-0.0464 -0.75596,-0.24213 z"
         style="color:#000000;fill-opacity:1;fill-rule:nonzero;stroke:#0978ab;stroke-width:0.74282568999999998;stroke-linecap:butt;stroke-linejoin:miter;stroke-miterlimit:4;stroke-opacity:1;stroke-dasharray:none;stroke-dashoffset:0;marker:none;visibility:visible;display:inline;overflow:visible;enable-background:accumulate" />
      <path
         id="path3717"
         d="m 615.35714,502.71932 c -0.15923,0.30217 -0.41785,-0.0334 -0.37793,-0.258 -0.0558,-0.14403 -0.0157,-0.6487 0.15965,-0.34899 0.0469,0.23602 -0.32203,0.39239 -0.4067,0.13497 -0.13196,-0.32841 -0.0703,-0.69551 -0.1174,-1.03996 0.0254,-0.19641 -0.13614,-0.64355 0.15562,-0.64658 0.22281,0.12882 0.28999,-0.0756 0.21442,-0.25737 0.0884,-0.22829 0.4678,-0.0529 0.67046,-0.11107 0.1999,-0.01 0.57169,-0.0281 0.39718,0.27309 -0.056,0.2961 0.51623,-0.0842 0.37551,0.26123 -0.10474,0.23536 0.1318,0.26168 0.28288,0.17352 0.18561,0.12029 0.10226,0.43884 0.0685,0.63649 -0.1477,0.51079 -0.64238,0.80593 -1.0879,1.03149 -0.10994,0.0536 -0.22177,0.10332 -0.3343,0.15118 z"
         style="color:#000000;fill-opacity:1;fill-rule:nonzero;stroke:#0978ab;stroke-width:0.74282568999999998;stroke-linecap:butt;stroke-linejoin:miter;stroke-miterlimit:4;stroke-opacity:1;stroke-dasharray:none;stroke-dashoffset:0;marker:none;visibility:visible;display:inline;overflow:visible;enable-background:accumulate" />
      <path
         id="path3721"
         d="m 618.92857,498.07647 c 0.24843,-0.48621 0.56108,-0.93719 0.79498,-1.43114 -0.0607,-0.12953 -0.2663,0.25806 -0.33422,0.33324 -0.39753,0.61636 -0.72642,1.29159 -0.88564,2.01047 -0.0675,0.2391 -0.0177,0.67349 0.33363,0.50116 0.25255,-0.009 0.38144,0.48381 0.01,0.36889 -0.35183,0.0122 0.22765,0.2379 0.32471,0.30416 0.10025,0.0662 0.49584,0.20239 0.43707,0.0259 -0.18722,-0.15244 -0.60061,-0.21303 -0.69551,-0.31854 0.38841,-0.0303 0.67554,0.34149 1.05794,0.34193 0.17742,-0.10609 -0.055,-0.44371 0.0368,-0.64518 0.0263,-0.57957 0.0762,-1.19615 -0.17502,-1.73703 -0.1579,-0.30493 -0.54333,-0.10839 -0.71912,0.074 -0.0633,0.0557 -0.12392,0.11481 -0.18554,0.17216 z"
         style="color:#000000;fill-opacity:1;fill-rule:nonzero;stroke:#0978ab;stroke-width:0.74282568999999998;stroke-linecap:butt;stroke-linejoin:miter;stroke-miterlimit:4;stroke-opacity:1;stroke-dasharray:none;stroke-dashoffset:0;marker:none;visibility:visible;display:inline;overflow:visible;enable-background:accumulate" />
      <path
         id="path3727"
         d="m 623.57143,492.71932 c 0.15181,0.3023 -0.10186,0.44988 -0.3511,0.35201 -0.0906,0.0755 -0.39439,0.57977 -0.325,0.24259 0.13475,-0.068 0.49962,-0.31408 0.13938,-0.1991 -0.27188,0.19024 -0.55197,0.38112 -0.89126,0.31855 -0.0911,0.0719 -0.35728,0.55529 -0.33445,0.25322 0.0955,-0.0787 0.54575,-0.31257 0.16765,-0.2261 -0.46189,0.0566 -0.67132,0.5 -0.58972,0.92499 0.0192,0.36066 -0.13123,0.99516 0.40964,0.8495 -0.16962,0.32288 0.18983,0.49458 0.44779,0.3119 0.29707,-0.13788 0.26756,0.22611 0.27033,0.36842 0.24434,-0.0861 0.61778,0.18838 0.32876,0.34955 -0.13693,-0.12213 0.0691,-0.49617 0.0121,-0.1439 10e-4,0.18806 -0.007,0.77761 -0.0485,0.68668 0.0268,-0.49989 0.6394,-0.17198 0.41077,0.18351 -0.22756,0.49253 0.41637,0.39896 0.70811,0.39809 0.43507,0.12183 0.47851,-0.30247 0.36745,-0.61309 -0.0952,-0.3145 0.009,-0.66589 0.2651,-0.87286 0.1417,-0.27908 0.0946,-0.62954 0.0425,-0.92963 -0.12099,-0.12725 -0.0245,-0.68831 0.0934,-0.34413 -0.0163,0.34273 -0.0731,0.11088 -0.0511,-0.0831 0,-0.37091 0,-0.74181 0,-1.11272 0.007,0.19077 -0.0483,0.73756 10e-4,0.68788 0.0837,-0.43357 0.22214,-1.02844 -0.19614,-1.33368 -0.2643,-0.15465 -0.58872,-0.1152 -0.87701,-0.0685 z"
         style="color:#000000;fill-opacity:1;fill-rule:nonzero;stroke:#0978ab;stroke-width:0.74282568999999998;stroke-linecap:butt;stroke-linejoin:miter;stroke-miterlimit:4;stroke-opacity:1;stroke-dasharray:none;stroke-dashoffset:0;marker:none;visibility:visible;display:inline;overflow:visible;enable-background:accumulate" />
    </g>
    <g
       transform="matrix(0.1930939,0,0,0.1930939,673.75413,435.85614)"
       style="display:inline;stroke:#0978ab;stroke-opacity:1;stroke-width:3.10729649999999991;stroke-miterlimit:4;stroke-dasharray:none;fill-opacity:1"
       id="g4647">
      <path
         sodipodi:nodetypes="ccccccccccccccccccccccccccccccccccccccccccccccccccccccccccccccccccccccccccccccccccccccccccccccccccccccccccccccccccccccccccccccccccccccccccc"
         id="path4588"
         d="m 187.12364,1033.4431 c 0.0602,0.8676 -0.4762,-10.6984 2.97777,-11.911 7.1755,-2.913 3.45527,-7.5677 4.96294,-15.2446 0.26108,-5.6203 0.97358,-13.55556 -2.97776,-20.4886 -1.4588,-3.37439 2.83957,-11.59906 10.91847,-2.97776 8.17363,-0.66709 2.72965,-14.87704 1.98517,-17.86659 -4.55732,-4.41028 -6.07909,-8.64155 -8.93329,-15.88141 -1.73192,-6.80807 -4.24697,-7.43446 -6.94812,-14.88883 -0.45227,2.87221 -5.37989,-8.38477 -7.94071,-9.92588 -2.30168,-7.46298 -2.448,-4.81308 -6.94811,-10.91847 -1.54241,-8.8325 -5.64035,-10.42483 -9.92589,-14.88883 -1.64114,-3.16362 -12.78216,0.10795 -10.91847,-7.94071 -0.56094,-7.68402 -3.76832,-8.67822 -5.95553,-11.91106 -4.64607,0.30006 -9.48763,-6.82406 -19.85177,-3.97035 -5.80513,2.32418 -11.39449,3.6874 -13.89623,6.94812 -7.32928,0.94713 -10.57585,5.78062 -10.91847,8.93329 -5.587566,6.65925 -16.855546,3.06981 -11.911063,-6.94811 7.510785,-3.10308 2.675273,-17.22477 -1.985177,-15.88142 -6.808981,-10.51854 0.624903,-7.11672 1.985177,-15.88141 -0.721503,-7.88973 8.874638,-5.67209 2.977765,-12.90365 -4.505398,-9.32842 -10.05867,-4.71564 -19.214912,-4.96294 -8.873383,-1.61467 -15.830596,-3.45782 -17.510856,-8.93329 -3.736745,-3.35938 -10.41324,-13.94739 -2.977765,-17.86659 8.565848,1.71292 15.29969,-7.58916 9.925883,-16.87401 -5.897246,-0.40148 -19.120883,-3.2242 -12.903648,-18.85917 1.293586,-6.23254 4.803657,-9.63781 8.933295,-12.90365 11.237693,-0.68489 2.606412,-15.71988 -1.985177,-12.90365 -1.395436,-9.17281 6.203666,-21.13223 5.95553,-24.81471 9.984122,-2.50823 13.692249,-10.20028 17.86659,-18.85918 1.917119,-8.70275 5.695627,-8.04044 5.95553,-17.86659 -3.683609,-13.02779 -3.449091,11.87078 -11.91106,8.9333 -7.482985,1.46921 1.457508,-5.01331 -3.970353,-10.91847 -2.75735,-3.42937 -6.718572,-8.73005 -3.970354,-10.91848 1.560707,-5.3701 1.736688,-7.96935 -0.248147,-11.16661 1.374377,-2.11859 -5.049468,-8.78065 2.233324,-10.67033 8.358928,-2.59073 11.550954,-3.07564 16.874002,-10.91847 2.545317,-5.00586 14.231156,0.75852 14.888826,-0.99259 2.01884,-4.16965 6.0034,-6.55884 11.5037,-5.95553 4.73281,-0.77404 8.58888,-6.14275 15.33049,-11.08968 9.7994,-5.32984 6.35645,4.76224 6.91381,11.08968 4.63072,7.62669 13.39576,6.04473 21.83695,7.94071 13.10909,3.74338 6.47306,-6.88794 1.98517,-12.90365 2.42151,-4.49465 7.67583,-14.53616 1.98518,-14.88882 -0.69856,-7.06862 -3.61623,-10.46174 2.97776,-11.91106 -3.12327,-4.66753 4.50824,-12.24764 10.91847,-9.92589 6.99013,-3.46455 19.49683,-2.98384 20.84436,-2.97776 5.18181,0.63621 11.47858,-1.30636 14.88882,0.99259 6.72949,-0.0734 -4.4799,17.99544 4.96295,18.85917 3.86129,2.58306 6.16373,-13.3875 6.94811,-11.91106 3.86673,-5.00316 9.76359,-7.99889 13.89624,-1.98517 0.73188,9.98477 -6.47564,9.54376 -4.96294,18.85918 -1.26953,-0.30429 11.47326,2.39876 12.90365,-0.99259 6.85384,-4.26343 11.58661,-1.45208 13.89623,-8.9333 10.44919,-0.13885 8.02493,-10.56529 15.88142,-11.91106 12.15919,-8.45244 5.48243,11.51338 16.874,6.94812 -0.29068,-6.78641 10.10474,-4.82305 12.90365,-10.91847 2.03987,3.042 5.34535,12.00827 9.92588,10.91847 1.99832,5.67683 -0.6901,11.17436 5.95553,16.874 3.03125,5.24032 3.03727,13.50587 8.93329,15.88142 1.0409,8.93002 10.56492,7.77606 15.88142,15.88141 3.17303,7.81694 12.93279,8.49056 23.59263,7.94071 13.70427,2.68348 18.18883,-2.06739 32.17018,-0.99259 10.32032,-0.13075 19.17919,0.80644 25.62943,-1.98518 11.49387,-0.60467 7.17753,-16.15156 14.88883,-19.85177 8.82621,1.35893 7.58606,-13.55313 19.85176,-6.94811 5.31608,3.52949 3.33212,11.0791 -0.99259,13.89623 -4.19321,7.22801 8.61873,8.02168 8.86062,2.8023 -2.65909,-6.55379 6.22748,-9.47139 14.9615,-7.76524 3.41692,-2.12027 8.5341,-3.03851 8.9333,-8.93329 4.37692,-5.18515 6.96958,-10.69118 14.88882,-10.91848 0.93677,2.43372 5.16332,7.7006 3.97036,11.91106 7.62199,6.35289 11.77342,5.25131 15.06429,13.82356 2.70812,3.23905 18.66656,3.26403 16.29118,4.04303 9.84073,-0.0156 20.40295,-0.88643 18.27394,1.98518 3.28449,5.66397 -0.15335,22.79647 7.05458,17.31459 3.49264,-8.95254 10.07704,-7.0409 20.33054,-7.38871 4.72736,1.32011 6.26514,-2.81099 15.06669,-1.98517 8.82784,-1.95733 2.53252,5.45309 12.14055,7.9407 2.16019,1.79585 24.63825,-3.72183 16.874,2.97777 -3.66972,4.85334 -14.47742,4.00214 -20.84435,3.97035 -8.33326,-0.92854 -19.49437,-9.04378 -19.85177,2.97777 1.45054,8.51159 16.96379,3.67731 13.89624,15.47405 0.88468,-0.40449 -1.99095,11.81466 1.98517,15.29618 5.90701,5.24015 0.51681,5.02768 0,10.91848 2.07023,3.63495 -2.56316,12.77205 -3.97035,15.88141 -1.85027,5.15395 -7.42608,10.5864 -8.93329,15.88141 -0.48232,7.74063 -15.50876,4.61356 -11.91106,13.89624 4.06291,7.30356 6.62574,8.37458 6.94811,15.88141 -0.90572,10.45173 6.225,6.41319 -1.98517,11.91106 -3.41301,5.63862 -8.98186,3.04775 -12.57567,-1.86845 -2.59362,-8.48939 -6.76142,-0.53105 -10.25386,3.85363 -3.20545,-1.08067 2.24328,12.61722 1.52679,10.3553 3.27312,1.72307 16.78464,4.87782 6.41391,10.48905 -5.30424,5.03925 -8.35307,3.62972 -12.76595,10.73488 7.35229,-7.51885 -2.46541,9.35202 -11.05617,7.13171 -5.68749,5.96203 -5.41848,6.40314 -15.88141,9.92589 -5.21312,2.20886 -7.42404,7.26602 -9.92588,9.92588 -6.39734,3.28742 -6.60626,5.926 -13.89624,7.94071 -0.78261,-3.99754 -16.44956,-6.72015 -16.021,-9.70876 -2.05671,-4.83595 -2.64248,-14.05845 -5.81594,-18.08372 -6.6659,-0.10383 0.20143,-15.55398 -7.94071,-12.90364 -3.39223,-9.43707 -13.75768,-8.26103 -18.51798,-12.19023 -12.88363,1.28497 -16.09608,-17.98238 -19.20038,-1.70601 -0.97614,6.73373 -7.02759,18.547 -4.96294,19.85177 1.37127,10.85113 -4.83089,9.57785 -4.96294,14.88882 -5.68221,-1.78856 -12.0115,-11.52405 -19.85177,-11.91106 2.31834,-5.74304 1.84136,-17.23211 -6.42791,-14.30284 -3.73483,3.23534 1.91918,-3.96884 -5.48315,3.38437 -5.39977,3.89235 -11.43027,-1.39213 -10.91847,-5.95553 -2.61453,-4.56446 -6.81091,-6.68541 -6.94812,-14.88883 -5.59528,-1.55362 -16.73292,2.00768 -15.88141,10.51112 2.37226,1.90352 -5.55039,7.12249 -4.60623,9.53839 3.04827,0.69371 2.49375,6.40498 -1.52868,11.66549 -4.21745,1.9261 -15.96319,-13.61983 -27.61309,-4.91511 0.20269,8.94066 -11.98149,8.11072 -7.94071,18.85918 6.0399,5.25913 6.46556,1.54712 15.88141,5.95553 6.08114,0.60901 3.50674,12.03166 3.97036,15.88141 -0.54686,7.37097 -8.14521,12.50729 -11.91106,18.85918 -3.27396,8.35238 -0.81559,10.12836 -5.95553,18.85918 -4.33112,5.38754 -12.45613,6.84413 -9.92589,14.88882 4.27075,13.79305 -16.68227,1.60958 -20.84435,8.9333 -3.34978,4.9723 -11.07192,6.02463 -12.90365,11.91106 -4.26954,6.44679 -7.6389,13.78221 -2.97776,20.84435 2.0545,5.04723 -3.91341,7.52506 -3.97036,15.47406 -0.34322,10.45095 1.62375,24.36446 2.73586,21.24198 3.6464,7.47327 8.74936,3.68636 12.15297,15.89116 0,2.9218 0,9.2582 0,18.8592 2.24658,5.8894 2.07394,14.85 3.97035,23.8221 4.13726,9.3365 4.01716,23.4262 3.97035,32.1185 -0.6592,6.6613 -10.15214,10.7151 -10.91847,14.5331 0.78477,0.5009 -6.10851,7.132 -5.95553,9.9259 -0.69534,6.329 -4.00433,6.8618 -15.06669,7.9408 -9.46029,-0.8081 -8.95577,-10.5867 -12.72578,-14.4815 -0.0241,-9.2857 -4.557,-7.507 -8.82684,-12.759 -3.18188,-1.7625 -6.17977,-9.0339 -7.05457,-14.4483 -2.43516,-4.8694 -15.64851,1.3861 -22.82953,-4.9629 -4.15583,-5.5669 -1.81222,-17.0848 -9.92589,-17.8666 -5.97741,-2.2619 -19.32181,1.7671 -19.85176,-5.9555 0.25294,-3.5034 -0.69009,-1.7023 0.99258,-7.9408 z"
         style="color:#000000;fill-opacity:1;fill-rule:nonzero;stroke:#0978ab;stroke-width:3.10729649999999991;stroke-linecap:butt;stroke-linejoin:miter;stroke-miterlimit:4;stroke-opacity:1;stroke-dasharray:none;stroke-dashoffset:0;marker:none;visibility:visible;display:inline;overflow:visible;enable-background:accumulate" />
      <path
         id="path4590"
         d="m 107.71658,600.67463 c -1.65431,-0.0131 -3.30872,0.0313 -4.96294,0 0.005,-0.64402 0.0694,-1.40302 -0.71045,-1.62433 -0.57431,-0.57033 -0.29265,-1.433 -0.31943,-2.14574 0.0386,-1.44591 0.0682,-2.89566 0.0126,-4.34025 -0.0134,-0.21618 -0.33072,-0.89987 0.11469,-0.73937 -0.0745,0.23827 -0.37048,1.141 0.18288,0.80195 0.30393,-0.59146 0.877,-1.15757 1.60632,-0.96237 1.40201,-0.025 2.80254,0.0718 4.20442,0.0672 0.48216,-0.3131 1.25717,0.1231 0.80956,0.69495 -0.0847,0.78021 1.11849,-0.14865 1.08724,0.55611 -0.21226,0.47793 -0.008,1.08967 0.58314,0.71678 0.78084,-0.13865 0.8673,1.01726 1.54514,1.03371 0.54758,-0.24086 1.10946,0.0656 0.74801,0.65849 0.0444,0.84066 1.04993,-0.16696 1.21681,0.58965 0.28576,0.36588 -0.27906,1.08462 -0.32261,0.36384 -0.0644,-0.27791 0.24751,-0.91529 0.16098,-0.28624 -0.043,0.97829 0.14876,1.99515 -0.16077,2.94273 -0.37981,0.63677 -1.21814,0.5878 -1.85551,0.74694 -1.32904,0.23546 -2.64772,0.53562 -3.94006,0.92594 z"
         style="color:#000000;fill-opacity:1;fill-rule:nonzero;stroke:#0978ab;stroke-width:3.10729649999999991;stroke-linecap:butt;stroke-linejoin:miter;stroke-miterlimit:4;stroke-opacity:1;stroke-dasharray:none;stroke-dashoffset:0;marker:none;visibility:visible;display:inline;overflow:visible;enable-background:accumulate" />
      <path
         transform="translate(106.72399,103.29727)"
         id="path4594"
         d="m 102.2366,473.55524 c 2.73325,-4.37367 -1.98518,-1.04935 -1.98518,-1.98517 0,-0.33087 1.32345,0 0.99259,0 -0.99259,0 -1.985178,0 -2.977766,0 -0.330863,0 -0.661726,0 -0.992588,0 -0.330863,0 -0.696656,-0.14797 -0.992589,0 -0.418512,0.20925 -0.661725,1.32345 -0.992588,0.99259 -0.330863,-0.33087 0.75185,-1.39382 0.992588,-0.99259 1.076614,1.79435 1.323451,3.97035 5.955533,1.98517 z"
         style="color:#000000;fill-opacity:1;fill-rule:nonzero;stroke:#0978ab;stroke-width:3.10729649999999991;stroke-linecap:butt;stroke-linejoin:miter;stroke-miterlimit:4;stroke-opacity:1;stroke-dasharray:none;stroke-dashoffset:0;marker:none;visibility:visible;display:inline;overflow:visible;enable-background:accumulate" />
      <path
         transform="translate(106.72399,103.29727)"
         id="path4596"
         d="m 134.99201,457.67383 c -0.66172,-0.99259 -1.45167,-1.91076 -1.98517,-2.97776 -0.14797,-0.29594 0,-0.66173 0,-0.99259 0,-0.33087 0,-0.66173 0,-0.99259 0,-1.65431 0,-3.30863 0,-4.96294 0,-0.33087 -0.33087,-0.99259 0,-0.99259 0.33086,0 0,1.32345 0,0.99259 0,-0.66173 -0.29594,-1.39331 0,-1.98518 0.14796,-0.29593 0.66172,0 0.99258,0 0.33087,0 0.66173,0 0.99259,0 0.33086,0 0.66173,0 0.99259,0 0.33086,0 0.99259,-0.33086 0.99259,0 0,0.33086 -1.32345,0 -0.99259,0 0.66173,0 1.39331,-0.29593 1.98518,0 0.26197,0.13099 -0.19763,1.39228 0,1.98518 0.23395,0.70186 0.75863,1.28331 0.99259,1.98517 0.10462,0.31389 0,0.66173 0,0.99259 0,1.98518 0,3.97036 -3.97036,6.94812 z"
         style="color:#000000;fill-opacity:1;fill-rule:nonzero;stroke:#0978ab;stroke-width:3.10729649999999991;stroke-linecap:butt;stroke-linejoin:miter;stroke-miterlimit:4;stroke-opacity:1;stroke-dasharray:none;stroke-dashoffset:0;marker:none;visibility:visible;display:inline;overflow:visible;enable-background:accumulate" />
      <path
         id="path4598"
         d="m 331.04895,561.96369 c -3.30863,2.31604 -6.61725,4.63208 -9.92588,6.94812 -2.18312,-0.85543 0.19074,2.84576 -1.98518,1.98517 -0.21351,0.44202 0.49504,2.85692 -0.24815,1.48889 0.42236,-1.45166 1.2751,1.47419 2.43297,0.55901 2.82943,-0.13355 5.67235,0.004 8.49525,-0.1228 1.45777,0.81092 3.00572,1.45495 4.71815,0.99718 1.09006,0.4686 1.92839,1.58347 3.39457,1.08791 3.66008,-0.0953 7.32419,-0.005 10.98486,-0.0398 0.0306,-1.00454 -0.27847,-1.03695 0.56996,-0.67853 0.8299,-0.26549 0.3109,-2.30693 0.32958,-0.46915 0.57907,0.31277 1.08791,-1.40771 2.07823,-0.8375 -0.60904,-2.44421 3.15616,0.33952 3.69755,-1.77123 0.77466,-0.32742 1.66467,0.0317 1.26539,-1.20653 1.17048,0.0977 2.29965,0.15163 2.24695,-0.95969 1.42825,0.57376 0.0436,-1.9507 1.7234,-1.02549 1.35026,1.15769 0.94214,-1.97474 0.99259,-0.49629 -0.049,1.85496 2.25841,-3.22151 1.81652,-0.90605 -1.38025,2.04702 -1.09469,-3.58929 0.15917,-1.58333 1.61285,1.01445 0.3314,-1.82623 1.99466,-0.98468 0.002,-1.74962 0.0646,-3.51363 -0.0465,-5.25762 -0.32757,-1.38211 0.58207,-0.1282 0.0465,0.29467 0.0122,-0.98499 0.011,-1.99979 -0.095,-2.94868 0.63913,0.27475 -0.20498,1.74999 0.17302,0.20065 0.29251,-0.92154 -0.14961,-1.59042 -1.07062,-1.22232 0.19349,-1.30818 0.13754,-2.76305 -1.72079,-1.93938 -1.36922,0.65818 -1.16841,-0.55364 -1.42408,-1.04986 -6.97625,0.005 -13.9553,0.0373 -20.93031,-0.009 -2.00759,0.0549 -3.37458,2.05021 -4.68212,3.37142 -1.78436,2.0966 -3.39378,4.33499 -4.9907,6.57527 z"
         style="color:#000000;fill-opacity:1;fill-rule:nonzero;stroke:#0978ab;stroke-width:3.10729649999999991;stroke-linecap:butt;stroke-linejoin:miter;stroke-miterlimit:4;stroke-opacity:1;stroke-dasharray:none;stroke-dashoffset:0;marker:none;visibility:visible;display:inline;overflow:visible;enable-background:accumulate" />
      <path
         transform="translate(106.72399,103.29727)"
         id="path4601"
         d="m 210.42872,480.50336 c -1.15552,0.6215 -2.58346,4.36465 -1.98517,4.96294 0.23395,0.23396 0.66172,0 0.99259,0 0.44702,0 2.67568,0.15104 2.97776,0 4.13092,-2.06545 -1.06111,0.0685 0.99259,-1.98517 0.23395,-0.23396 0.75863,0.23395 0.99259,0 0.23395,-0.23396 0,-0.66173 0,-0.99259 0,-1.65431 0,-3.30863 -3.97036,-1.98518 z"
         style="color:#000000;fill-opacity:1;fill-rule:nonzero;stroke:#0978ab;stroke-width:3.10729649999999991;stroke-linecap:butt;stroke-linejoin:miter;stroke-miterlimit:4;stroke-opacity:1;stroke-dasharray:none;stroke-dashoffset:0;marker:none;visibility:visible;display:inline;overflow:visible;enable-background:accumulate" />
      <path
         transform="translate(106.72399,103.29727)"
         id="path4603"
         d="m 225.31755,479.51077 c -3.4073,-0.77782 -2.87038,3.91667 -4.96294,4.96295 -0.29593,0.14796 -0.75864,-0.23396 -0.99259,0 -0.23396,0.23395 0.33086,0.99258 0,0.99258 -0.33086,0 0,-1.32345 0,-0.99258 0,0.66172 0.29593,1.39331 0,1.98517 -0.14797,0.29594 -0.69666,-0.14796 -0.99259,0 -1.51367,0.75684 -0.99259,2.6084 -0.99259,3.97036 0,0.33086 -0.23395,0.75863 0,0.99258 0.77593,0.77594 1.72676,-0.86337 1.98518,-0.99258 0.29593,-0.14797 0.75863,0.23395 0.99259,0 0.46791,-0.46791 -0.46791,-1.51727 0,-1.98518 0.23395,-0.23396 0.75863,0.23395 0.99259,0 0.23395,-0.23396 -0.14797,-0.69666 0,-0.99259 2.06545,-4.13091 -0.0685,1.06111 1.98517,-0.99259 0.23396,-0.23395 -0.23395,-0.75863 0,-0.99259 0.23396,-0.23395 0.67871,0.10463 0.99259,0 0.70187,-0.23395 1.28331,-0.75863 1.98518,-0.99258 0.31388,-0.10463 0.69665,0.14796 0.99259,0 0.41851,-0.20926 0.57407,-0.78334 0.99258,-0.99259 0.29594,-0.14797 0.66173,0 0.99259,0 0.33087,0 0.66173,0 0.99259,0 0.33086,0 0.66173,0 0.99259,0 0.33086,0 1.11547,0.3072 0.99259,0 -0.71651,-1.79126 -1.98518,-3.30863 -6.94812,-3.97036 z"
         style="color:#000000;fill-opacity:1;fill-rule:nonzero;stroke:#0978ab;stroke-width:3.10729649999999991;stroke-linecap:butt;stroke-linejoin:miter;stroke-miterlimit:4;stroke-opacity:1;stroke-dasharray:none;stroke-dashoffset:0;marker:none;visibility:visible;display:inline;overflow:visible;enable-background:accumulate" />
      <path
         transform="translate(106.72399,103.29727)"
         id="path4605"
         d="m 236.23602,522.19207 c -2.45309,-2.45309 -1.98518,-1.04935 -1.98518,-3.97035 0,-0.33086 -0.23395,-0.75863 0,-0.99259 0.23396,-0.23395 0.66173,0 0.99259,0 0.33087,0 0.99259,-0.33086 0.99259,0 0,0.33086 -1.32345,0 -0.99259,0 0.66173,0 1.32345,0 1.98518,0 0.33086,0 0.99259,-0.33086 0.99259,0 0,0.33086 -0.99259,0.33086 -0.99259,0 0,-0.46791 0.57408,-0.78333 0.99259,-0.99259 0.20361,-0.1018 2.83778,-0.13998 2.97776,0 0.23396,0.23396 0,0.66173 0,0.99259 0,0.33086 0.0544,0.66623 0,0.99259 -0.27735,1.66412 -0.66172,3.30863 -4.96294,3.97035 z"
         style="color:#000000;fill-opacity:1;fill-rule:nonzero;stroke:#0978ab;stroke-width:3.10729649999999991;stroke-linecap:butt;stroke-linejoin:miter;stroke-miterlimit:4;stroke-opacity:1;stroke-dasharray:none;stroke-dashoffset:0;marker:none;visibility:visible;display:inline;overflow:visible;enable-background:accumulate" />
      <path
         transform="translate(106.72399,103.29727)"
         id="path4607"
         d="m 316.63568,519.21431 c 0,3.25036 0.10462,-0.3662 -1.98518,6.94812 -0.0909,0.31813 -0.23396,0.75863 0,0.99258 0.23395,0.23396 0.99259,-0.33086 0.99259,0 0,0.33087 -1.22655,0.23396 -0.99259,0 0.52314,-0.52314 1.28331,-0.75863 1.98518,-0.99258 0.31388,-0.10463 0.75863,0.23395 0.99258,0 0.23396,-0.23396 -0.14796,-0.69666 0,-0.99259 2.06546,-4.13092 -0.0685,1.06111 1.98518,-0.99259 0.23396,-0.23396 -0.23396,-0.75863 0,-0.99259 0.23396,-0.23395 0.75863,0.23396 0.99259,0 0.0319,-0.0319 0,-2.73704 0,-2.97776 0,-1.98518 0,-3.97036 -3.97035,-0.99259 z"
         style="color:#000000;fill-opacity:1;fill-rule:nonzero;stroke:#0978ab;stroke-width:3.10729649999999991;stroke-linecap:butt;stroke-linejoin:miter;stroke-miterlimit:4;stroke-opacity:1;stroke-dasharray:none;stroke-dashoffset:0;marker:none;visibility:visible;display:inline;overflow:visible;enable-background:accumulate" />
      <path
         transform="translate(106.72399,103.29727)"
         id="path4609"
         d="m 328.54674,509.28842 c 7.32976,-3.66488 3.01355,-2.02992 -0.99259,2.97777 -0.20669,0.25836 0.75863,0.23395 0.99259,0 1.49804,-1.49805 2.6469,-3.30863 0,-2.97777 z"
         style="color:#000000;fill-opacity:1;fill-rule:nonzero;stroke:#0978ab;stroke-width:3.10729649999999991;stroke-linecap:butt;stroke-linejoin:miter;stroke-miterlimit:4;stroke-opacity:1;stroke-dasharray:none;stroke-dashoffset:0;marker:none;visibility:visible;display:inline;overflow:visible;enable-background:accumulate" />
      <path
         transform="translate(106.72399,103.29727)"
         id="path4611"
         d="m 248.14708,731.62821 c -1.32345,1.79136 0.99259,0.52468 0.99259,0.99259 0,1.40616 -4.63208,-2.81234 0.99259,0 0.29593,0.14796 -0.23396,0.75863 0,0.99258 0.23395,0.23396 0.66172,0 0.99259,0 0.33086,0 0.66172,0 0.99258,0 0.33087,0 0.66173,0 0.99259,0 0.33087,0 0.99259,-0.33086 0.99259,0 0,0.33087 -1.32345,0 -0.99259,0 0.66173,0 1.32345,0 1.98518,0 1.74711,0 1.98518,0.82097 1.98518,-0.99258 0,-0.33087 -0.33087,-0.99259 0,-0.99259 0.33086,0 0.33086,0.99259 0,0.99259 -0.46791,0 -0.57408,-0.78334 -0.99259,-0.99259 -0.29594,-0.14797 -0.75864,0.23395 -0.99259,0 -1.49805,-1.49805 -2.6469,-3.30863 -6.94812,0 z"
         style="color:#000000;fill-opacity:1;fill-rule:nonzero;stroke:#0978ab;stroke-width:3.10729649999999991;stroke-linecap:butt;stroke-linejoin:miter;stroke-miterlimit:4;stroke-opacity:1;stroke-dasharray:none;stroke-dashoffset:0;marker:none;visibility:visible;display:inline;overflow:visible;enable-background:accumulate" />
      <path
         transform="translate(106.72399,103.29727)"
         id="path4613"
         d="m 234.25084,731.62821 c 0,0.99259 -0.31388,2.03611 0,2.97776 0.10463,0.31389 0.66173,0 0.99259,0 0.33087,0 0.66173,0 0.99259,0 0.66173,0 1.32345,0 1.98518,0 0.33086,0 0.75863,0.23396 0.99259,0 0.23395,-0.23395 -0.23396,-0.75863 0,-0.99259 0.5914,-0.5914 2.97776,0.99067 2.97776,-0.99258 0,-1.68708 -0.66172,-3.30863 -7.94071,-0.99259 z"
         style="color:#000000;fill-opacity:1;fill-rule:nonzero;stroke:#0978ab;stroke-width:3.10729649999999991;stroke-linecap:butt;stroke-linejoin:miter;stroke-miterlimit:4;stroke-opacity:1;stroke-dasharray:none;stroke-dashoffset:0;marker:none;visibility:visible;display:inline;overflow:visible;enable-background:accumulate" />
      <path
         transform="translate(106.72399,103.29727)"
         id="path4615"
         d="m 475.44981,707.80609 c 0,-0.33086 0.23395,-0.75863 0,-0.99259 -0.23396,-0.23396 -0.66173,0 -0.99259,0 -0.66173,-1.98518 -1.41031,-3.94348 -1.98518,-5.95553 -0.0909,-0.31813 -0.23395,-0.75863 0,-0.99259 0.23396,-0.23395 0.75864,0.23396 0.99259,0 0.23396,-0.23395 -0.23395,-0.75863 0,-0.99259 0.23396,-0.23395 0.75863,0.23396 0.99259,0 0.23395,-0.23395 -0.23396,-0.75863 0,-0.99258 0.23395,-0.23396 0.66172,0 0.99259,0 0.33086,0 0.75863,-0.23396 0.99259,0 2.0537,2.0537 -3.13833,-0.0803 0.99258,1.98517 0.29594,0.14797 0.75864,-0.23395 0.99259,0 0.23396,0.23396 -0.23395,0.75863 0,0.99259 0.23396,0.23396 0.75864,-0.23396 0.99259,0 0.23396,0.23396 -0.14797,0.69666 0,0.99259 0.41851,0.83702 1.56666,1.14815 1.98518,1.98518 0.14796,0.29593 0,0.66172 0,0.99258 0,1.98518 0,3.97036 0,5.95553 0,0.33087 0.23395,0.75864 0,0.99259 -0.23396,0.23396 -0.75864,-0.23395 -0.99259,0 -0.23396,0.23396 0.32444,0.9277 0,0.99259 -1.62219,0.32444 -3.30863,0 -4.96294,-4.96294 z"
         style="color:#000000;fill-opacity:1;fill-rule:nonzero;stroke:#0978ab;stroke-width:3.10729649999999991;stroke-linecap:butt;stroke-linejoin:miter;stroke-miterlimit:4;stroke-opacity:1;stroke-dasharray:none;stroke-dashoffset:0;marker:none;visibility:visible;display:inline;overflow:visible;enable-background:accumulate" />
      <path
         transform="translate(106.72399,103.29727)"
         id="path4617"
         d="m 36.725768,834.85739 c 0,1.65432 -0.324438,3.34076 0,4.96295 0.01332,0.0666 4.030722,0 5.95553,0 0.240729,0 2.945843,0.0319 2.977765,0 0.467911,-0.46792 -0.295933,-1.39332 0,-1.98518 0.209256,-0.41851 0.783332,-0.57408 0.992588,-0.99259 0.147967,-0.29593 0,-0.66172 0,-0.99259 0,-0.33086 0.233956,-0.75863 0,-0.99259 -0.496294,-0.49629 -2.481471,0.4963 -2.977765,0 -0.233955,-0.23395 0.233956,-0.75863 0,-0.99258 -0.233955,-0.23396 -0.758633,0.23395 -0.992588,0 -0.233955,-0.23396 -0.330863,-0.99259 0,-0.99259 0.467911,0 1.427032,1.16636 0.992588,0.99259 -2.060749,-0.8243 -3.970353,-1.98518 -6.948118,0.99258 z"
         style="color:#000000;fill-opacity:1;fill-rule:nonzero;stroke:#0978ab;stroke-width:3.10729649999999991;stroke-linecap:butt;stroke-linejoin:miter;stroke-miterlimit:4;stroke-opacity:1;stroke-dasharray:none;stroke-dashoffset:0;marker:none;visibility:visible;display:inline;overflow:visible;enable-background:accumulate" />
      <path
         transform="translate(106.72399,103.29727)"
         id="path4619"
         d="m 92.310714,954.96058 c -2.168706,3.25306 -0.792234,2.97777 -2.977765,2.97777 -0.330863,0 -0.696656,0.14796 -0.992588,0 -0.418512,-0.20926 -0.574077,-0.78334 -0.992589,-0.99259 -0.295932,-0.14797 -0.758633,0.23395 -0.992588,0 -0.04499,-0.045 0,-4.49494 0,-4.96294 0,-0.24073 -0.03192,-2.94585 0,-2.97777 0.233955,-0.23395 0.666227,-0.0544 0.992588,0 1.664122,0.27735 3.308628,0.66173 4.962942,5.95553 z"
         style="color:#000000;fill-opacity:1;fill-rule:nonzero;stroke:#0978ab;stroke-width:3.10729649999999991;stroke-linecap:butt;stroke-linejoin:miter;stroke-miterlimit:4;stroke-opacity:1;stroke-dasharray:none;stroke-dashoffset:0;marker:none;visibility:visible;display:inline;overflow:visible;enable-background:accumulate" />
      <path
         transform="translate(106.72399,103.29727)"
         id="path4621"
         d="m 101.24401,955.95317 c 0.66172,1.32345 1.32345,2.6469 0,0 z"
         style="color:#000000;fill-opacity:1;fill-rule:nonzero;stroke:#0978ab;stroke-width:3.10729649999999991;stroke-linecap:butt;stroke-linejoin:miter;stroke-miterlimit:4;stroke-opacity:1;stroke-dasharray:none;stroke-dashoffset:0;marker:none;visibility:visible;display:inline;overflow:visible;enable-background:accumulate" />
      <path
         transform="translate(106.72399,103.29727)"
         id="path4623"
         d="m -59.555299,648.25079 c 1.323451,-0.33086 4.401745,-2.28677 3.970353,-0.99259 -0.964623,2.89387 -4.125288,4.5078 -5.95553,6.94812 -0.198518,0.26469 0,0.66172 0,0.99259 0,0.33086 -0.198518,1.25728 0,0.99259 2.147297,-2.86307 5.95553,-12.51213 5.95553,-8.9333 0,3.85849 -4.107884,6.53853 -5.95553,9.92588 -0.158434,0.29047 -0.233955,0.75864 0,0.99259 0.233955,0.23396 0.661725,0 0.992588,0 0.330863,0 0.661726,0 0.992589,0 0.330862,0 0.661725,0 0.992588,0 0.330863,0 0.992588,-0.33086 0.992588,0 0,0.33087 -1.323451,0 -0.992588,0 1.349878,0 3.206787,0.53455 3.970353,-0.99259 0.09106,-0.18212 -0.07285,-2.97776 0,-2.97776 0.330863,0 -0.330863,0.99259 0,0.99259 1.226544,0 0.992589,-1.39198 0.992589,-1.98518 0,-2.77434 0.122879,-0.68539 -5.95553,-4.96294 z"
         style="color:#000000;fill-opacity:1;fill-rule:nonzero;stroke:#0978ab;stroke-width:3.10729649999999991;stroke-linecap:butt;stroke-linejoin:miter;stroke-miterlimit:4;stroke-opacity:1;stroke-dasharray:none;stroke-dashoffset:0;marker:none;visibility:visible;display:inline;overflow:visible;enable-background:accumulate" />
    </g>
  </g>
</svg>
